M48
; DRILL file {KiCad 7.0.8} date 2023 October 07, Saturday 19:29:55
; FORMAT={-:-/ absolute / inch / decimal}
; #@! TF.CreationDate,2023-10-07T19:29:55-07:00
; #@! TF.GenerationSoftware,Kicad,Pcbnew,7.0.8
; #@! TF.FileFunction,Plated,1,2,PTH
FMAT,2
INCH
; #@! TA.AperFunction,Plated,PTH,ViaDrill
T1C0.0157
; #@! TA.AperFunction,Plated,PTH,ComponentDrill
T2C0.0236
; #@! TA.AperFunction,Plated,PTH,ComponentDrill
T3C0.0276
; #@! TA.AperFunction,Plated,PTH,ComponentDrill
T4C0.0315
; #@! TA.AperFunction,Plated,PTH,ComponentDrill
T5C0.0354
; #@! TA.AperFunction,Plated,PTH,ComponentDrill
T6C0.0362
; #@! TA.AperFunction,Plated,PTH,ComponentDrill
T7C0.0394
; #@! TA.AperFunction,Plated,PTH,ComponentDrill
T8C0.0433
; #@! TA.AperFunction,Plated,PTH,ComponentDrill
T9C0.0433
; #@! TA.AperFunction,Plated,PTH,ComponentDrill
T10C0.0472
; #@! TA.AperFunction,Plated,PTH,ComponentDrill
T11C0.0591
; #@! TA.AperFunction,Plated,PTH,ComponentDrill
T12C0.0917
%
G90
G05
T1
X2.075Y-2.25
X2.35Y-2.975
X2.475Y-2.975
X2.675Y-2.1
X2.95Y-2.925
X3.25Y-2.975
X3.325Y-2.975
X3.525Y-2.9
X3.6Y-2.9
X3.775Y-2.1215
X3.825Y-2.25
X3.85Y-2.0217
X3.85Y-2.2
X3.875Y-2.6
X3.8875Y-2.275
X3.975Y-2.575
X4.075Y-2.3
X4.075Y-2.3435
X4.075Y-2.8467
X4.0791Y-2.169
X4.1Y-2.4773
X4.125Y-1.975
X4.125Y-2.025
X4.125Y-2.0715
X4.125Y-2.1785
X4.129Y-2.5036
X4.175Y-2.025
X4.1891Y-2.5042
X4.2Y-2.3215
X4.225Y-1.825
X4.225Y-2.1785
X4.25Y-2.1035
X4.25Y-2.3
X4.25Y-2.4283
X4.275Y-2.1785
X4.325Y-2.05
X4.325Y-2.975
X4.35Y-1.95
X4.35Y-2.575
X4.4Y-2.1035
X4.4Y-2.35
X4.4Y-2.425
X4.4Y-2.575
X4.4Y-2.975
X4.425Y-1.95
X4.475Y-1.85
X4.475Y-2.1033
X4.475Y-2.35
X4.525Y-1.9
X4.8Y-1.8965
X4.825Y-1.9535
X4.875Y-2.075
X4.95Y-1.8
X5.075Y-1.8
X5.5Y-1.775
X5.575Y-2.95
X5.6Y-1.675
X5.6Y-2.65
X6.25Y-2.225
X6.3Y-2.375
X6.325Y-2.45
X6.45Y-2.95
X6.475Y-2.425
X6.525Y-2.375
X6.6Y-2.95
T2
X4.4404Y-2.2254
X4.4994Y-2.2254
X4.6159Y-2.125
X4.675Y-2.125
T3
X4.4388Y-2.5004
X4.5136Y-2.5004
X5.075Y-1.45
X5.075Y-1.55
X5.175Y-1.45
X5.175Y-1.55
T4
X1.65Y-2.775
X1.65Y-3.075
X1.75Y-2.775
X1.75Y-3.075
X1.85Y-2.775
X1.85Y-3.075
X1.8661Y-2.175
X1.875Y-2.3
X1.95Y-2.775
X1.95Y-3.075
X1.9661Y-2.175
X1.975Y-2.3
X2.05Y-2.775
X2.05Y-3.075
X2.15Y-2.775
X2.15Y-3.075
X2.1589Y-2.075
X2.175Y-2.3
X2.175Y-2.6
X2.25Y-1.7516
X2.25Y-1.9484
X2.25Y-2.775
X2.25Y-3.075
X2.2589Y-2.075
X2.275Y-2.3
X2.275Y-2.6
X2.35Y-2.775
X2.35Y-3.075
X2.375Y-2.3
X2.375Y-2.6
X2.4Y-4.1
X2.425Y-1.7
X2.425Y-2.0
X2.475Y-2.3
X2.475Y-2.6
X2.5Y-4.1
X2.525Y-1.7
X2.525Y-2.0
X2.575Y-2.3
X2.575Y-2.6
X2.625Y-1.7
X2.625Y-2.0
X2.65Y-2.775
X2.65Y-3.075
X2.675Y-2.3
X2.675Y-2.6
X2.725Y-1.7
X2.725Y-2.0
X2.75Y-2.775
X2.75Y-3.075
X2.775Y-2.3
X2.775Y-2.6
X2.85Y-2.775
X2.85Y-3.075
X2.875Y-2.3
X2.875Y-2.6
X2.95Y-2.775
X2.95Y-3.075
X3.05Y-2.775
X3.05Y-3.075
X3.15Y-2.775
X3.15Y-3.075
X3.25Y-2.775
X3.25Y-3.075
X3.275Y-4.1
X3.35Y-2.775
X3.35Y-3.075
X3.375Y-4.1
X3.475Y-4.1
X3.55Y-2.2016
X3.55Y-2.3984
X3.55Y-2.5016
X3.55Y-2.6984
X3.575Y-4.1
X3.6266Y-1.925
X3.7Y-4.1
X3.725Y-1.925
X3.725Y-2.3543
X3.725Y-2.5465
X3.725Y-2.775
X3.725Y-3.075
X3.7281Y-1.6
X3.8Y-4.1
X3.825Y-2.775
X3.825Y-3.075
X3.925Y-1.6
X3.925Y-2.775
X3.925Y-3.075
X3.9516Y-1.925
X4.025Y-2.775
X4.025Y-3.075
X4.05Y-1.925
X4.125Y-2.775
X4.125Y-3.075
X4.225Y-2.775
X4.225Y-3.075
X4.325Y-2.775
X4.325Y-3.075
X4.4Y-4.075
X4.425Y-2.775
X4.425Y-3.075
X4.5Y-4.075
X4.6516Y-1.75
X4.7244Y-2.2754
X4.7244Y-2.5754
X4.725Y-2.775
X4.725Y-3.075
X4.75Y-1.75
X4.8244Y-2.2754
X4.8244Y-2.5754
X4.825Y-2.775
X4.825Y-3.075
X4.9244Y-2.2754
X4.9244Y-2.5754
X4.925Y-2.775
X4.925Y-3.075
X5.0244Y-2.2754
X5.0244Y-2.5754
X5.025Y-2.775
X5.025Y-3.075
X5.1244Y-2.2754
X5.1244Y-2.5754
X5.125Y-2.775
X5.125Y-3.075
X5.2244Y-2.2754
X5.2244Y-2.5754
X5.225Y-2.775
X5.225Y-3.075
X5.275Y-4.1
X5.3244Y-2.2754
X5.3244Y-2.5754
X5.325Y-2.775
X5.325Y-3.075
X5.375Y-4.1
X5.4244Y-2.2754
X5.4244Y-2.5754
X5.425Y-2.775
X5.425Y-3.075
X5.4839Y-4.075
X5.5839Y-4.075
X5.7Y-4.075
X5.775Y-2.775
X5.775Y-3.075
X5.8Y-4.075
X5.875Y-2.775
X5.875Y-3.075
X5.975Y-2.775
X5.975Y-3.075
X5.9766Y-1.5
X5.9766Y-1.75
X6.075Y-1.5
X6.075Y-1.75
X6.075Y-2.775
X6.075Y-3.075
X6.175Y-2.775
X6.175Y-3.075
X6.2281Y-1.65
X6.2744Y-2.3004
X6.2744Y-2.6004
X6.275Y-2.0089
X6.275Y-2.1089
X6.275Y-2.775
X6.275Y-3.075
X6.3744Y-2.3004
X6.3744Y-2.6004
X6.375Y-2.775
X6.375Y-3.075
X6.425Y-1.65
X6.4744Y-2.3004
X6.4744Y-2.6004
X6.475Y-2.775
X6.475Y-3.075
X6.525Y-4.1
X6.5744Y-2.3004
X6.5744Y-2.6004
X6.6Y-1.475
X6.6Y-1.5734
X6.625Y-4.1
X6.6744Y-2.3004
X6.6744Y-2.6004
X6.75Y-2.775
X6.75Y-3.075
X6.7744Y-2.3004
X6.7744Y-2.6004
X6.85Y-2.775
X6.85Y-3.075
X6.8744Y-2.3004
X6.8744Y-2.6004
X6.95Y-2.775
X6.95Y-3.075
X6.9744Y-2.3004
X6.9744Y-2.6004
X7.05Y-2.775
X7.05Y-3.075
X7.15Y-2.65
X7.15Y-2.775
X7.15Y-3.075
X7.25Y-2.65
X7.25Y-2.775
X7.25Y-3.075
X7.35Y-2.775
X7.35Y-3.075
X7.3661Y-2.65
X7.375Y-2.3054
X7.375Y-2.5023
X7.425Y-4.075
X7.45Y-2.775
X7.45Y-3.075
X7.4661Y-2.65
X7.525Y-4.075
T5
X3.5Y-3.5
X3.5Y-3.8
X3.6Y-3.5
X3.6Y-3.8
X5.6Y-3.5
X5.6Y-3.8
X5.7Y-3.5
X5.7Y-3.8
T6
X5.5138Y-1.9067
X5.5138Y-1.9854
X5.6122Y-1.9067
X5.6122Y-1.9854
T7
X3.2244Y-2.3254
X3.2244Y-2.4254
X3.2244Y-2.5254
X3.3244Y-2.3254
X3.3244Y-2.4254
X3.3244Y-2.5254
X4.075Y-1.5002
X4.075Y-1.6002
X4.225Y-1.5002
X4.225Y-1.6002
X4.375Y-1.5
X4.375Y-1.6
X4.525Y-1.5002
X4.525Y-1.6002
T8
X1.8119Y-3.6529
X1.8169Y-3.4758
X1.8169Y-3.83
X1.8832Y-3.3452
X1.8832Y-3.9606
X2.0406Y-3.3058
X2.0406Y-4.0
X2.198Y-3.3452
X2.198Y-3.9606
X2.2518Y-3.4758
X2.2518Y-3.83
X2.2568Y-3.6529
X2.7588Y-3.6529
X2.7638Y-3.4758
X2.7638Y-3.83
X2.8301Y-3.3452
X2.8301Y-3.9606
X2.9875Y-3.3058
X2.9875Y-4.0
X3.1449Y-3.3452
X3.1449Y-3.9606
X3.1987Y-3.4758
X3.1987Y-3.83
X3.2037Y-3.6529
X3.8601Y-3.6529
X3.8651Y-3.4758
X3.8651Y-3.83
X3.9314Y-3.3452
X3.9314Y-3.9606
X4.0888Y-3.3058
X4.0888Y-4.0
X4.2462Y-3.3452
X4.2462Y-3.9606
X4.3Y-3.4758
X4.3Y-3.83
X4.305Y-3.6529
X4.7845Y-3.6529
X4.7895Y-3.4758
X4.7895Y-3.83
X4.8558Y-3.3452
X4.8558Y-3.9606
X5.0132Y-3.3058
X5.0132Y-4.0
X5.1706Y-3.3452
X5.1706Y-3.9606
X5.2244Y-3.4758
X5.2244Y-3.83
X5.2294Y-3.6529
X5.995Y-3.6529
X6.0Y-3.4758
X6.0Y-3.83
X6.0663Y-3.3452
X6.0663Y-3.9606
X6.2237Y-3.3058
X6.2237Y-4.0
X6.3811Y-3.3452
X6.3811Y-3.9606
X6.4349Y-3.4758
X6.4349Y-3.83
X6.4399Y-3.6529
X6.8957Y-3.6529
X6.9007Y-3.4758
X6.9007Y-3.83
X6.967Y-3.3452
X6.967Y-3.9606
X7.1244Y-3.3058
X7.1244Y-4.0
X7.2818Y-3.3452
X7.2818Y-3.9606
X7.3356Y-3.4758
X7.3356Y-3.83
X7.3406Y-3.6529
T9
X6.7628Y-1.7
X6.7628Y-1.8
X6.7628Y-1.9
T10
X2.275Y-1.525
X2.775Y-1.525
X7.0Y-2.05
X7.5Y-2.05
T11
X3.2Y-1.65
X3.2Y-1.95
X7.275Y-1.575
X7.275Y-1.875
T12
X5.326Y-1.8
X5.8Y-1.8
T7
G00X1.69Y-1.7787
M15
G01X1.69Y-1.8575
M16
G05
G00X1.9144Y-1.7
M15
G01X1.8356Y-1.7
M16
G05
G00X1.9144Y-1.9362
M15
G01X1.8356Y-1.9362
M16
G05
T0
M30
