M48
; DRILL file {KiCad 7.0.2-0} date 2023 May 13, Saturday 13:36:22
; FORMAT={-:-/ absolute / inch / decimal}
; #@! TF.CreationDate,2023-05-13T13:36:22-07:00
; #@! TF.GenerationSoftware,Kicad,Pcbnew,7.0.2-0
; #@! TF.FileFunction,Plated,1,2,PTH
FMAT,2
INCH
; #@! TA.AperFunction,Plated,PTH,ViaDrill
T1C0.0157
; #@! TA.AperFunction,Plated,PTH,ComponentDrill
T2C0.0236
; #@! TA.AperFunction,Plated,PTH,ComponentDrill
T3C0.0276
; #@! TA.AperFunction,Plated,PTH,ComponentDrill
T4C0.0315
; #@! TA.AperFunction,Plated,PTH,ComponentDrill
T5C0.0354
; #@! TA.AperFunction,Plated,PTH,ComponentDrill
T6C0.0394
; #@! TA.AperFunction,Plated,PTH,ComponentDrill
T7C0.0433
; #@! TA.AperFunction,Plated,PTH,ComponentDrill
T8C0.0433
; #@! TA.AperFunction,Plated,PTH,ComponentDrill
T9C0.0472
; #@! TA.AperFunction,Plated,PTH,ComponentDrill
T10C0.0591
%
G90
G05
T1
X2.4Y-1.825
X2.601Y-1.874
X2.75Y-2.075
X3.55Y-2.85
X3.575Y-2.075
X3.625Y-1.75
X3.65Y-3.05
X3.675Y-1.85
X3.775Y-2.025
X3.825Y-1.875
X3.825Y-2.025
X3.825Y-2.125
X3.85Y-1.8285
X3.875Y-2.25
X3.9Y-1.875
X3.9Y-2.025
X3.9Y-2.125
X4.35Y-2.475
X4.4Y-3.05
X4.4249Y-3.2
X4.45Y-2.1
X4.45Y-2.5
X4.45Y-2.675
X4.5Y-2.7
X4.525Y-2.0
X4.55Y-2.65
X4.55Y-2.8
X4.6Y-2.475
X4.6Y-3.05
X4.625Y-2.4
X4.7Y-2.475
X4.725Y-3.05
X4.75Y-2.2
X4.775Y-2.775
X4.825Y-2.95
X4.85Y-2.875
X4.925Y-2.2
X5.175Y-1.875
X5.45Y-2.45
X5.5Y-2.65
X5.525Y-2.85
X5.55Y-2.625
X5.575Y-3.075
X5.625Y-2.575
X5.65Y-2.825
X5.675Y-2.9
T2
X4.5159Y-2.35
X4.575Y-2.35
X5.0Y-2.45
X5.0Y-2.5091
T3
X4.2752Y-2.35
X4.35Y-2.35
T4
X2.4Y-4.1
X2.5Y-4.1
X3.0304Y-2.25
X3.0339Y-1.925
X3.1339Y-1.925
X3.225Y-1.75
X3.2273Y-2.25
X3.275Y-4.1
X3.325Y-1.75
X3.375Y-4.1
X3.45Y-1.925
X3.475Y-4.1
X3.55Y-1.925
X3.575Y-4.1
X3.7Y-4.1
X3.775Y-2.175
X3.775Y-2.475
X3.8Y-4.1
X4.075Y-2.175
X4.075Y-2.475
X4.4Y-4.075
X4.5Y-4.075
X5.275Y-4.1
X5.375Y-4.1
X5.4839Y-4.075
X5.5839Y-4.075
X5.7Y-4.075
X5.7031Y-2.35
X5.7766Y-2.0
X5.8Y-4.075
X5.9Y-2.35
X5.9734Y-2.0
X6.1754Y-2.0504
X6.1754Y-2.1504
X6.1754Y-2.2504
X6.1754Y-2.3504
X6.4754Y-2.0504
X6.4754Y-2.1504
X6.4754Y-2.2504
X6.4754Y-2.3504
X6.525Y-4.1
X6.5661Y-2.4
X6.6Y-2.1411
X6.6Y-2.2411
X6.625Y-4.1
X6.6661Y-2.4
X6.825Y-2.625
X6.825Y-2.725
X7.425Y-4.075
X7.525Y-4.075
T5
X3.5Y-3.5
X3.5Y-3.8
X3.6Y-3.5
X3.6Y-3.8
X5.6Y-3.5
X5.6Y-3.8
X5.7Y-3.5
X5.7Y-3.8
T6
X4.0346Y-1.7
X4.0346Y-1.8
X4.2177Y-1.7
X4.2177Y-1.8
X4.4008Y-1.7
X4.4008Y-1.8
X4.5839Y-1.7
X4.5839Y-1.8
X4.7669Y-1.7
X4.7669Y-1.8
X4.95Y-1.7
X4.95Y-1.8
X5.25Y-2.05
X5.25Y-2.15
X5.25Y-2.25
X5.25Y-2.35
X5.25Y-2.45
X5.35Y-2.05
X5.35Y-2.15
X5.35Y-2.25
X5.35Y-2.35
X5.35Y-2.45
T7
X1.8119Y-3.6529
X1.8169Y-3.4758
X1.8169Y-3.83
X1.8832Y-3.3452
X1.8832Y-3.9606
X2.0406Y-3.3058
X2.0406Y-4.0
X2.198Y-3.3452
X2.198Y-3.9606
X2.2518Y-3.4758
X2.2518Y-3.83
X2.2568Y-3.6529
X2.7588Y-3.6529
X2.7638Y-3.4758
X2.7638Y-3.83
X2.8301Y-3.3452
X2.8301Y-3.9606
X2.9875Y-3.3058
X2.9875Y-4.0
X3.1449Y-3.3452
X3.1449Y-3.9606
X3.1987Y-3.4758
X3.1987Y-3.83
X3.2037Y-3.6529
X3.8601Y-3.6529
X3.8651Y-3.4758
X3.8651Y-3.83
X3.9314Y-3.3452
X3.9314Y-3.9606
X4.0888Y-3.3058
X4.0888Y-4.0
X4.2462Y-3.3452
X4.2462Y-3.9606
X4.3Y-3.4758
X4.3Y-3.83
X4.305Y-3.6529
X4.7845Y-3.6529
X4.7895Y-3.4758
X4.7895Y-3.83
X4.8558Y-3.3452
X4.8558Y-3.9606
X5.0132Y-3.3058
X5.0132Y-4.0
X5.1706Y-3.3452
X5.1706Y-3.9606
X5.2244Y-3.4758
X5.2244Y-3.83
X5.2294Y-3.6529
X5.995Y-3.6529
X6.0Y-3.4758
X6.0Y-3.83
X6.0663Y-3.3452
X6.0663Y-3.9606
X6.2237Y-3.3058
X6.2237Y-4.0
X6.3811Y-3.3452
X6.3811Y-3.9606
X6.4349Y-3.4758
X6.4349Y-3.83
X6.4399Y-3.6529
X6.8957Y-3.6529
X6.9007Y-3.4758
X6.9007Y-3.83
X6.967Y-3.3452
X6.967Y-3.9606
X7.1244Y-3.3058
X7.1244Y-4.0
X7.2818Y-3.3452
X7.2818Y-3.9606
X7.3356Y-3.4758
X7.3356Y-3.83
X7.3406Y-3.6529
T8
X2.525Y-2.3122
X2.625Y-2.3122
X2.725Y-2.3122
T9
X2.425Y-2.575
X2.925Y-2.575
X6.125Y-2.675
X6.625Y-2.675
T10
X1.95Y-2.575
X2.25Y-2.575
X7.05Y-2.05
X7.05Y-2.35
T6
G00X1.75Y-1.7856
M15
G01X1.75Y-1.8644
M16
G05
G00X1.9744Y-1.7069
M15
G01X1.8957Y-1.7069
M16
G05
G00X1.9744Y-1.9431
M15
G01X1.8957Y-1.9431
M16
G05
T0
M30
