%TF.GenerationSoftware,KiCad,Pcbnew,7.0.8*%
%TF.CreationDate,2023-10-07T19:29:42-07:00*%
%TF.ProjectId,nixie3,6e697869-6533-42e6-9b69-6361645f7063,rev?*%
%TF.SameCoordinates,Original*%
%TF.FileFunction,Paste,Top*%
%TF.FilePolarity,Positive*%
%FSLAX46Y46*%
G04 Gerber Fmt 4.6, Leading zero omitted, Abs format (unit mm)*
G04 Created by KiCad (PCBNEW 7.0.8) date 2023-10-07 19:29:42*
%MOMM*%
%LPD*%
G01*
G04 APERTURE LIST*
G04 Aperture macros list*
%AMRoundRect*
0 Rectangle with rounded corners*
0 $1 Rounding radius*
0 $2 $3 $4 $5 $6 $7 $8 $9 X,Y pos of 4 corners*
0 Add a 4 corners polygon primitive as box body*
4,1,4,$2,$3,$4,$5,$6,$7,$8,$9,$2,$3,0*
0 Add four circle primitives for the rounded corners*
1,1,$1+$1,$2,$3*
1,1,$1+$1,$4,$5*
1,1,$1+$1,$6,$7*
1,1,$1+$1,$8,$9*
0 Add four rect primitives between the rounded corners*
20,1,$1+$1,$2,$3,$4,$5,0*
20,1,$1+$1,$4,$5,$6,$7,0*
20,1,$1+$1,$6,$7,$8,$9,0*
20,1,$1+$1,$8,$9,$2,$3,0*%
G04 Aperture macros list end*
%ADD10R,1.600000X0.550000*%
%ADD11R,0.550000X1.600000*%
%ADD12RoundRect,0.008200X0.196800X-0.976800X0.196800X0.976800X-0.196800X0.976800X-0.196800X-0.976800X0*%
%ADD13RoundRect,0.008200X-0.196800X0.976800X-0.196800X-0.976800X0.196800X-0.976800X0.196800X0.976800X0*%
%ADD14R,1.320800X0.508000*%
G04 APERTURE END LIST*
D10*
%TO.C,U1*%
X101340000Y-58265000D03*
X101340000Y-59065000D03*
X101340000Y-59865000D03*
X101340000Y-60665000D03*
X101340000Y-61465000D03*
X101340000Y-62265000D03*
X101340000Y-63065000D03*
X101340000Y-63865000D03*
D11*
X102790000Y-65315000D03*
X103590000Y-65315000D03*
X104390000Y-65315000D03*
X105190000Y-65315000D03*
X105990000Y-65315000D03*
X106790000Y-65315000D03*
X107590000Y-65315000D03*
X108390000Y-65315000D03*
D10*
X109840000Y-63865000D03*
X109840000Y-63065000D03*
X109840000Y-62265000D03*
X109840000Y-61465000D03*
X109840000Y-60665000D03*
X109840000Y-59865000D03*
X109840000Y-59065000D03*
X109840000Y-58265000D03*
D11*
X108390000Y-56815000D03*
X107590000Y-56815000D03*
X106790000Y-56815000D03*
X105990000Y-56815000D03*
X105190000Y-56815000D03*
X104390000Y-56815000D03*
X103590000Y-56815000D03*
X102790000Y-56815000D03*
%TD*%
D12*
%TO.C,U6*%
X124460000Y-48260000D03*
X125095000Y-48260000D03*
X125730000Y-48260000D03*
X126365000Y-48260000D03*
X127000000Y-48260000D03*
X127635000Y-48260000D03*
X128270000Y-48260000D03*
X128905000Y-48260000D03*
X129540000Y-48260000D03*
X130175000Y-48260000D03*
D13*
X130175000Y-43320000D03*
X129540000Y-43320000D03*
X128905000Y-43320000D03*
X128270000Y-43320000D03*
X127635000Y-43320000D03*
X127000000Y-43320000D03*
X126365000Y-43320000D03*
X125730000Y-43320000D03*
X125095000Y-43320000D03*
X124460000Y-43320000D03*
%TD*%
D14*
%TO.C,U2*%
X163144200Y-50165000D03*
X163144200Y-51115001D03*
X163144200Y-52065002D03*
X165735000Y-52065002D03*
X165735000Y-50165000D03*
%TD*%
M02*
