%TF.GenerationSoftware,KiCad,Pcbnew,7.0.2-0*%
%TF.CreationDate,2023-05-13T13:36:10-07:00*%
%TF.ProjectId,nixie3,6e697869-6533-42e6-9b69-6361645f7063,rev?*%
%TF.SameCoordinates,Original*%
%TF.FileFunction,Legend,Top*%
%TF.FilePolarity,Positive*%
%FSLAX46Y46*%
G04 Gerber Fmt 4.6, Leading zero omitted, Abs format (unit mm)*
G04 Created by KiCad (PCBNEW 7.0.2-0) date 2023-05-13 13:36:10*
%MOMM*%
%LPD*%
G01*
G04 APERTURE LIST*
%ADD10C,0.150000*%
%ADD11C,0.101600*%
%ADD12C,0.120000*%
%ADD13C,0.254000*%
%ADD14C,0.127000*%
%ADD15C,0.152400*%
G04 APERTURE END LIST*
D10*
%TO.C,R17*%
X82542142Y-42542619D02*
X82208809Y-42066428D01*
X81970714Y-42542619D02*
X81970714Y-41542619D01*
X81970714Y-41542619D02*
X82351666Y-41542619D01*
X82351666Y-41542619D02*
X82446904Y-41590238D01*
X82446904Y-41590238D02*
X82494523Y-41637857D01*
X82494523Y-41637857D02*
X82542142Y-41733095D01*
X82542142Y-41733095D02*
X82542142Y-41875952D01*
X82542142Y-41875952D02*
X82494523Y-41971190D01*
X82494523Y-41971190D02*
X82446904Y-42018809D01*
X82446904Y-42018809D02*
X82351666Y-42066428D01*
X82351666Y-42066428D02*
X81970714Y-42066428D01*
X83494523Y-42542619D02*
X82923095Y-42542619D01*
X83208809Y-42542619D02*
X83208809Y-41542619D01*
X83208809Y-41542619D02*
X83113571Y-41685476D01*
X83113571Y-41685476D02*
X83018333Y-41780714D01*
X83018333Y-41780714D02*
X82923095Y-41828333D01*
X83827857Y-41542619D02*
X84494523Y-41542619D01*
X84494523Y-41542619D02*
X84065952Y-42542619D01*
%TO.C,R10*%
X189222142Y-101597619D02*
X188888809Y-101121428D01*
X188650714Y-101597619D02*
X188650714Y-100597619D01*
X188650714Y-100597619D02*
X189031666Y-100597619D01*
X189031666Y-100597619D02*
X189126904Y-100645238D01*
X189126904Y-100645238D02*
X189174523Y-100692857D01*
X189174523Y-100692857D02*
X189222142Y-100788095D01*
X189222142Y-100788095D02*
X189222142Y-100930952D01*
X189222142Y-100930952D02*
X189174523Y-101026190D01*
X189174523Y-101026190D02*
X189126904Y-101073809D01*
X189126904Y-101073809D02*
X189031666Y-101121428D01*
X189031666Y-101121428D02*
X188650714Y-101121428D01*
X190174523Y-101597619D02*
X189603095Y-101597619D01*
X189888809Y-101597619D02*
X189888809Y-100597619D01*
X189888809Y-100597619D02*
X189793571Y-100740476D01*
X189793571Y-100740476D02*
X189698333Y-100835714D01*
X189698333Y-100835714D02*
X189603095Y-100883333D01*
X190793571Y-100597619D02*
X190888809Y-100597619D01*
X190888809Y-100597619D02*
X190984047Y-100645238D01*
X190984047Y-100645238D02*
X191031666Y-100692857D01*
X191031666Y-100692857D02*
X191079285Y-100788095D01*
X191079285Y-100788095D02*
X191126904Y-100978571D01*
X191126904Y-100978571D02*
X191126904Y-101216666D01*
X191126904Y-101216666D02*
X191079285Y-101407142D01*
X191079285Y-101407142D02*
X191031666Y-101502380D01*
X191031666Y-101502380D02*
X190984047Y-101550000D01*
X190984047Y-101550000D02*
X190888809Y-101597619D01*
X190888809Y-101597619D02*
X190793571Y-101597619D01*
X190793571Y-101597619D02*
X190698333Y-101550000D01*
X190698333Y-101550000D02*
X190650714Y-101502380D01*
X190650714Y-101502380D02*
X190603095Y-101407142D01*
X190603095Y-101407142D02*
X190555476Y-101216666D01*
X190555476Y-101216666D02*
X190555476Y-100978571D01*
X190555476Y-100978571D02*
X190603095Y-100788095D01*
X190603095Y-100788095D02*
X190650714Y-100692857D01*
X190650714Y-100692857D02*
X190698333Y-100645238D01*
X190698333Y-100645238D02*
X190793571Y-100597619D01*
%TO.C,R3*%
X88733333Y-46987619D02*
X88400000Y-46511428D01*
X88161905Y-46987619D02*
X88161905Y-45987619D01*
X88161905Y-45987619D02*
X88542857Y-45987619D01*
X88542857Y-45987619D02*
X88638095Y-46035238D01*
X88638095Y-46035238D02*
X88685714Y-46082857D01*
X88685714Y-46082857D02*
X88733333Y-46178095D01*
X88733333Y-46178095D02*
X88733333Y-46320952D01*
X88733333Y-46320952D02*
X88685714Y-46416190D01*
X88685714Y-46416190D02*
X88638095Y-46463809D01*
X88638095Y-46463809D02*
X88542857Y-46511428D01*
X88542857Y-46511428D02*
X88161905Y-46511428D01*
X89066667Y-45987619D02*
X89685714Y-45987619D01*
X89685714Y-45987619D02*
X89352381Y-46368571D01*
X89352381Y-46368571D02*
X89495238Y-46368571D01*
X89495238Y-46368571D02*
X89590476Y-46416190D01*
X89590476Y-46416190D02*
X89638095Y-46463809D01*
X89638095Y-46463809D02*
X89685714Y-46559047D01*
X89685714Y-46559047D02*
X89685714Y-46797142D01*
X89685714Y-46797142D02*
X89638095Y-46892380D01*
X89638095Y-46892380D02*
X89590476Y-46940000D01*
X89590476Y-46940000D02*
X89495238Y-46987619D01*
X89495238Y-46987619D02*
X89209524Y-46987619D01*
X89209524Y-46987619D02*
X89114286Y-46940000D01*
X89114286Y-46940000D02*
X89066667Y-46892380D01*
%TO.C,R12*%
X139917142Y-101597619D02*
X139583809Y-101121428D01*
X139345714Y-101597619D02*
X139345714Y-100597619D01*
X139345714Y-100597619D02*
X139726666Y-100597619D01*
X139726666Y-100597619D02*
X139821904Y-100645238D01*
X139821904Y-100645238D02*
X139869523Y-100692857D01*
X139869523Y-100692857D02*
X139917142Y-100788095D01*
X139917142Y-100788095D02*
X139917142Y-100930952D01*
X139917142Y-100930952D02*
X139869523Y-101026190D01*
X139869523Y-101026190D02*
X139821904Y-101073809D01*
X139821904Y-101073809D02*
X139726666Y-101121428D01*
X139726666Y-101121428D02*
X139345714Y-101121428D01*
X140869523Y-101597619D02*
X140298095Y-101597619D01*
X140583809Y-101597619D02*
X140583809Y-100597619D01*
X140583809Y-100597619D02*
X140488571Y-100740476D01*
X140488571Y-100740476D02*
X140393333Y-100835714D01*
X140393333Y-100835714D02*
X140298095Y-100883333D01*
X141250476Y-100692857D02*
X141298095Y-100645238D01*
X141298095Y-100645238D02*
X141393333Y-100597619D01*
X141393333Y-100597619D02*
X141631428Y-100597619D01*
X141631428Y-100597619D02*
X141726666Y-100645238D01*
X141726666Y-100645238D02*
X141774285Y-100692857D01*
X141774285Y-100692857D02*
X141821904Y-100788095D01*
X141821904Y-100788095D02*
X141821904Y-100883333D01*
X141821904Y-100883333D02*
X141774285Y-101026190D01*
X141774285Y-101026190D02*
X141202857Y-101597619D01*
X141202857Y-101597619D02*
X141821904Y-101597619D01*
%TO.C,R1*%
X109373333Y-58232619D02*
X109040000Y-57756428D01*
X108801905Y-58232619D02*
X108801905Y-57232619D01*
X108801905Y-57232619D02*
X109182857Y-57232619D01*
X109182857Y-57232619D02*
X109278095Y-57280238D01*
X109278095Y-57280238D02*
X109325714Y-57327857D01*
X109325714Y-57327857D02*
X109373333Y-57423095D01*
X109373333Y-57423095D02*
X109373333Y-57565952D01*
X109373333Y-57565952D02*
X109325714Y-57661190D01*
X109325714Y-57661190D02*
X109278095Y-57708809D01*
X109278095Y-57708809D02*
X109182857Y-57756428D01*
X109182857Y-57756428D02*
X108801905Y-57756428D01*
X110325714Y-58232619D02*
X109754286Y-58232619D01*
X110040000Y-58232619D02*
X110040000Y-57232619D01*
X110040000Y-57232619D02*
X109944762Y-57375476D01*
X109944762Y-57375476D02*
X109849524Y-57470714D01*
X109849524Y-57470714D02*
X109754286Y-57518333D01*
%TO.C,R15*%
X167407142Y-63792619D02*
X167073809Y-63316428D01*
X166835714Y-63792619D02*
X166835714Y-62792619D01*
X166835714Y-62792619D02*
X167216666Y-62792619D01*
X167216666Y-62792619D02*
X167311904Y-62840238D01*
X167311904Y-62840238D02*
X167359523Y-62887857D01*
X167359523Y-62887857D02*
X167407142Y-62983095D01*
X167407142Y-62983095D02*
X167407142Y-63125952D01*
X167407142Y-63125952D02*
X167359523Y-63221190D01*
X167359523Y-63221190D02*
X167311904Y-63268809D01*
X167311904Y-63268809D02*
X167216666Y-63316428D01*
X167216666Y-63316428D02*
X166835714Y-63316428D01*
X168359523Y-63792619D02*
X167788095Y-63792619D01*
X168073809Y-63792619D02*
X168073809Y-62792619D01*
X168073809Y-62792619D02*
X167978571Y-62935476D01*
X167978571Y-62935476D02*
X167883333Y-63030714D01*
X167883333Y-63030714D02*
X167788095Y-63078333D01*
X169264285Y-62792619D02*
X168788095Y-62792619D01*
X168788095Y-62792619D02*
X168740476Y-63268809D01*
X168740476Y-63268809D02*
X168788095Y-63221190D01*
X168788095Y-63221190D02*
X168883333Y-63173571D01*
X168883333Y-63173571D02*
X169121428Y-63173571D01*
X169121428Y-63173571D02*
X169216666Y-63221190D01*
X169216666Y-63221190D02*
X169264285Y-63268809D01*
X169264285Y-63268809D02*
X169311904Y-63364047D01*
X169311904Y-63364047D02*
X169311904Y-63602142D01*
X169311904Y-63602142D02*
X169264285Y-63697380D01*
X169264285Y-63697380D02*
X169216666Y-63745000D01*
X169216666Y-63745000D02*
X169121428Y-63792619D01*
X169121428Y-63792619D02*
X168883333Y-63792619D01*
X168883333Y-63792619D02*
X168788095Y-63745000D01*
X168788095Y-63745000D02*
X168740476Y-63697380D01*
%TO.C,R13*%
X145407142Y-101597619D02*
X145073809Y-101121428D01*
X144835714Y-101597619D02*
X144835714Y-100597619D01*
X144835714Y-100597619D02*
X145216666Y-100597619D01*
X145216666Y-100597619D02*
X145311904Y-100645238D01*
X145311904Y-100645238D02*
X145359523Y-100692857D01*
X145359523Y-100692857D02*
X145407142Y-100788095D01*
X145407142Y-100788095D02*
X145407142Y-100930952D01*
X145407142Y-100930952D02*
X145359523Y-101026190D01*
X145359523Y-101026190D02*
X145311904Y-101073809D01*
X145311904Y-101073809D02*
X145216666Y-101121428D01*
X145216666Y-101121428D02*
X144835714Y-101121428D01*
X146359523Y-101597619D02*
X145788095Y-101597619D01*
X146073809Y-101597619D02*
X146073809Y-100597619D01*
X146073809Y-100597619D02*
X145978571Y-100740476D01*
X145978571Y-100740476D02*
X145883333Y-100835714D01*
X145883333Y-100835714D02*
X145788095Y-100883333D01*
X146692857Y-100597619D02*
X147311904Y-100597619D01*
X147311904Y-100597619D02*
X146978571Y-100978571D01*
X146978571Y-100978571D02*
X147121428Y-100978571D01*
X147121428Y-100978571D02*
X147216666Y-101026190D01*
X147216666Y-101026190D02*
X147264285Y-101073809D01*
X147264285Y-101073809D02*
X147311904Y-101169047D01*
X147311904Y-101169047D02*
X147311904Y-101407142D01*
X147311904Y-101407142D02*
X147264285Y-101502380D01*
X147264285Y-101502380D02*
X147216666Y-101550000D01*
X147216666Y-101550000D02*
X147121428Y-101597619D01*
X147121428Y-101597619D02*
X146835714Y-101597619D01*
X146835714Y-101597619D02*
X146740476Y-101550000D01*
X146740476Y-101550000D02*
X146692857Y-101502380D01*
%TO.C,C1*%
X115288333Y-56807380D02*
X115240714Y-56855000D01*
X115240714Y-56855000D02*
X115097857Y-56902619D01*
X115097857Y-56902619D02*
X115002619Y-56902619D01*
X115002619Y-56902619D02*
X114859762Y-56855000D01*
X114859762Y-56855000D02*
X114764524Y-56759761D01*
X114764524Y-56759761D02*
X114716905Y-56664523D01*
X114716905Y-56664523D02*
X114669286Y-56474047D01*
X114669286Y-56474047D02*
X114669286Y-56331190D01*
X114669286Y-56331190D02*
X114716905Y-56140714D01*
X114716905Y-56140714D02*
X114764524Y-56045476D01*
X114764524Y-56045476D02*
X114859762Y-55950238D01*
X114859762Y-55950238D02*
X115002619Y-55902619D01*
X115002619Y-55902619D02*
X115097857Y-55902619D01*
X115097857Y-55902619D02*
X115240714Y-55950238D01*
X115240714Y-55950238D02*
X115288333Y-55997857D01*
X116240714Y-56902619D02*
X115669286Y-56902619D01*
X115955000Y-56902619D02*
X115955000Y-55902619D01*
X115955000Y-55902619D02*
X115859762Y-56045476D01*
X115859762Y-56045476D02*
X115764524Y-56140714D01*
X115764524Y-56140714D02*
X115669286Y-56188333D01*
D11*
%TO.C,NX3*%
X114443026Y-94038541D02*
X113173026Y-94038541D01*
X113173026Y-94038541D02*
X114443026Y-93312826D01*
X114443026Y-93312826D02*
X113173026Y-93312826D01*
X113173026Y-92829017D02*
X114443026Y-91982350D01*
X113173026Y-91982350D02*
X114443026Y-92829017D01*
X113173026Y-91619493D02*
X113173026Y-90833302D01*
X113173026Y-90833302D02*
X113656835Y-91256636D01*
X113656835Y-91256636D02*
X113656835Y-91075207D01*
X113656835Y-91075207D02*
X113717311Y-90954255D01*
X113717311Y-90954255D02*
X113777788Y-90893779D01*
X113777788Y-90893779D02*
X113898740Y-90833302D01*
X113898740Y-90833302D02*
X114201121Y-90833302D01*
X114201121Y-90833302D02*
X114322073Y-90893779D01*
X114322073Y-90893779D02*
X114382550Y-90954255D01*
X114382550Y-90954255D02*
X114443026Y-91075207D01*
X114443026Y-91075207D02*
X114443026Y-91438064D01*
X114443026Y-91438064D02*
X114382550Y-91559017D01*
X114382550Y-91559017D02*
X114322073Y-91619493D01*
D10*
X100299761Y-97742526D02*
X100299761Y-96472526D01*
X100904523Y-97742526D02*
X100904523Y-96472526D01*
X100904523Y-96472526D02*
X101630238Y-97742526D01*
X101630238Y-97742526D02*
X101630238Y-96472526D01*
X102234999Y-97258716D02*
X103202619Y-97258716D01*
X104472619Y-97742526D02*
X103746904Y-97742526D01*
X104109761Y-97742526D02*
X104109761Y-96472526D01*
X104109761Y-96472526D02*
X103988809Y-96653954D01*
X103988809Y-96653954D02*
X103867857Y-96774907D01*
X103867857Y-96774907D02*
X103746904Y-96835383D01*
X104956428Y-96593478D02*
X105016904Y-96533002D01*
X105016904Y-96533002D02*
X105137857Y-96472526D01*
X105137857Y-96472526D02*
X105440238Y-96472526D01*
X105440238Y-96472526D02*
X105561190Y-96533002D01*
X105561190Y-96533002D02*
X105621666Y-96593478D01*
X105621666Y-96593478D02*
X105682143Y-96714430D01*
X105682143Y-96714430D02*
X105682143Y-96835383D01*
X105682143Y-96835383D02*
X105621666Y-97016811D01*
X105621666Y-97016811D02*
X104895952Y-97742526D01*
X104895952Y-97742526D02*
X105682143Y-97742526D01*
X106165952Y-97379669D02*
X106770714Y-97379669D01*
X106045000Y-97742526D02*
X106468333Y-96472526D01*
X106468333Y-96472526D02*
X106891667Y-97742526D01*
%TO.C,D1*%
X67206905Y-68787619D02*
X67206905Y-67787619D01*
X67206905Y-67787619D02*
X67445000Y-67787619D01*
X67445000Y-67787619D02*
X67587857Y-67835238D01*
X67587857Y-67835238D02*
X67683095Y-67930476D01*
X67683095Y-67930476D02*
X67730714Y-68025714D01*
X67730714Y-68025714D02*
X67778333Y-68216190D01*
X67778333Y-68216190D02*
X67778333Y-68359047D01*
X67778333Y-68359047D02*
X67730714Y-68549523D01*
X67730714Y-68549523D02*
X67683095Y-68644761D01*
X67683095Y-68644761D02*
X67587857Y-68740000D01*
X67587857Y-68740000D02*
X67445000Y-68787619D01*
X67445000Y-68787619D02*
X67206905Y-68787619D01*
X68730714Y-68787619D02*
X68159286Y-68787619D01*
X68445000Y-68787619D02*
X68445000Y-67787619D01*
X68445000Y-67787619D02*
X68349762Y-67930476D01*
X68349762Y-67930476D02*
X68254524Y-68025714D01*
X68254524Y-68025714D02*
X68159286Y-68073333D01*
X74033095Y-68067619D02*
X74033095Y-67067619D01*
X74604523Y-68067619D02*
X74175952Y-67496190D01*
X74604523Y-67067619D02*
X74033095Y-67639047D01*
%TO.C,NE1*%
X88955714Y-86402619D02*
X88955714Y-85402619D01*
X88955714Y-85402619D02*
X89527142Y-86402619D01*
X89527142Y-86402619D02*
X89527142Y-85402619D01*
X90003333Y-85878809D02*
X90336666Y-85878809D01*
X90479523Y-86402619D02*
X90003333Y-86402619D01*
X90003333Y-86402619D02*
X90003333Y-85402619D01*
X90003333Y-85402619D02*
X90479523Y-85402619D01*
X91431904Y-86402619D02*
X90860476Y-86402619D01*
X91146190Y-86402619D02*
X91146190Y-85402619D01*
X91146190Y-85402619D02*
X91050952Y-85545476D01*
X91050952Y-85545476D02*
X90955714Y-85640714D01*
X90955714Y-85640714D02*
X90860476Y-85688333D01*
%TO.C,U4*%
X143644820Y-76021903D02*
X144454343Y-76021903D01*
X144454343Y-76021903D02*
X144549581Y-75974284D01*
X144549581Y-75974284D02*
X144597201Y-75926665D01*
X144597201Y-75926665D02*
X144644820Y-75831427D01*
X144644820Y-75831427D02*
X144644820Y-75640951D01*
X144644820Y-75640951D02*
X144597201Y-75545713D01*
X144597201Y-75545713D02*
X144549581Y-75498094D01*
X144549581Y-75498094D02*
X144454343Y-75450475D01*
X144454343Y-75450475D02*
X143644820Y-75450475D01*
X143978153Y-74545713D02*
X144644820Y-74545713D01*
X143597201Y-74783808D02*
X144311486Y-75021903D01*
X144311486Y-75021903D02*
X144311486Y-74402856D01*
X138863820Y-82250597D02*
X139101915Y-82250597D01*
X139006677Y-82488692D02*
X139101915Y-82250597D01*
X139101915Y-82250597D02*
X139006677Y-82012502D01*
X139292391Y-82393454D02*
X139101915Y-82250597D01*
X139101915Y-82250597D02*
X139292391Y-82107740D01*
X138863820Y-82250597D02*
X139101915Y-82250597D01*
X139006677Y-82488692D02*
X139101915Y-82250597D01*
X139101915Y-82250597D02*
X139006677Y-82012502D01*
X139292391Y-82393454D02*
X139101915Y-82250597D01*
X139101915Y-82250597D02*
X139292391Y-82107740D01*
%TO.C,R4*%
X89368333Y-106972619D02*
X89035000Y-106496428D01*
X88796905Y-106972619D02*
X88796905Y-105972619D01*
X88796905Y-105972619D02*
X89177857Y-105972619D01*
X89177857Y-105972619D02*
X89273095Y-106020238D01*
X89273095Y-106020238D02*
X89320714Y-106067857D01*
X89320714Y-106067857D02*
X89368333Y-106163095D01*
X89368333Y-106163095D02*
X89368333Y-106305952D01*
X89368333Y-106305952D02*
X89320714Y-106401190D01*
X89320714Y-106401190D02*
X89273095Y-106448809D01*
X89273095Y-106448809D02*
X89177857Y-106496428D01*
X89177857Y-106496428D02*
X88796905Y-106496428D01*
X90225476Y-106305952D02*
X90225476Y-106972619D01*
X89987381Y-105925000D02*
X89749286Y-106639285D01*
X89749286Y-106639285D02*
X90368333Y-106639285D01*
%TO.C,J4*%
X106796666Y-47512619D02*
X106796666Y-48226904D01*
X106796666Y-48226904D02*
X106749047Y-48369761D01*
X106749047Y-48369761D02*
X106653809Y-48465000D01*
X106653809Y-48465000D02*
X106510952Y-48512619D01*
X106510952Y-48512619D02*
X106415714Y-48512619D01*
X107701428Y-47845952D02*
X107701428Y-48512619D01*
X107463333Y-47465000D02*
X107225238Y-48179285D01*
X107225238Y-48179285D02*
X107844285Y-48179285D01*
%TO.C,R8*%
X135088333Y-102232619D02*
X134755000Y-101756428D01*
X134516905Y-102232619D02*
X134516905Y-101232619D01*
X134516905Y-101232619D02*
X134897857Y-101232619D01*
X134897857Y-101232619D02*
X134993095Y-101280238D01*
X134993095Y-101280238D02*
X135040714Y-101327857D01*
X135040714Y-101327857D02*
X135088333Y-101423095D01*
X135088333Y-101423095D02*
X135088333Y-101565952D01*
X135088333Y-101565952D02*
X135040714Y-101661190D01*
X135040714Y-101661190D02*
X134993095Y-101708809D01*
X134993095Y-101708809D02*
X134897857Y-101756428D01*
X134897857Y-101756428D02*
X134516905Y-101756428D01*
X135659762Y-101661190D02*
X135564524Y-101613571D01*
X135564524Y-101613571D02*
X135516905Y-101565952D01*
X135516905Y-101565952D02*
X135469286Y-101470714D01*
X135469286Y-101470714D02*
X135469286Y-101423095D01*
X135469286Y-101423095D02*
X135516905Y-101327857D01*
X135516905Y-101327857D02*
X135564524Y-101280238D01*
X135564524Y-101280238D02*
X135659762Y-101232619D01*
X135659762Y-101232619D02*
X135850238Y-101232619D01*
X135850238Y-101232619D02*
X135945476Y-101280238D01*
X135945476Y-101280238D02*
X135993095Y-101327857D01*
X135993095Y-101327857D02*
X136040714Y-101423095D01*
X136040714Y-101423095D02*
X136040714Y-101470714D01*
X136040714Y-101470714D02*
X135993095Y-101565952D01*
X135993095Y-101565952D02*
X135945476Y-101613571D01*
X135945476Y-101613571D02*
X135850238Y-101661190D01*
X135850238Y-101661190D02*
X135659762Y-101661190D01*
X135659762Y-101661190D02*
X135564524Y-101708809D01*
X135564524Y-101708809D02*
X135516905Y-101756428D01*
X135516905Y-101756428D02*
X135469286Y-101851666D01*
X135469286Y-101851666D02*
X135469286Y-102042142D01*
X135469286Y-102042142D02*
X135516905Y-102137380D01*
X135516905Y-102137380D02*
X135564524Y-102185000D01*
X135564524Y-102185000D02*
X135659762Y-102232619D01*
X135659762Y-102232619D02*
X135850238Y-102232619D01*
X135850238Y-102232619D02*
X135945476Y-102185000D01*
X135945476Y-102185000D02*
X135993095Y-102137380D01*
X135993095Y-102137380D02*
X136040714Y-102042142D01*
X136040714Y-102042142D02*
X136040714Y-101851666D01*
X136040714Y-101851666D02*
X135993095Y-101756428D01*
X135993095Y-101756428D02*
X135945476Y-101708809D01*
X135945476Y-101708809D02*
X135850238Y-101661190D01*
%TO.C,J5*%
X111446666Y-47512619D02*
X111446666Y-48226904D01*
X111446666Y-48226904D02*
X111399047Y-48369761D01*
X111399047Y-48369761D02*
X111303809Y-48465000D01*
X111303809Y-48465000D02*
X111160952Y-48512619D01*
X111160952Y-48512619D02*
X111065714Y-48512619D01*
X112399047Y-47512619D02*
X111922857Y-47512619D01*
X111922857Y-47512619D02*
X111875238Y-47988809D01*
X111875238Y-47988809D02*
X111922857Y-47941190D01*
X111922857Y-47941190D02*
X112018095Y-47893571D01*
X112018095Y-47893571D02*
X112256190Y-47893571D01*
X112256190Y-47893571D02*
X112351428Y-47941190D01*
X112351428Y-47941190D02*
X112399047Y-47988809D01*
X112399047Y-47988809D02*
X112446666Y-48084047D01*
X112446666Y-48084047D02*
X112446666Y-48322142D01*
X112446666Y-48322142D02*
X112399047Y-48417380D01*
X112399047Y-48417380D02*
X112351428Y-48465000D01*
X112351428Y-48465000D02*
X112256190Y-48512619D01*
X112256190Y-48512619D02*
X112018095Y-48512619D01*
X112018095Y-48512619D02*
X111922857Y-48465000D01*
X111922857Y-48465000D02*
X111875238Y-48417380D01*
D11*
%TO.C,NX4*%
X137923046Y-94038541D02*
X136653046Y-94038541D01*
X136653046Y-94038541D02*
X137923046Y-93312826D01*
X137923046Y-93312826D02*
X136653046Y-93312826D01*
X136653046Y-92829017D02*
X137923046Y-91982350D01*
X136653046Y-91982350D02*
X137923046Y-92829017D01*
X137076379Y-90954255D02*
X137923046Y-90954255D01*
X136592570Y-91256636D02*
X137499712Y-91559017D01*
X137499712Y-91559017D02*
X137499712Y-90772826D01*
D10*
X124429761Y-97742526D02*
X124429761Y-96472526D01*
X125034523Y-97742526D02*
X125034523Y-96472526D01*
X125034523Y-96472526D02*
X125760238Y-97742526D01*
X125760238Y-97742526D02*
X125760238Y-96472526D01*
X126364999Y-97258716D02*
X127332619Y-97258716D01*
X128602619Y-97742526D02*
X127876904Y-97742526D01*
X128239761Y-97742526D02*
X128239761Y-96472526D01*
X128239761Y-96472526D02*
X128118809Y-96653954D01*
X128118809Y-96653954D02*
X127997857Y-96774907D01*
X127997857Y-96774907D02*
X127876904Y-96835383D01*
X129086428Y-96593478D02*
X129146904Y-96533002D01*
X129146904Y-96533002D02*
X129267857Y-96472526D01*
X129267857Y-96472526D02*
X129570238Y-96472526D01*
X129570238Y-96472526D02*
X129691190Y-96533002D01*
X129691190Y-96533002D02*
X129751666Y-96593478D01*
X129751666Y-96593478D02*
X129812143Y-96714430D01*
X129812143Y-96714430D02*
X129812143Y-96835383D01*
X129812143Y-96835383D02*
X129751666Y-97016811D01*
X129751666Y-97016811D02*
X129025952Y-97742526D01*
X129025952Y-97742526D02*
X129812143Y-97742526D01*
X130295952Y-97379669D02*
X130900714Y-97379669D01*
X130175000Y-97742526D02*
X130598333Y-96472526D01*
X130598333Y-96472526D02*
X131021667Y-97742526D01*
D11*
%TO.C,NX2*%
X86470006Y-94038541D02*
X85200006Y-94038541D01*
X85200006Y-94038541D02*
X86470006Y-93312826D01*
X86470006Y-93312826D02*
X85200006Y-93312826D01*
X85200006Y-92829017D02*
X86470006Y-91982350D01*
X85200006Y-91982350D02*
X86470006Y-92829017D01*
X85320958Y-91559017D02*
X85260482Y-91498541D01*
X85260482Y-91498541D02*
X85200006Y-91377588D01*
X85200006Y-91377588D02*
X85200006Y-91075207D01*
X85200006Y-91075207D02*
X85260482Y-90954255D01*
X85260482Y-90954255D02*
X85320958Y-90893779D01*
X85320958Y-90893779D02*
X85441910Y-90833302D01*
X85441910Y-90833302D02*
X85562863Y-90833302D01*
X85562863Y-90833302D02*
X85744291Y-90893779D01*
X85744291Y-90893779D02*
X86470006Y-91619493D01*
X86470006Y-91619493D02*
X86470006Y-90833302D01*
D10*
X72994761Y-97107526D02*
X72994761Y-95837526D01*
X73599523Y-97107526D02*
X73599523Y-95837526D01*
X73599523Y-95837526D02*
X74325238Y-97107526D01*
X74325238Y-97107526D02*
X74325238Y-95837526D01*
X74929999Y-96623716D02*
X75897619Y-96623716D01*
X77167619Y-97107526D02*
X76441904Y-97107526D01*
X76804761Y-97107526D02*
X76804761Y-95837526D01*
X76804761Y-95837526D02*
X76683809Y-96018954D01*
X76683809Y-96018954D02*
X76562857Y-96139907D01*
X76562857Y-96139907D02*
X76441904Y-96200383D01*
X77651428Y-95958478D02*
X77711904Y-95898002D01*
X77711904Y-95898002D02*
X77832857Y-95837526D01*
X77832857Y-95837526D02*
X78135238Y-95837526D01*
X78135238Y-95837526D02*
X78256190Y-95898002D01*
X78256190Y-95898002D02*
X78316666Y-95958478D01*
X78316666Y-95958478D02*
X78377143Y-96079430D01*
X78377143Y-96079430D02*
X78377143Y-96200383D01*
X78377143Y-96200383D02*
X78316666Y-96381811D01*
X78316666Y-96381811D02*
X77590952Y-97107526D01*
X77590952Y-97107526D02*
X78377143Y-97107526D01*
X78860952Y-96744669D02*
X79465714Y-96744669D01*
X78740000Y-97107526D02*
X79163333Y-95837526D01*
X79163333Y-95837526D02*
X79586667Y-97107526D01*
%TO.C,D2*%
X161186905Y-65487619D02*
X161186905Y-64487619D01*
X161186905Y-64487619D02*
X161425000Y-64487619D01*
X161425000Y-64487619D02*
X161567857Y-64535238D01*
X161567857Y-64535238D02*
X161663095Y-64630476D01*
X161663095Y-64630476D02*
X161710714Y-64725714D01*
X161710714Y-64725714D02*
X161758333Y-64916190D01*
X161758333Y-64916190D02*
X161758333Y-65059047D01*
X161758333Y-65059047D02*
X161710714Y-65249523D01*
X161710714Y-65249523D02*
X161663095Y-65344761D01*
X161663095Y-65344761D02*
X161567857Y-65440000D01*
X161567857Y-65440000D02*
X161425000Y-65487619D01*
X161425000Y-65487619D02*
X161186905Y-65487619D01*
X162139286Y-64582857D02*
X162186905Y-64535238D01*
X162186905Y-64535238D02*
X162282143Y-64487619D01*
X162282143Y-64487619D02*
X162520238Y-64487619D01*
X162520238Y-64487619D02*
X162615476Y-64535238D01*
X162615476Y-64535238D02*
X162663095Y-64582857D01*
X162663095Y-64582857D02*
X162710714Y-64678095D01*
X162710714Y-64678095D02*
X162710714Y-64773333D01*
X162710714Y-64773333D02*
X162663095Y-64916190D01*
X162663095Y-64916190D02*
X162091667Y-65487619D01*
X162091667Y-65487619D02*
X162710714Y-65487619D01*
X155313095Y-66207619D02*
X155313095Y-65207619D01*
X155884523Y-66207619D02*
X155455952Y-65636190D01*
X155884523Y-65207619D02*
X155313095Y-65779047D01*
%TO.C,R2*%
X78163333Y-46987619D02*
X77830000Y-46511428D01*
X77591905Y-46987619D02*
X77591905Y-45987619D01*
X77591905Y-45987619D02*
X77972857Y-45987619D01*
X77972857Y-45987619D02*
X78068095Y-46035238D01*
X78068095Y-46035238D02*
X78115714Y-46082857D01*
X78115714Y-46082857D02*
X78163333Y-46178095D01*
X78163333Y-46178095D02*
X78163333Y-46320952D01*
X78163333Y-46320952D02*
X78115714Y-46416190D01*
X78115714Y-46416190D02*
X78068095Y-46463809D01*
X78068095Y-46463809D02*
X77972857Y-46511428D01*
X77972857Y-46511428D02*
X77591905Y-46511428D01*
X78544286Y-46082857D02*
X78591905Y-46035238D01*
X78591905Y-46035238D02*
X78687143Y-45987619D01*
X78687143Y-45987619D02*
X78925238Y-45987619D01*
X78925238Y-45987619D02*
X79020476Y-46035238D01*
X79020476Y-46035238D02*
X79068095Y-46082857D01*
X79068095Y-46082857D02*
X79115714Y-46178095D01*
X79115714Y-46178095D02*
X79115714Y-46273333D01*
X79115714Y-46273333D02*
X79068095Y-46416190D01*
X79068095Y-46416190D02*
X78496667Y-46987619D01*
X78496667Y-46987619D02*
X79115714Y-46987619D01*
%TO.C,U1*%
X114173095Y-63262619D02*
X114173095Y-64072142D01*
X114173095Y-64072142D02*
X114220714Y-64167380D01*
X114220714Y-64167380D02*
X114268333Y-64215000D01*
X114268333Y-64215000D02*
X114363571Y-64262619D01*
X114363571Y-64262619D02*
X114554047Y-64262619D01*
X114554047Y-64262619D02*
X114649285Y-64215000D01*
X114649285Y-64215000D02*
X114696904Y-64167380D01*
X114696904Y-64167380D02*
X114744523Y-64072142D01*
X114744523Y-64072142D02*
X114744523Y-63262619D01*
X115744523Y-64262619D02*
X115173095Y-64262619D01*
X115458809Y-64262619D02*
X115458809Y-63262619D01*
X115458809Y-63262619D02*
X115363571Y-63405476D01*
X115363571Y-63405476D02*
X115268333Y-63500714D01*
X115268333Y-63500714D02*
X115173095Y-63548333D01*
%TO.C,C2*%
X124117380Y-63146666D02*
X124165000Y-63194285D01*
X124165000Y-63194285D02*
X124212619Y-63337142D01*
X124212619Y-63337142D02*
X124212619Y-63432380D01*
X124212619Y-63432380D02*
X124165000Y-63575237D01*
X124165000Y-63575237D02*
X124069761Y-63670475D01*
X124069761Y-63670475D02*
X123974523Y-63718094D01*
X123974523Y-63718094D02*
X123784047Y-63765713D01*
X123784047Y-63765713D02*
X123641190Y-63765713D01*
X123641190Y-63765713D02*
X123450714Y-63718094D01*
X123450714Y-63718094D02*
X123355476Y-63670475D01*
X123355476Y-63670475D02*
X123260238Y-63575237D01*
X123260238Y-63575237D02*
X123212619Y-63432380D01*
X123212619Y-63432380D02*
X123212619Y-63337142D01*
X123212619Y-63337142D02*
X123260238Y-63194285D01*
X123260238Y-63194285D02*
X123307857Y-63146666D01*
X123307857Y-62765713D02*
X123260238Y-62718094D01*
X123260238Y-62718094D02*
X123212619Y-62622856D01*
X123212619Y-62622856D02*
X123212619Y-62384761D01*
X123212619Y-62384761D02*
X123260238Y-62289523D01*
X123260238Y-62289523D02*
X123307857Y-62241904D01*
X123307857Y-62241904D02*
X123403095Y-62194285D01*
X123403095Y-62194285D02*
X123498333Y-62194285D01*
X123498333Y-62194285D02*
X123641190Y-62241904D01*
X123641190Y-62241904D02*
X124212619Y-62813332D01*
X124212619Y-62813332D02*
X124212619Y-62194285D01*
%TO.C,L1*%
X47242619Y-65571666D02*
X47242619Y-66047856D01*
X47242619Y-66047856D02*
X46242619Y-66047856D01*
X47242619Y-64714523D02*
X47242619Y-65285951D01*
X47242619Y-65000237D02*
X46242619Y-65000237D01*
X46242619Y-65000237D02*
X46385476Y-65095475D01*
X46385476Y-65095475D02*
X46480714Y-65190713D01*
X46480714Y-65190713D02*
X46528333Y-65285951D01*
%TO.C,R14*%
X165732619Y-56297857D02*
X165256428Y-56631190D01*
X165732619Y-56869285D02*
X164732619Y-56869285D01*
X164732619Y-56869285D02*
X164732619Y-56488333D01*
X164732619Y-56488333D02*
X164780238Y-56393095D01*
X164780238Y-56393095D02*
X164827857Y-56345476D01*
X164827857Y-56345476D02*
X164923095Y-56297857D01*
X164923095Y-56297857D02*
X165065952Y-56297857D01*
X165065952Y-56297857D02*
X165161190Y-56345476D01*
X165161190Y-56345476D02*
X165208809Y-56393095D01*
X165208809Y-56393095D02*
X165256428Y-56488333D01*
X165256428Y-56488333D02*
X165256428Y-56869285D01*
X165732619Y-55345476D02*
X165732619Y-55916904D01*
X165732619Y-55631190D02*
X164732619Y-55631190D01*
X164732619Y-55631190D02*
X164875476Y-55726428D01*
X164875476Y-55726428D02*
X164970714Y-55821666D01*
X164970714Y-55821666D02*
X165018333Y-55916904D01*
X165065952Y-54488333D02*
X165732619Y-54488333D01*
X164685000Y-54726428D02*
X165399285Y-54964523D01*
X165399285Y-54964523D02*
X165399285Y-54345476D01*
%TO.C,J7*%
X120746666Y-47512619D02*
X120746666Y-48226904D01*
X120746666Y-48226904D02*
X120699047Y-48369761D01*
X120699047Y-48369761D02*
X120603809Y-48465000D01*
X120603809Y-48465000D02*
X120460952Y-48512619D01*
X120460952Y-48512619D02*
X120365714Y-48512619D01*
X121127619Y-47512619D02*
X121794285Y-47512619D01*
X121794285Y-47512619D02*
X121365714Y-48512619D01*
%TO.C,U3*%
X90304820Y-76161903D02*
X91114343Y-76161903D01*
X91114343Y-76161903D02*
X91209581Y-76114284D01*
X91209581Y-76114284D02*
X91257201Y-76066665D01*
X91257201Y-76066665D02*
X91304820Y-75971427D01*
X91304820Y-75971427D02*
X91304820Y-75780951D01*
X91304820Y-75780951D02*
X91257201Y-75685713D01*
X91257201Y-75685713D02*
X91209581Y-75638094D01*
X91209581Y-75638094D02*
X91114343Y-75590475D01*
X91114343Y-75590475D02*
X90304820Y-75590475D01*
X90304820Y-75209522D02*
X90304820Y-74590475D01*
X90304820Y-74590475D02*
X90685772Y-74923808D01*
X90685772Y-74923808D02*
X90685772Y-74780951D01*
X90685772Y-74780951D02*
X90733391Y-74685713D01*
X90733391Y-74685713D02*
X90781010Y-74638094D01*
X90781010Y-74638094D02*
X90876248Y-74590475D01*
X90876248Y-74590475D02*
X91114343Y-74590475D01*
X91114343Y-74590475D02*
X91209581Y-74638094D01*
X91209581Y-74638094D02*
X91257201Y-74685713D01*
X91257201Y-74685713D02*
X91304820Y-74780951D01*
X91304820Y-74780951D02*
X91304820Y-75066665D01*
X91304820Y-75066665D02*
X91257201Y-75161903D01*
X91257201Y-75161903D02*
X91209581Y-75209522D01*
X85523820Y-82390597D02*
X85761915Y-82390597D01*
X85666677Y-82628692D02*
X85761915Y-82390597D01*
X85761915Y-82390597D02*
X85666677Y-82152502D01*
X85952391Y-82533454D02*
X85761915Y-82390597D01*
X85761915Y-82390597D02*
X85952391Y-82247740D01*
X85523820Y-82390597D02*
X85761915Y-82390597D01*
X85666677Y-82628692D02*
X85761915Y-82390597D01*
X85761915Y-82390597D02*
X85666677Y-82152502D01*
X85952391Y-82533454D02*
X85761915Y-82390597D01*
X85761915Y-82390597D02*
X85952391Y-82247740D01*
%TO.C,C3*%
X79305682Y-52267380D02*
X79258063Y-52315000D01*
X79258063Y-52315000D02*
X79115206Y-52362619D01*
X79115206Y-52362619D02*
X79019968Y-52362619D01*
X79019968Y-52362619D02*
X78877111Y-52315000D01*
X78877111Y-52315000D02*
X78781873Y-52219761D01*
X78781873Y-52219761D02*
X78734254Y-52124523D01*
X78734254Y-52124523D02*
X78686635Y-51934047D01*
X78686635Y-51934047D02*
X78686635Y-51791190D01*
X78686635Y-51791190D02*
X78734254Y-51600714D01*
X78734254Y-51600714D02*
X78781873Y-51505476D01*
X78781873Y-51505476D02*
X78877111Y-51410238D01*
X78877111Y-51410238D02*
X79019968Y-51362619D01*
X79019968Y-51362619D02*
X79115206Y-51362619D01*
X79115206Y-51362619D02*
X79258063Y-51410238D01*
X79258063Y-51410238D02*
X79305682Y-51457857D01*
X79639016Y-51362619D02*
X80258063Y-51362619D01*
X80258063Y-51362619D02*
X79924730Y-51743571D01*
X79924730Y-51743571D02*
X80067587Y-51743571D01*
X80067587Y-51743571D02*
X80162825Y-51791190D01*
X80162825Y-51791190D02*
X80210444Y-51838809D01*
X80210444Y-51838809D02*
X80258063Y-51934047D01*
X80258063Y-51934047D02*
X80258063Y-52172142D01*
X80258063Y-52172142D02*
X80210444Y-52267380D01*
X80210444Y-52267380D02*
X80162825Y-52315000D01*
X80162825Y-52315000D02*
X80067587Y-52362619D01*
X80067587Y-52362619D02*
X79781873Y-52362619D01*
X79781873Y-52362619D02*
X79686635Y-52315000D01*
X79686635Y-52315000D02*
X79639016Y-52267380D01*
%TO.C,J8*%
X125396666Y-47512619D02*
X125396666Y-48226904D01*
X125396666Y-48226904D02*
X125349047Y-48369761D01*
X125349047Y-48369761D02*
X125253809Y-48465000D01*
X125253809Y-48465000D02*
X125110952Y-48512619D01*
X125110952Y-48512619D02*
X125015714Y-48512619D01*
X126015714Y-47941190D02*
X125920476Y-47893571D01*
X125920476Y-47893571D02*
X125872857Y-47845952D01*
X125872857Y-47845952D02*
X125825238Y-47750714D01*
X125825238Y-47750714D02*
X125825238Y-47703095D01*
X125825238Y-47703095D02*
X125872857Y-47607857D01*
X125872857Y-47607857D02*
X125920476Y-47560238D01*
X125920476Y-47560238D02*
X126015714Y-47512619D01*
X126015714Y-47512619D02*
X126206190Y-47512619D01*
X126206190Y-47512619D02*
X126301428Y-47560238D01*
X126301428Y-47560238D02*
X126349047Y-47607857D01*
X126349047Y-47607857D02*
X126396666Y-47703095D01*
X126396666Y-47703095D02*
X126396666Y-47750714D01*
X126396666Y-47750714D02*
X126349047Y-47845952D01*
X126349047Y-47845952D02*
X126301428Y-47893571D01*
X126301428Y-47893571D02*
X126206190Y-47941190D01*
X126206190Y-47941190D02*
X126015714Y-47941190D01*
X126015714Y-47941190D02*
X125920476Y-47988809D01*
X125920476Y-47988809D02*
X125872857Y-48036428D01*
X125872857Y-48036428D02*
X125825238Y-48131666D01*
X125825238Y-48131666D02*
X125825238Y-48322142D01*
X125825238Y-48322142D02*
X125872857Y-48417380D01*
X125872857Y-48417380D02*
X125920476Y-48465000D01*
X125920476Y-48465000D02*
X126015714Y-48512619D01*
X126015714Y-48512619D02*
X126206190Y-48512619D01*
X126206190Y-48512619D02*
X126301428Y-48465000D01*
X126301428Y-48465000D02*
X126349047Y-48417380D01*
X126349047Y-48417380D02*
X126396666Y-48322142D01*
X126396666Y-48322142D02*
X126396666Y-48131666D01*
X126396666Y-48131666D02*
X126349047Y-48036428D01*
X126349047Y-48036428D02*
X126301428Y-47988809D01*
X126301428Y-47988809D02*
X126206190Y-47941190D01*
%TO.C,R5*%
X95083333Y-102232619D02*
X94750000Y-101756428D01*
X94511905Y-102232619D02*
X94511905Y-101232619D01*
X94511905Y-101232619D02*
X94892857Y-101232619D01*
X94892857Y-101232619D02*
X94988095Y-101280238D01*
X94988095Y-101280238D02*
X95035714Y-101327857D01*
X95035714Y-101327857D02*
X95083333Y-101423095D01*
X95083333Y-101423095D02*
X95083333Y-101565952D01*
X95083333Y-101565952D02*
X95035714Y-101661190D01*
X95035714Y-101661190D02*
X94988095Y-101708809D01*
X94988095Y-101708809D02*
X94892857Y-101756428D01*
X94892857Y-101756428D02*
X94511905Y-101756428D01*
X95988095Y-101232619D02*
X95511905Y-101232619D01*
X95511905Y-101232619D02*
X95464286Y-101708809D01*
X95464286Y-101708809D02*
X95511905Y-101661190D01*
X95511905Y-101661190D02*
X95607143Y-101613571D01*
X95607143Y-101613571D02*
X95845238Y-101613571D01*
X95845238Y-101613571D02*
X95940476Y-101661190D01*
X95940476Y-101661190D02*
X95988095Y-101708809D01*
X95988095Y-101708809D02*
X96035714Y-101804047D01*
X96035714Y-101804047D02*
X96035714Y-102042142D01*
X96035714Y-102042142D02*
X95988095Y-102137380D01*
X95988095Y-102137380D02*
X95940476Y-102185000D01*
X95940476Y-102185000D02*
X95845238Y-102232619D01*
X95845238Y-102232619D02*
X95607143Y-102232619D01*
X95607143Y-102232619D02*
X95511905Y-102185000D01*
X95511905Y-102185000D02*
X95464286Y-102137380D01*
%TO.C,C5*%
X147193333Y-54807380D02*
X147145714Y-54855000D01*
X147145714Y-54855000D02*
X147002857Y-54902619D01*
X147002857Y-54902619D02*
X146907619Y-54902619D01*
X146907619Y-54902619D02*
X146764762Y-54855000D01*
X146764762Y-54855000D02*
X146669524Y-54759761D01*
X146669524Y-54759761D02*
X146621905Y-54664523D01*
X146621905Y-54664523D02*
X146574286Y-54474047D01*
X146574286Y-54474047D02*
X146574286Y-54331190D01*
X146574286Y-54331190D02*
X146621905Y-54140714D01*
X146621905Y-54140714D02*
X146669524Y-54045476D01*
X146669524Y-54045476D02*
X146764762Y-53950238D01*
X146764762Y-53950238D02*
X146907619Y-53902619D01*
X146907619Y-53902619D02*
X147002857Y-53902619D01*
X147002857Y-53902619D02*
X147145714Y-53950238D01*
X147145714Y-53950238D02*
X147193333Y-53997857D01*
X148098095Y-53902619D02*
X147621905Y-53902619D01*
X147621905Y-53902619D02*
X147574286Y-54378809D01*
X147574286Y-54378809D02*
X147621905Y-54331190D01*
X147621905Y-54331190D02*
X147717143Y-54283571D01*
X147717143Y-54283571D02*
X147955238Y-54283571D01*
X147955238Y-54283571D02*
X148050476Y-54331190D01*
X148050476Y-54331190D02*
X148098095Y-54378809D01*
X148098095Y-54378809D02*
X148145714Y-54474047D01*
X148145714Y-54474047D02*
X148145714Y-54712142D01*
X148145714Y-54712142D02*
X148098095Y-54807380D01*
X148098095Y-54807380D02*
X148050476Y-54855000D01*
X148050476Y-54855000D02*
X147955238Y-54902619D01*
X147955238Y-54902619D02*
X147717143Y-54902619D01*
X147717143Y-54902619D02*
X147621905Y-54855000D01*
X147621905Y-54855000D02*
X147574286Y-54807380D01*
%TO.C,R16*%
X176187619Y-68587857D02*
X175711428Y-68921190D01*
X176187619Y-69159285D02*
X175187619Y-69159285D01*
X175187619Y-69159285D02*
X175187619Y-68778333D01*
X175187619Y-68778333D02*
X175235238Y-68683095D01*
X175235238Y-68683095D02*
X175282857Y-68635476D01*
X175282857Y-68635476D02*
X175378095Y-68587857D01*
X175378095Y-68587857D02*
X175520952Y-68587857D01*
X175520952Y-68587857D02*
X175616190Y-68635476D01*
X175616190Y-68635476D02*
X175663809Y-68683095D01*
X175663809Y-68683095D02*
X175711428Y-68778333D01*
X175711428Y-68778333D02*
X175711428Y-69159285D01*
X176187619Y-67635476D02*
X176187619Y-68206904D01*
X176187619Y-67921190D02*
X175187619Y-67921190D01*
X175187619Y-67921190D02*
X175330476Y-68016428D01*
X175330476Y-68016428D02*
X175425714Y-68111666D01*
X175425714Y-68111666D02*
X175473333Y-68206904D01*
X175187619Y-66778333D02*
X175187619Y-66968809D01*
X175187619Y-66968809D02*
X175235238Y-67064047D01*
X175235238Y-67064047D02*
X175282857Y-67111666D01*
X175282857Y-67111666D02*
X175425714Y-67206904D01*
X175425714Y-67206904D02*
X175616190Y-67254523D01*
X175616190Y-67254523D02*
X175997142Y-67254523D01*
X175997142Y-67254523D02*
X176092380Y-67206904D01*
X176092380Y-67206904D02*
X176140000Y-67159285D01*
X176140000Y-67159285D02*
X176187619Y-67064047D01*
X176187619Y-67064047D02*
X176187619Y-66873571D01*
X176187619Y-66873571D02*
X176140000Y-66778333D01*
X176140000Y-66778333D02*
X176092380Y-66730714D01*
X176092380Y-66730714D02*
X175997142Y-66683095D01*
X175997142Y-66683095D02*
X175759047Y-66683095D01*
X175759047Y-66683095D02*
X175663809Y-66730714D01*
X175663809Y-66730714D02*
X175616190Y-66778333D01*
X175616190Y-66778333D02*
X175568571Y-66873571D01*
X175568571Y-66873571D02*
X175568571Y-67064047D01*
X175568571Y-67064047D02*
X175616190Y-67159285D01*
X175616190Y-67159285D02*
X175663809Y-67206904D01*
X175663809Y-67206904D02*
X175759047Y-67254523D01*
%TO.C,L2*%
X178903333Y-49782619D02*
X178427143Y-49782619D01*
X178427143Y-49782619D02*
X178427143Y-48782619D01*
X179189048Y-48877857D02*
X179236667Y-48830238D01*
X179236667Y-48830238D02*
X179331905Y-48782619D01*
X179331905Y-48782619D02*
X179570000Y-48782619D01*
X179570000Y-48782619D02*
X179665238Y-48830238D01*
X179665238Y-48830238D02*
X179712857Y-48877857D01*
X179712857Y-48877857D02*
X179760476Y-48973095D01*
X179760476Y-48973095D02*
X179760476Y-49068333D01*
X179760476Y-49068333D02*
X179712857Y-49211190D01*
X179712857Y-49211190D02*
X179141429Y-49782619D01*
X179141429Y-49782619D02*
X179760476Y-49782619D01*
%TO.C,NE2*%
X88955714Y-94022619D02*
X88955714Y-93022619D01*
X88955714Y-93022619D02*
X89527142Y-94022619D01*
X89527142Y-94022619D02*
X89527142Y-93022619D01*
X90003333Y-93498809D02*
X90336666Y-93498809D01*
X90479523Y-94022619D02*
X90003333Y-94022619D01*
X90003333Y-94022619D02*
X90003333Y-93022619D01*
X90003333Y-93022619D02*
X90479523Y-93022619D01*
X90860476Y-93117857D02*
X90908095Y-93070238D01*
X90908095Y-93070238D02*
X91003333Y-93022619D01*
X91003333Y-93022619D02*
X91241428Y-93022619D01*
X91241428Y-93022619D02*
X91336666Y-93070238D01*
X91336666Y-93070238D02*
X91384285Y-93117857D01*
X91384285Y-93117857D02*
X91431904Y-93213095D01*
X91431904Y-93213095D02*
X91431904Y-93308333D01*
X91431904Y-93308333D02*
X91384285Y-93451190D01*
X91384285Y-93451190D02*
X90812857Y-94022619D01*
X90812857Y-94022619D02*
X91431904Y-94022619D01*
D11*
%TO.C,NX6*%
X191546506Y-94038541D02*
X190276506Y-94038541D01*
X190276506Y-94038541D02*
X191546506Y-93312826D01*
X191546506Y-93312826D02*
X190276506Y-93312826D01*
X190276506Y-92829017D02*
X191546506Y-91982350D01*
X190276506Y-91982350D02*
X191546506Y-92829017D01*
X190276506Y-90954255D02*
X190276506Y-91196160D01*
X190276506Y-91196160D02*
X190336982Y-91317112D01*
X190336982Y-91317112D02*
X190397458Y-91377588D01*
X190397458Y-91377588D02*
X190578887Y-91498541D01*
X190578887Y-91498541D02*
X190820791Y-91559017D01*
X190820791Y-91559017D02*
X191304601Y-91559017D01*
X191304601Y-91559017D02*
X191425553Y-91498541D01*
X191425553Y-91498541D02*
X191486030Y-91438064D01*
X191486030Y-91438064D02*
X191546506Y-91317112D01*
X191546506Y-91317112D02*
X191546506Y-91075207D01*
X191546506Y-91075207D02*
X191486030Y-90954255D01*
X191486030Y-90954255D02*
X191425553Y-90893779D01*
X191425553Y-90893779D02*
X191304601Y-90833302D01*
X191304601Y-90833302D02*
X191002220Y-90833302D01*
X191002220Y-90833302D02*
X190881268Y-90893779D01*
X190881268Y-90893779D02*
X190820791Y-90954255D01*
X190820791Y-90954255D02*
X190760315Y-91075207D01*
X190760315Y-91075207D02*
X190760315Y-91317112D01*
X190760315Y-91317112D02*
X190820791Y-91438064D01*
X190820791Y-91438064D02*
X190881268Y-91498541D01*
X190881268Y-91498541D02*
X191002220Y-91559017D01*
D10*
X178404761Y-97107526D02*
X178404761Y-95837526D01*
X179009523Y-97107526D02*
X179009523Y-95837526D01*
X179009523Y-95837526D02*
X179735238Y-97107526D01*
X179735238Y-97107526D02*
X179735238Y-95837526D01*
X180339999Y-96623716D02*
X181307619Y-96623716D01*
X182577619Y-97107526D02*
X181851904Y-97107526D01*
X182214761Y-97107526D02*
X182214761Y-95837526D01*
X182214761Y-95837526D02*
X182093809Y-96018954D01*
X182093809Y-96018954D02*
X181972857Y-96139907D01*
X181972857Y-96139907D02*
X181851904Y-96200383D01*
X183061428Y-95958478D02*
X183121904Y-95898002D01*
X183121904Y-95898002D02*
X183242857Y-95837526D01*
X183242857Y-95837526D02*
X183545238Y-95837526D01*
X183545238Y-95837526D02*
X183666190Y-95898002D01*
X183666190Y-95898002D02*
X183726666Y-95958478D01*
X183726666Y-95958478D02*
X183787143Y-96079430D01*
X183787143Y-96079430D02*
X183787143Y-96200383D01*
X183787143Y-96200383D02*
X183726666Y-96381811D01*
X183726666Y-96381811D02*
X183000952Y-97107526D01*
X183000952Y-97107526D02*
X183787143Y-97107526D01*
X184270952Y-96744669D02*
X184875714Y-96744669D01*
X184150000Y-97107526D02*
X184573333Y-95837526D01*
X184573333Y-95837526D02*
X184996667Y-97107526D01*
%TO.C,Q1*%
X66579761Y-55017857D02*
X66484523Y-54970238D01*
X66484523Y-54970238D02*
X66389285Y-54875000D01*
X66389285Y-54875000D02*
X66246428Y-54732142D01*
X66246428Y-54732142D02*
X66151190Y-54684523D01*
X66151190Y-54684523D02*
X66055952Y-54684523D01*
X66103571Y-54922619D02*
X66008333Y-54875000D01*
X66008333Y-54875000D02*
X65913095Y-54779761D01*
X65913095Y-54779761D02*
X65865476Y-54589285D01*
X65865476Y-54589285D02*
X65865476Y-54255952D01*
X65865476Y-54255952D02*
X65913095Y-54065476D01*
X65913095Y-54065476D02*
X66008333Y-53970238D01*
X66008333Y-53970238D02*
X66103571Y-53922619D01*
X66103571Y-53922619D02*
X66294047Y-53922619D01*
X66294047Y-53922619D02*
X66389285Y-53970238D01*
X66389285Y-53970238D02*
X66484523Y-54065476D01*
X66484523Y-54065476D02*
X66532142Y-54255952D01*
X66532142Y-54255952D02*
X66532142Y-54589285D01*
X66532142Y-54589285D02*
X66484523Y-54779761D01*
X66484523Y-54779761D02*
X66389285Y-54875000D01*
X66389285Y-54875000D02*
X66294047Y-54922619D01*
X66294047Y-54922619D02*
X66103571Y-54922619D01*
X67484523Y-54922619D02*
X66913095Y-54922619D01*
X67198809Y-54922619D02*
X67198809Y-53922619D01*
X67198809Y-53922619D02*
X67103571Y-54065476D01*
X67103571Y-54065476D02*
X67008333Y-54160714D01*
X67008333Y-54160714D02*
X66913095Y-54208333D01*
%TO.C,J6*%
X116096666Y-47512619D02*
X116096666Y-48226904D01*
X116096666Y-48226904D02*
X116049047Y-48369761D01*
X116049047Y-48369761D02*
X115953809Y-48465000D01*
X115953809Y-48465000D02*
X115810952Y-48512619D01*
X115810952Y-48512619D02*
X115715714Y-48512619D01*
X117001428Y-47512619D02*
X116810952Y-47512619D01*
X116810952Y-47512619D02*
X116715714Y-47560238D01*
X116715714Y-47560238D02*
X116668095Y-47607857D01*
X116668095Y-47607857D02*
X116572857Y-47750714D01*
X116572857Y-47750714D02*
X116525238Y-47941190D01*
X116525238Y-47941190D02*
X116525238Y-48322142D01*
X116525238Y-48322142D02*
X116572857Y-48417380D01*
X116572857Y-48417380D02*
X116620476Y-48465000D01*
X116620476Y-48465000D02*
X116715714Y-48512619D01*
X116715714Y-48512619D02*
X116906190Y-48512619D01*
X116906190Y-48512619D02*
X117001428Y-48465000D01*
X117001428Y-48465000D02*
X117049047Y-48417380D01*
X117049047Y-48417380D02*
X117096666Y-48322142D01*
X117096666Y-48322142D02*
X117096666Y-48084047D01*
X117096666Y-48084047D02*
X117049047Y-47988809D01*
X117049047Y-47988809D02*
X117001428Y-47941190D01*
X117001428Y-47941190D02*
X116906190Y-47893571D01*
X116906190Y-47893571D02*
X116715714Y-47893571D01*
X116715714Y-47893571D02*
X116620476Y-47941190D01*
X116620476Y-47941190D02*
X116572857Y-47988809D01*
X116572857Y-47988809D02*
X116525238Y-48084047D01*
%TO.C,X1*%
X106607619Y-59864523D02*
X107607619Y-59197857D01*
X106607619Y-59197857D02*
X107607619Y-59864523D01*
X107607619Y-58293095D02*
X107607619Y-58864523D01*
X107607619Y-58578809D02*
X106607619Y-58578809D01*
X106607619Y-58578809D02*
X106750476Y-58674047D01*
X106750476Y-58674047D02*
X106845714Y-58769285D01*
X106845714Y-58769285D02*
X106893333Y-58864523D01*
D11*
%TO.C,NX1*%
X62420006Y-94038541D02*
X61150006Y-94038541D01*
X61150006Y-94038541D02*
X62420006Y-93312826D01*
X62420006Y-93312826D02*
X61150006Y-93312826D01*
X61150006Y-92829017D02*
X62420006Y-91982350D01*
X61150006Y-91982350D02*
X62420006Y-92829017D01*
X62420006Y-90833302D02*
X62420006Y-91559017D01*
X62420006Y-91196160D02*
X61150006Y-91196160D01*
X61150006Y-91196160D02*
X61331434Y-91317112D01*
X61331434Y-91317112D02*
X61452387Y-91438064D01*
X61452387Y-91438064D02*
X61512863Y-91559017D01*
D10*
X48229761Y-98377526D02*
X48229761Y-97107526D01*
X48834523Y-98377526D02*
X48834523Y-97107526D01*
X48834523Y-97107526D02*
X49560238Y-98377526D01*
X49560238Y-98377526D02*
X49560238Y-97107526D01*
X50164999Y-97893716D02*
X51132619Y-97893716D01*
X52402619Y-98377526D02*
X51676904Y-98377526D01*
X52039761Y-98377526D02*
X52039761Y-97107526D01*
X52039761Y-97107526D02*
X51918809Y-97288954D01*
X51918809Y-97288954D02*
X51797857Y-97409907D01*
X51797857Y-97409907D02*
X51676904Y-97470383D01*
X52886428Y-97228478D02*
X52946904Y-97168002D01*
X52946904Y-97168002D02*
X53067857Y-97107526D01*
X53067857Y-97107526D02*
X53370238Y-97107526D01*
X53370238Y-97107526D02*
X53491190Y-97168002D01*
X53491190Y-97168002D02*
X53551666Y-97228478D01*
X53551666Y-97228478D02*
X53612143Y-97349430D01*
X53612143Y-97349430D02*
X53612143Y-97470383D01*
X53612143Y-97470383D02*
X53551666Y-97651811D01*
X53551666Y-97651811D02*
X52825952Y-98377526D01*
X52825952Y-98377526D02*
X53612143Y-98377526D01*
X54095952Y-98014669D02*
X54700714Y-98014669D01*
X53975000Y-98377526D02*
X54398333Y-97107526D01*
X54398333Y-97107526D02*
X54821667Y-98377526D01*
%TO.C,R7*%
X112863333Y-101597619D02*
X112530000Y-101121428D01*
X112291905Y-101597619D02*
X112291905Y-100597619D01*
X112291905Y-100597619D02*
X112672857Y-100597619D01*
X112672857Y-100597619D02*
X112768095Y-100645238D01*
X112768095Y-100645238D02*
X112815714Y-100692857D01*
X112815714Y-100692857D02*
X112863333Y-100788095D01*
X112863333Y-100788095D02*
X112863333Y-100930952D01*
X112863333Y-100930952D02*
X112815714Y-101026190D01*
X112815714Y-101026190D02*
X112768095Y-101073809D01*
X112768095Y-101073809D02*
X112672857Y-101121428D01*
X112672857Y-101121428D02*
X112291905Y-101121428D01*
X113196667Y-100597619D02*
X113863333Y-100597619D01*
X113863333Y-100597619D02*
X113434762Y-101597619D01*
%TO.C,J2*%
X42862619Y-41238333D02*
X43576904Y-41238333D01*
X43576904Y-41238333D02*
X43719761Y-41285952D01*
X43719761Y-41285952D02*
X43815000Y-41381190D01*
X43815000Y-41381190D02*
X43862619Y-41524047D01*
X43862619Y-41524047D02*
X43862619Y-41619285D01*
X42957857Y-40809761D02*
X42910238Y-40762142D01*
X42910238Y-40762142D02*
X42862619Y-40666904D01*
X42862619Y-40666904D02*
X42862619Y-40428809D01*
X42862619Y-40428809D02*
X42910238Y-40333571D01*
X42910238Y-40333571D02*
X42957857Y-40285952D01*
X42957857Y-40285952D02*
X43053095Y-40238333D01*
X43053095Y-40238333D02*
X43148333Y-40238333D01*
X43148333Y-40238333D02*
X43291190Y-40285952D01*
X43291190Y-40285952D02*
X43862619Y-40857380D01*
X43862619Y-40857380D02*
X43862619Y-40238333D01*
%TO.C,U5*%
X159903095Y-49212619D02*
X159903095Y-50022142D01*
X159903095Y-50022142D02*
X159950714Y-50117380D01*
X159950714Y-50117380D02*
X159998333Y-50165000D01*
X159998333Y-50165000D02*
X160093571Y-50212619D01*
X160093571Y-50212619D02*
X160284047Y-50212619D01*
X160284047Y-50212619D02*
X160379285Y-50165000D01*
X160379285Y-50165000D02*
X160426904Y-50117380D01*
X160426904Y-50117380D02*
X160474523Y-50022142D01*
X160474523Y-50022142D02*
X160474523Y-49212619D01*
X161426904Y-49212619D02*
X160950714Y-49212619D01*
X160950714Y-49212619D02*
X160903095Y-49688809D01*
X160903095Y-49688809D02*
X160950714Y-49641190D01*
X160950714Y-49641190D02*
X161045952Y-49593571D01*
X161045952Y-49593571D02*
X161284047Y-49593571D01*
X161284047Y-49593571D02*
X161379285Y-49641190D01*
X161379285Y-49641190D02*
X161426904Y-49688809D01*
X161426904Y-49688809D02*
X161474523Y-49784047D01*
X161474523Y-49784047D02*
X161474523Y-50022142D01*
X161474523Y-50022142D02*
X161426904Y-50117380D01*
X161426904Y-50117380D02*
X161379285Y-50165000D01*
X161379285Y-50165000D02*
X161284047Y-50212619D01*
X161284047Y-50212619D02*
X161045952Y-50212619D01*
X161045952Y-50212619D02*
X160950714Y-50165000D01*
X160950714Y-50165000D02*
X160903095Y-50117380D01*
%TO.C,R11*%
X61587142Y-102232619D02*
X61253809Y-101756428D01*
X61015714Y-102232619D02*
X61015714Y-101232619D01*
X61015714Y-101232619D02*
X61396666Y-101232619D01*
X61396666Y-101232619D02*
X61491904Y-101280238D01*
X61491904Y-101280238D02*
X61539523Y-101327857D01*
X61539523Y-101327857D02*
X61587142Y-101423095D01*
X61587142Y-101423095D02*
X61587142Y-101565952D01*
X61587142Y-101565952D02*
X61539523Y-101661190D01*
X61539523Y-101661190D02*
X61491904Y-101708809D01*
X61491904Y-101708809D02*
X61396666Y-101756428D01*
X61396666Y-101756428D02*
X61015714Y-101756428D01*
X62539523Y-102232619D02*
X61968095Y-102232619D01*
X62253809Y-102232619D02*
X62253809Y-101232619D01*
X62253809Y-101232619D02*
X62158571Y-101375476D01*
X62158571Y-101375476D02*
X62063333Y-101470714D01*
X62063333Y-101470714D02*
X61968095Y-101518333D01*
X63491904Y-102232619D02*
X62920476Y-102232619D01*
X63206190Y-102232619D02*
X63206190Y-101232619D01*
X63206190Y-101232619D02*
X63110952Y-101375476D01*
X63110952Y-101375476D02*
X63015714Y-101470714D01*
X63015714Y-101470714D02*
X62920476Y-101518333D01*
%TO.C,J3*%
X102146666Y-47512619D02*
X102146666Y-48226904D01*
X102146666Y-48226904D02*
X102099047Y-48369761D01*
X102099047Y-48369761D02*
X102003809Y-48465000D01*
X102003809Y-48465000D02*
X101860952Y-48512619D01*
X101860952Y-48512619D02*
X101765714Y-48512619D01*
X102527619Y-47512619D02*
X103146666Y-47512619D01*
X103146666Y-47512619D02*
X102813333Y-47893571D01*
X102813333Y-47893571D02*
X102956190Y-47893571D01*
X102956190Y-47893571D02*
X103051428Y-47941190D01*
X103051428Y-47941190D02*
X103099047Y-47988809D01*
X103099047Y-47988809D02*
X103146666Y-48084047D01*
X103146666Y-48084047D02*
X103146666Y-48322142D01*
X103146666Y-48322142D02*
X103099047Y-48417380D01*
X103099047Y-48417380D02*
X103051428Y-48465000D01*
X103051428Y-48465000D02*
X102956190Y-48512619D01*
X102956190Y-48512619D02*
X102670476Y-48512619D01*
X102670476Y-48512619D02*
X102575238Y-48465000D01*
X102575238Y-48465000D02*
X102527619Y-48417380D01*
%TO.C,R9*%
X166838333Y-102232619D02*
X166505000Y-101756428D01*
X166266905Y-102232619D02*
X166266905Y-101232619D01*
X166266905Y-101232619D02*
X166647857Y-101232619D01*
X166647857Y-101232619D02*
X166743095Y-101280238D01*
X166743095Y-101280238D02*
X166790714Y-101327857D01*
X166790714Y-101327857D02*
X166838333Y-101423095D01*
X166838333Y-101423095D02*
X166838333Y-101565952D01*
X166838333Y-101565952D02*
X166790714Y-101661190D01*
X166790714Y-101661190D02*
X166743095Y-101708809D01*
X166743095Y-101708809D02*
X166647857Y-101756428D01*
X166647857Y-101756428D02*
X166266905Y-101756428D01*
X167314524Y-102232619D02*
X167505000Y-102232619D01*
X167505000Y-102232619D02*
X167600238Y-102185000D01*
X167600238Y-102185000D02*
X167647857Y-102137380D01*
X167647857Y-102137380D02*
X167743095Y-101994523D01*
X167743095Y-101994523D02*
X167790714Y-101804047D01*
X167790714Y-101804047D02*
X167790714Y-101423095D01*
X167790714Y-101423095D02*
X167743095Y-101327857D01*
X167743095Y-101327857D02*
X167695476Y-101280238D01*
X167695476Y-101280238D02*
X167600238Y-101232619D01*
X167600238Y-101232619D02*
X167409762Y-101232619D01*
X167409762Y-101232619D02*
X167314524Y-101280238D01*
X167314524Y-101280238D02*
X167266905Y-101327857D01*
X167266905Y-101327857D02*
X167219286Y-101423095D01*
X167219286Y-101423095D02*
X167219286Y-101661190D01*
X167219286Y-101661190D02*
X167266905Y-101756428D01*
X167266905Y-101756428D02*
X167314524Y-101804047D01*
X167314524Y-101804047D02*
X167409762Y-101851666D01*
X167409762Y-101851666D02*
X167600238Y-101851666D01*
X167600238Y-101851666D02*
X167695476Y-101804047D01*
X167695476Y-101804047D02*
X167743095Y-101756428D01*
X167743095Y-101756428D02*
X167790714Y-101661190D01*
%TO.C,NE3*%
X142295714Y-86402619D02*
X142295714Y-85402619D01*
X142295714Y-85402619D02*
X142867142Y-86402619D01*
X142867142Y-86402619D02*
X142867142Y-85402619D01*
X143343333Y-85878809D02*
X143676666Y-85878809D01*
X143819523Y-86402619D02*
X143343333Y-86402619D01*
X143343333Y-86402619D02*
X143343333Y-85402619D01*
X143343333Y-85402619D02*
X143819523Y-85402619D01*
X144152857Y-85402619D02*
X144771904Y-85402619D01*
X144771904Y-85402619D02*
X144438571Y-85783571D01*
X144438571Y-85783571D02*
X144581428Y-85783571D01*
X144581428Y-85783571D02*
X144676666Y-85831190D01*
X144676666Y-85831190D02*
X144724285Y-85878809D01*
X144724285Y-85878809D02*
X144771904Y-85974047D01*
X144771904Y-85974047D02*
X144771904Y-86212142D01*
X144771904Y-86212142D02*
X144724285Y-86307380D01*
X144724285Y-86307380D02*
X144676666Y-86355000D01*
X144676666Y-86355000D02*
X144581428Y-86402619D01*
X144581428Y-86402619D02*
X144295714Y-86402619D01*
X144295714Y-86402619D02*
X144200476Y-86355000D01*
X144200476Y-86355000D02*
X144152857Y-86307380D01*
%TO.C,C4*%
X149058333Y-53667380D02*
X149010714Y-53715000D01*
X149010714Y-53715000D02*
X148867857Y-53762619D01*
X148867857Y-53762619D02*
X148772619Y-53762619D01*
X148772619Y-53762619D02*
X148629762Y-53715000D01*
X148629762Y-53715000D02*
X148534524Y-53619761D01*
X148534524Y-53619761D02*
X148486905Y-53524523D01*
X148486905Y-53524523D02*
X148439286Y-53334047D01*
X148439286Y-53334047D02*
X148439286Y-53191190D01*
X148439286Y-53191190D02*
X148486905Y-53000714D01*
X148486905Y-53000714D02*
X148534524Y-52905476D01*
X148534524Y-52905476D02*
X148629762Y-52810238D01*
X148629762Y-52810238D02*
X148772619Y-52762619D01*
X148772619Y-52762619D02*
X148867857Y-52762619D01*
X148867857Y-52762619D02*
X149010714Y-52810238D01*
X149010714Y-52810238D02*
X149058333Y-52857857D01*
X149915476Y-53095952D02*
X149915476Y-53762619D01*
X149677381Y-52715000D02*
X149439286Y-53429285D01*
X149439286Y-53429285D02*
X150058333Y-53429285D01*
%TO.C,J1*%
X134286666Y-49202619D02*
X134286666Y-49916904D01*
X134286666Y-49916904D02*
X134239047Y-50059761D01*
X134239047Y-50059761D02*
X134143809Y-50155000D01*
X134143809Y-50155000D02*
X134000952Y-50202619D01*
X134000952Y-50202619D02*
X133905714Y-50202619D01*
X135286666Y-50202619D02*
X134715238Y-50202619D01*
X135000952Y-50202619D02*
X135000952Y-49202619D01*
X135000952Y-49202619D02*
X134905714Y-49345476D01*
X134905714Y-49345476D02*
X134810476Y-49440714D01*
X134810476Y-49440714D02*
X134715238Y-49488333D01*
%TO.C,R6*%
X84288333Y-102232619D02*
X83955000Y-101756428D01*
X83716905Y-102232619D02*
X83716905Y-101232619D01*
X83716905Y-101232619D02*
X84097857Y-101232619D01*
X84097857Y-101232619D02*
X84193095Y-101280238D01*
X84193095Y-101280238D02*
X84240714Y-101327857D01*
X84240714Y-101327857D02*
X84288333Y-101423095D01*
X84288333Y-101423095D02*
X84288333Y-101565952D01*
X84288333Y-101565952D02*
X84240714Y-101661190D01*
X84240714Y-101661190D02*
X84193095Y-101708809D01*
X84193095Y-101708809D02*
X84097857Y-101756428D01*
X84097857Y-101756428D02*
X83716905Y-101756428D01*
X85145476Y-101232619D02*
X84955000Y-101232619D01*
X84955000Y-101232619D02*
X84859762Y-101280238D01*
X84859762Y-101280238D02*
X84812143Y-101327857D01*
X84812143Y-101327857D02*
X84716905Y-101470714D01*
X84716905Y-101470714D02*
X84669286Y-101661190D01*
X84669286Y-101661190D02*
X84669286Y-102042142D01*
X84669286Y-102042142D02*
X84716905Y-102137380D01*
X84716905Y-102137380D02*
X84764524Y-102185000D01*
X84764524Y-102185000D02*
X84859762Y-102232619D01*
X84859762Y-102232619D02*
X85050238Y-102232619D01*
X85050238Y-102232619D02*
X85145476Y-102185000D01*
X85145476Y-102185000D02*
X85193095Y-102137380D01*
X85193095Y-102137380D02*
X85240714Y-102042142D01*
X85240714Y-102042142D02*
X85240714Y-101804047D01*
X85240714Y-101804047D02*
X85193095Y-101708809D01*
X85193095Y-101708809D02*
X85145476Y-101661190D01*
X85145476Y-101661190D02*
X85050238Y-101613571D01*
X85050238Y-101613571D02*
X84859762Y-101613571D01*
X84859762Y-101613571D02*
X84764524Y-101661190D01*
X84764524Y-101661190D02*
X84716905Y-101708809D01*
X84716905Y-101708809D02*
X84669286Y-101804047D01*
D11*
%TO.C,NX5*%
X168669486Y-94038541D02*
X167399486Y-94038541D01*
X167399486Y-94038541D02*
X168669486Y-93312826D01*
X168669486Y-93312826D02*
X167399486Y-93312826D01*
X167399486Y-92829017D02*
X168669486Y-91982350D01*
X167399486Y-91982350D02*
X168669486Y-92829017D01*
X167399486Y-90893779D02*
X167399486Y-91498541D01*
X167399486Y-91498541D02*
X168004248Y-91559017D01*
X168004248Y-91559017D02*
X167943771Y-91498541D01*
X167943771Y-91498541D02*
X167883295Y-91377588D01*
X167883295Y-91377588D02*
X167883295Y-91075207D01*
X167883295Y-91075207D02*
X167943771Y-90954255D01*
X167943771Y-90954255D02*
X168004248Y-90893779D01*
X168004248Y-90893779D02*
X168125200Y-90833302D01*
X168125200Y-90833302D02*
X168427581Y-90833302D01*
X168427581Y-90833302D02*
X168548533Y-90893779D01*
X168548533Y-90893779D02*
X168609010Y-90954255D01*
X168609010Y-90954255D02*
X168669486Y-91075207D01*
X168669486Y-91075207D02*
X168669486Y-91377588D01*
X168669486Y-91377588D02*
X168609010Y-91498541D01*
X168609010Y-91498541D02*
X168548533Y-91559017D01*
D10*
X154909761Y-97107526D02*
X154909761Y-95837526D01*
X155514523Y-97107526D02*
X155514523Y-95837526D01*
X155514523Y-95837526D02*
X156240238Y-97107526D01*
X156240238Y-97107526D02*
X156240238Y-95837526D01*
X156844999Y-96623716D02*
X157812619Y-96623716D01*
X159082619Y-97107526D02*
X158356904Y-97107526D01*
X158719761Y-97107526D02*
X158719761Y-95837526D01*
X158719761Y-95837526D02*
X158598809Y-96018954D01*
X158598809Y-96018954D02*
X158477857Y-96139907D01*
X158477857Y-96139907D02*
X158356904Y-96200383D01*
X159566428Y-95958478D02*
X159626904Y-95898002D01*
X159626904Y-95898002D02*
X159747857Y-95837526D01*
X159747857Y-95837526D02*
X160050238Y-95837526D01*
X160050238Y-95837526D02*
X160171190Y-95898002D01*
X160171190Y-95898002D02*
X160231666Y-95958478D01*
X160231666Y-95958478D02*
X160292143Y-96079430D01*
X160292143Y-96079430D02*
X160292143Y-96200383D01*
X160292143Y-96200383D02*
X160231666Y-96381811D01*
X160231666Y-96381811D02*
X159505952Y-97107526D01*
X159505952Y-97107526D02*
X160292143Y-97107526D01*
X160775952Y-96744669D02*
X161380714Y-96744669D01*
X160655000Y-97107526D02*
X161078333Y-95837526D01*
X161078333Y-95837526D02*
X161501667Y-97107526D01*
%TO.C,NE4*%
X142295714Y-94022619D02*
X142295714Y-93022619D01*
X142295714Y-93022619D02*
X142867142Y-94022619D01*
X142867142Y-94022619D02*
X142867142Y-93022619D01*
X143343333Y-93498809D02*
X143676666Y-93498809D01*
X143819523Y-94022619D02*
X143343333Y-94022619D01*
X143343333Y-94022619D02*
X143343333Y-93022619D01*
X143343333Y-93022619D02*
X143819523Y-93022619D01*
X144676666Y-93355952D02*
X144676666Y-94022619D01*
X144438571Y-92975000D02*
X144200476Y-93689285D01*
X144200476Y-93689285D02*
X144819523Y-93689285D01*
%TO.C,U2*%
X69752380Y-48133095D02*
X68942857Y-48133095D01*
X68942857Y-48133095D02*
X68847619Y-48180714D01*
X68847619Y-48180714D02*
X68800000Y-48228333D01*
X68800000Y-48228333D02*
X68752380Y-48323571D01*
X68752380Y-48323571D02*
X68752380Y-48514047D01*
X68752380Y-48514047D02*
X68800000Y-48609285D01*
X68800000Y-48609285D02*
X68847619Y-48656904D01*
X68847619Y-48656904D02*
X68942857Y-48704523D01*
X68942857Y-48704523D02*
X69752380Y-48704523D01*
X69657142Y-49133095D02*
X69704761Y-49180714D01*
X69704761Y-49180714D02*
X69752380Y-49275952D01*
X69752380Y-49275952D02*
X69752380Y-49514047D01*
X69752380Y-49514047D02*
X69704761Y-49609285D01*
X69704761Y-49609285D02*
X69657142Y-49656904D01*
X69657142Y-49656904D02*
X69561904Y-49704523D01*
X69561904Y-49704523D02*
X69466666Y-49704523D01*
X69466666Y-49704523D02*
X69323809Y-49656904D01*
X69323809Y-49656904D02*
X68752380Y-49085476D01*
X68752380Y-49085476D02*
X68752380Y-49704523D01*
X72353380Y-47345600D02*
X72115285Y-47345600D01*
X72210523Y-47107505D02*
X72115285Y-47345600D01*
X72115285Y-47345600D02*
X72210523Y-47583695D01*
X71924809Y-47202743D02*
X72115285Y-47345600D01*
X72115285Y-47345600D02*
X71924809Y-47488457D01*
X71278619Y-47345599D02*
X71516714Y-47345599D01*
X71421476Y-47583694D02*
X71516714Y-47345599D01*
X71516714Y-47345599D02*
X71421476Y-47107504D01*
X71707190Y-47488456D02*
X71516714Y-47345599D01*
X71516714Y-47345599D02*
X71707190Y-47202742D01*
D12*
%TO.C,R17*%
X83285000Y-44450000D02*
X83355000Y-44450000D01*
X83285000Y-44450000D02*
G75*
G03*
X83285000Y-44450000I-1370000J0D01*
G01*
%TO.C,R10*%
X189965000Y-103505000D02*
X190035000Y-103505000D01*
X189965000Y-103505000D02*
G75*
G03*
X189965000Y-103505000I-1370000J0D01*
G01*
%TO.C,R3*%
X89000000Y-48895000D02*
X89070000Y-48895000D01*
X89000000Y-48895000D02*
G75*
G03*
X89000000Y-48895000I-1370000J0D01*
G01*
%TO.C,R12*%
X140660000Y-103505000D02*
X140730000Y-103505000D01*
X140660000Y-103505000D02*
G75*
G03*
X140660000Y-103505000I-1370000J0D01*
G01*
%TO.C,R1*%
X109007133Y-58990001D02*
G75*
G03*
X108910095Y-60439358I-417133J-699999D01*
G01*
%TO.C,R15*%
X167950000Y-60960000D02*
X167880000Y-60960000D01*
X170690000Y-60960000D02*
G75*
G03*
X170690000Y-60960000I-1370000J0D01*
G01*
%TO.C,R13*%
X146150000Y-103505000D02*
X146220000Y-103505000D01*
X146150000Y-103505000D02*
G75*
G03*
X146150000Y-103505000I-1370000J0D01*
G01*
%TO.C,C1*%
X113185199Y-58495000D02*
X113585199Y-58495000D01*
X113385199Y-58295000D02*
X113385199Y-58695000D01*
X115455000Y-57610000D02*
X115455000Y-58850000D01*
X115455000Y-60530000D02*
X115455000Y-61770000D01*
X115495000Y-57610000D02*
X115495000Y-58850000D01*
X115495000Y-60530000D02*
X115495000Y-61770000D01*
X115535000Y-57611000D02*
X115535000Y-58850000D01*
X115535000Y-60530000D02*
X115535000Y-61769000D01*
X115575000Y-57613000D02*
X115575000Y-58850000D01*
X115575000Y-60530000D02*
X115575000Y-61767000D01*
X115615000Y-57616000D02*
X115615000Y-58850000D01*
X115615000Y-60530000D02*
X115615000Y-61764000D01*
X115655000Y-57619000D02*
X115655000Y-58850000D01*
X115655000Y-60530000D02*
X115655000Y-61761000D01*
X115695000Y-57623000D02*
X115695000Y-58850000D01*
X115695000Y-60530000D02*
X115695000Y-61757000D01*
X115735000Y-57628000D02*
X115735000Y-58850000D01*
X115735000Y-60530000D02*
X115735000Y-61752000D01*
X115775000Y-57634000D02*
X115775000Y-58850000D01*
X115775000Y-60530000D02*
X115775000Y-61746000D01*
X115815000Y-57640000D02*
X115815000Y-58850000D01*
X115815000Y-60530000D02*
X115815000Y-61740000D01*
X115855000Y-57648000D02*
X115855000Y-58850000D01*
X115855000Y-60530000D02*
X115855000Y-61732000D01*
X115895000Y-57656000D02*
X115895000Y-58850000D01*
X115895000Y-60530000D02*
X115895000Y-61724000D01*
X115935000Y-57665000D02*
X115935000Y-58850000D01*
X115935000Y-60530000D02*
X115935000Y-61715000D01*
X115975000Y-57674000D02*
X115975000Y-58850000D01*
X115975000Y-60530000D02*
X115975000Y-61706000D01*
X116015000Y-57685000D02*
X116015000Y-58850000D01*
X116015000Y-60530000D02*
X116015000Y-61695000D01*
X116055000Y-57696000D02*
X116055000Y-58850000D01*
X116055000Y-60530000D02*
X116055000Y-61684000D01*
X116095000Y-57708000D02*
X116095000Y-58850000D01*
X116095000Y-60530000D02*
X116095000Y-61672000D01*
X116135000Y-57722000D02*
X116135000Y-58850000D01*
X116135000Y-60530000D02*
X116135000Y-61658000D01*
X116176000Y-57736000D02*
X116176000Y-58850000D01*
X116176000Y-60530000D02*
X116176000Y-61644000D01*
X116216000Y-57750000D02*
X116216000Y-58850000D01*
X116216000Y-60530000D02*
X116216000Y-61630000D01*
X116256000Y-57766000D02*
X116256000Y-58850000D01*
X116256000Y-60530000D02*
X116256000Y-61614000D01*
X116296000Y-57783000D02*
X116296000Y-58850000D01*
X116296000Y-60530000D02*
X116296000Y-61597000D01*
X116336000Y-57801000D02*
X116336000Y-58850000D01*
X116336000Y-60530000D02*
X116336000Y-61579000D01*
X116376000Y-57820000D02*
X116376000Y-58850000D01*
X116376000Y-60530000D02*
X116376000Y-61560000D01*
X116416000Y-57839000D02*
X116416000Y-58850000D01*
X116416000Y-60530000D02*
X116416000Y-61541000D01*
X116456000Y-57860000D02*
X116456000Y-58850000D01*
X116456000Y-60530000D02*
X116456000Y-61520000D01*
X116496000Y-57882000D02*
X116496000Y-58850000D01*
X116496000Y-60530000D02*
X116496000Y-61498000D01*
X116536000Y-57905000D02*
X116536000Y-58850000D01*
X116536000Y-60530000D02*
X116536000Y-61475000D01*
X116576000Y-57930000D02*
X116576000Y-58850000D01*
X116576000Y-60530000D02*
X116576000Y-61450000D01*
X116616000Y-57955000D02*
X116616000Y-58850000D01*
X116616000Y-60530000D02*
X116616000Y-61425000D01*
X116656000Y-57982000D02*
X116656000Y-58850000D01*
X116656000Y-60530000D02*
X116656000Y-61398000D01*
X116696000Y-58010000D02*
X116696000Y-58850000D01*
X116696000Y-60530000D02*
X116696000Y-61370000D01*
X116736000Y-58040000D02*
X116736000Y-58850000D01*
X116736000Y-60530000D02*
X116736000Y-61340000D01*
X116776000Y-58071000D02*
X116776000Y-58850000D01*
X116776000Y-60530000D02*
X116776000Y-61309000D01*
X116816000Y-58103000D02*
X116816000Y-58850000D01*
X116816000Y-60530000D02*
X116816000Y-61277000D01*
X116856000Y-58138000D02*
X116856000Y-58850000D01*
X116856000Y-60530000D02*
X116856000Y-61242000D01*
X116896000Y-58174000D02*
X116896000Y-58850000D01*
X116896000Y-60530000D02*
X116896000Y-61206000D01*
X116936000Y-58212000D02*
X116936000Y-58850000D01*
X116936000Y-60530000D02*
X116936000Y-61168000D01*
X116976000Y-58252000D02*
X116976000Y-58850000D01*
X116976000Y-60530000D02*
X116976000Y-61128000D01*
X117016000Y-58294000D02*
X117016000Y-58850000D01*
X117016000Y-60530000D02*
X117016000Y-61086000D01*
X117056000Y-58339000D02*
X117056000Y-61041000D01*
X117096000Y-58386000D02*
X117096000Y-60994000D01*
X117136000Y-58436000D02*
X117136000Y-60944000D01*
X117176000Y-58490000D02*
X117176000Y-60890000D01*
X117216000Y-58548000D02*
X117216000Y-60832000D01*
X117256000Y-58610000D02*
X117256000Y-60770000D01*
X117296000Y-58677000D02*
X117296000Y-60703000D01*
X117336000Y-58750000D02*
X117336000Y-60630000D01*
X117376000Y-58831000D02*
X117376000Y-60549000D01*
X117416000Y-58922000D02*
X117416000Y-60458000D01*
X117456000Y-59026000D02*
X117456000Y-60354000D01*
X117496000Y-59153000D02*
X117496000Y-60227000D01*
X117536000Y-59320000D02*
X117536000Y-60060000D01*
X117575000Y-59690000D02*
G75*
G03*
X117575000Y-59690000I-2120000J0D01*
G01*
D13*
%TO.C,NX3*%
X95283020Y-98973640D02*
X95283020Y-86116160D01*
X95283020Y-98973640D02*
X95283020Y-99133660D01*
X112110520Y-86116160D02*
X112110520Y-99133660D01*
X112102082Y-86102034D02*
G75*
G03*
X95283020Y-86116160I-8404042J-6541927D01*
G01*
D14*
X112103002Y-86103379D02*
G75*
G03*
X95283020Y-86116160I-8404962J-6624400D01*
G01*
X95285056Y-99132954D02*
G75*
G03*
X112110520Y-99133660I8412984J6011472D01*
G01*
D13*
X95292199Y-99143282D02*
G75*
G03*
X112110519Y-99133660I8405841J5805901D01*
G01*
D14*
X106713020Y-92783660D02*
G75*
G03*
X106713020Y-92783660I-2540000J0D01*
G01*
D12*
%TO.C,D1*%
X72855000Y-65405000D02*
X71865000Y-65405000D01*
X71865000Y-67325000D02*
X71865000Y-63485000D01*
X71865000Y-63485000D02*
X64025000Y-63485000D01*
X70725000Y-67325000D02*
X70725000Y-63485000D01*
X70605000Y-67325000D02*
X70605000Y-63485000D01*
X70485000Y-67325000D02*
X70485000Y-63485000D01*
X64025000Y-67325000D02*
X71865000Y-67325000D01*
X64025000Y-63485000D02*
X64025000Y-67325000D01*
X63035000Y-65405000D02*
X64025000Y-65405000D01*
%TO.C,NE1*%
X88610000Y-87664000D02*
X88610000Y-87820000D01*
X88610000Y-89980000D02*
X88610000Y-90136000D01*
X91842334Y-87821392D02*
G75*
G03*
X88610001Y-87664485I-1672334J-1078608D01*
G01*
X91211129Y-87820164D02*
G75*
G03*
X89129040Y-87820001I-1041129J-1079836D01*
G01*
X89129040Y-89979999D02*
G75*
G03*
X91211129Y-89979836I1040960J1079999D01*
G01*
X88610001Y-90135515D02*
G75*
G03*
X91842334Y-89978608I1559999J1235515D01*
G01*
D15*
%TO.C,U4*%
X139055201Y-80386999D02*
X139599061Y-80386999D01*
X148765341Y-80386999D02*
X149309201Y-80386999D01*
X149309201Y-80386999D02*
X149309201Y-79843139D01*
X139055201Y-79843139D02*
X139055201Y-80386999D01*
X149309201Y-70676859D02*
X149309201Y-70132999D01*
X139055201Y-70132999D02*
X139055201Y-70676859D01*
X139599061Y-70132999D02*
X139055201Y-70132999D01*
X149309201Y-70132999D02*
X148765341Y-70132999D01*
G36*
X147572700Y-82123597D02*
G01*
X147191700Y-82123597D01*
X147191700Y-81869597D01*
X147572700Y-81869597D01*
X147572700Y-82123597D01*
G37*
G36*
X137572603Y-76250500D02*
G01*
X137318603Y-76250500D01*
X137318603Y-75869500D01*
X137572603Y-75869500D01*
X137572603Y-76250500D01*
G37*
G36*
X151045799Y-73050499D02*
G01*
X150791799Y-73050499D01*
X150791799Y-72669499D01*
X151045799Y-72669499D01*
X151045799Y-73050499D01*
G37*
G36*
X142772702Y-68650401D02*
G01*
X142391702Y-68650401D01*
X142391702Y-68396401D01*
X142772702Y-68396401D01*
X142772702Y-68650401D01*
G37*
D12*
%TO.C,R4*%
X89435000Y-104140000D02*
X89365000Y-104140000D01*
X92175000Y-104140000D02*
G75*
G03*
X92175000Y-104140000I-1370000J0D01*
G01*
%TO.C,J4*%
X108460000Y-47050000D02*
X107130000Y-47050000D01*
X108460000Y-45720000D02*
X108460000Y-47050000D01*
X108460000Y-44450000D02*
X108460000Y-41850000D01*
X108460000Y-44450000D02*
X105800000Y-44450000D01*
X108460000Y-41850000D02*
X105800000Y-41850000D01*
X105800000Y-44450000D02*
X105800000Y-41850000D01*
%TO.C,R8*%
X135355000Y-104140000D02*
X135425000Y-104140000D01*
X135355000Y-104140000D02*
G75*
G03*
X135355000Y-104140000I-1370000J0D01*
G01*
%TO.C,J5*%
X113110000Y-47050000D02*
X111780000Y-47050000D01*
X113110000Y-45720000D02*
X113110000Y-47050000D01*
X113110000Y-44450000D02*
X113110000Y-41850000D01*
X113110000Y-44450000D02*
X110450000Y-44450000D01*
X113110000Y-41850000D02*
X110450000Y-41850000D01*
X110450000Y-44450000D02*
X110450000Y-41850000D01*
D13*
%TO.C,NX4*%
X118763040Y-98973640D02*
X118763040Y-86116160D01*
X118763040Y-98973640D02*
X118763040Y-99133660D01*
X135590540Y-86116160D02*
X135590540Y-99133660D01*
X135582102Y-86102034D02*
G75*
G03*
X118763040Y-86116160I-8404042J-6541927D01*
G01*
D14*
X135583022Y-86103379D02*
G75*
G03*
X118763040Y-86116160I-8404962J-6624400D01*
G01*
X118765076Y-99132954D02*
G75*
G03*
X135590540Y-99133660I8412984J6011472D01*
G01*
D13*
X118772219Y-99143282D02*
G75*
G03*
X135590539Y-99133660I8405841J5805901D01*
G01*
D14*
X130193040Y-92783660D02*
G75*
G03*
X130193040Y-92783660I-2540000J0D01*
G01*
D13*
%TO.C,NX2*%
X67310000Y-98973640D02*
X67310000Y-86116160D01*
X67310000Y-98973640D02*
X67310000Y-99133660D01*
X84137500Y-86116160D02*
X84137500Y-99133660D01*
X84129062Y-86102034D02*
G75*
G03*
X67310000Y-86116160I-8404042J-6541927D01*
G01*
D14*
X84129982Y-86103379D02*
G75*
G03*
X67310000Y-86116160I-8404962J-6624400D01*
G01*
X67312036Y-99132954D02*
G75*
G03*
X84137500Y-99133660I8412984J6011472D01*
G01*
D13*
X67319179Y-99143282D02*
G75*
G03*
X84137499Y-99133660I8405841J5805901D01*
G01*
D14*
X78740000Y-92783660D02*
G75*
G03*
X78740000Y-92783660I-2540000J0D01*
G01*
D12*
%TO.C,D2*%
X157015000Y-67945000D02*
X158005000Y-67945000D01*
X158005000Y-66025000D02*
X158005000Y-69865000D01*
X158005000Y-69865000D02*
X165845000Y-69865000D01*
X159145000Y-66025000D02*
X159145000Y-69865000D01*
X159265000Y-66025000D02*
X159265000Y-69865000D01*
X159385000Y-66025000D02*
X159385000Y-69865000D01*
X165845000Y-66025000D02*
X158005000Y-66025000D01*
X165845000Y-69865000D02*
X165845000Y-66025000D01*
X166835000Y-67945000D02*
X165845000Y-67945000D01*
%TO.C,R2*%
X78430000Y-48895000D02*
X78500000Y-48895000D01*
X78430000Y-48895000D02*
G75*
G03*
X78430000Y-48895000I-1370000J0D01*
G01*
D10*
%TO.C,U1*%
X111310000Y-66225000D02*
X111310000Y-66450000D01*
X111310000Y-66225000D02*
X111635000Y-66225000D01*
X111310000Y-66450000D02*
X109885000Y-66450000D01*
X111310000Y-73475000D02*
X111310000Y-73150000D01*
X111310000Y-73475000D02*
X111635000Y-73475000D01*
X118560000Y-66225000D02*
X118235000Y-66225000D01*
X118560000Y-66225000D02*
X118560000Y-66550000D01*
X118560000Y-73475000D02*
X118235000Y-73475000D01*
X118560000Y-73475000D02*
X118560000Y-73150000D01*
D12*
%TO.C,C2*%
X125805000Y-65249801D02*
X125805000Y-64849801D01*
X125605000Y-65049801D02*
X126005000Y-65049801D01*
X124920000Y-62980000D02*
X126160000Y-62980000D01*
X127840000Y-62980000D02*
X129080000Y-62980000D01*
X124920000Y-62940000D02*
X126160000Y-62940000D01*
X127840000Y-62940000D02*
X129080000Y-62940000D01*
X124921000Y-62900000D02*
X126160000Y-62900000D01*
X127840000Y-62900000D02*
X129079000Y-62900000D01*
X124923000Y-62860000D02*
X126160000Y-62860000D01*
X127840000Y-62860000D02*
X129077000Y-62860000D01*
X124926000Y-62820000D02*
X126160000Y-62820000D01*
X127840000Y-62820000D02*
X129074000Y-62820000D01*
X124929000Y-62780000D02*
X126160000Y-62780000D01*
X127840000Y-62780000D02*
X129071000Y-62780000D01*
X124933000Y-62740000D02*
X126160000Y-62740000D01*
X127840000Y-62740000D02*
X129067000Y-62740000D01*
X124938000Y-62700000D02*
X126160000Y-62700000D01*
X127840000Y-62700000D02*
X129062000Y-62700000D01*
X124944000Y-62660000D02*
X126160000Y-62660000D01*
X127840000Y-62660000D02*
X129056000Y-62660000D01*
X124950000Y-62620000D02*
X126160000Y-62620000D01*
X127840000Y-62620000D02*
X129050000Y-62620000D01*
X124958000Y-62580000D02*
X126160000Y-62580000D01*
X127840000Y-62580000D02*
X129042000Y-62580000D01*
X124966000Y-62540000D02*
X126160000Y-62540000D01*
X127840000Y-62540000D02*
X129034000Y-62540000D01*
X124975000Y-62500000D02*
X126160000Y-62500000D01*
X127840000Y-62500000D02*
X129025000Y-62500000D01*
X124984000Y-62460000D02*
X126160000Y-62460000D01*
X127840000Y-62460000D02*
X129016000Y-62460000D01*
X124995000Y-62420000D02*
X126160000Y-62420000D01*
X127840000Y-62420000D02*
X129005000Y-62420000D01*
X125006000Y-62380000D02*
X126160000Y-62380000D01*
X127840000Y-62380000D02*
X128994000Y-62380000D01*
X125018000Y-62340000D02*
X126160000Y-62340000D01*
X127840000Y-62340000D02*
X128982000Y-62340000D01*
X125032000Y-62300000D02*
X126160000Y-62300000D01*
X127840000Y-62300000D02*
X128968000Y-62300000D01*
X125046000Y-62259000D02*
X126160000Y-62259000D01*
X127840000Y-62259000D02*
X128954000Y-62259000D01*
X125060000Y-62219000D02*
X126160000Y-62219000D01*
X127840000Y-62219000D02*
X128940000Y-62219000D01*
X125076000Y-62179000D02*
X126160000Y-62179000D01*
X127840000Y-62179000D02*
X128924000Y-62179000D01*
X125093000Y-62139000D02*
X126160000Y-62139000D01*
X127840000Y-62139000D02*
X128907000Y-62139000D01*
X125111000Y-62099000D02*
X126160000Y-62099000D01*
X127840000Y-62099000D02*
X128889000Y-62099000D01*
X125130000Y-62059000D02*
X126160000Y-62059000D01*
X127840000Y-62059000D02*
X128870000Y-62059000D01*
X125149000Y-62019000D02*
X126160000Y-62019000D01*
X127840000Y-62019000D02*
X128851000Y-62019000D01*
X125170000Y-61979000D02*
X126160000Y-61979000D01*
X127840000Y-61979000D02*
X128830000Y-61979000D01*
X125192000Y-61939000D02*
X126160000Y-61939000D01*
X127840000Y-61939000D02*
X128808000Y-61939000D01*
X125215000Y-61899000D02*
X126160000Y-61899000D01*
X127840000Y-61899000D02*
X128785000Y-61899000D01*
X125240000Y-61859000D02*
X126160000Y-61859000D01*
X127840000Y-61859000D02*
X128760000Y-61859000D01*
X125265000Y-61819000D02*
X126160000Y-61819000D01*
X127840000Y-61819000D02*
X128735000Y-61819000D01*
X125292000Y-61779000D02*
X126160000Y-61779000D01*
X127840000Y-61779000D02*
X128708000Y-61779000D01*
X125320000Y-61739000D02*
X126160000Y-61739000D01*
X127840000Y-61739000D02*
X128680000Y-61739000D01*
X125350000Y-61699000D02*
X126160000Y-61699000D01*
X127840000Y-61699000D02*
X128650000Y-61699000D01*
X125381000Y-61659000D02*
X126160000Y-61659000D01*
X127840000Y-61659000D02*
X128619000Y-61659000D01*
X125413000Y-61619000D02*
X126160000Y-61619000D01*
X127840000Y-61619000D02*
X128587000Y-61619000D01*
X125448000Y-61579000D02*
X126160000Y-61579000D01*
X127840000Y-61579000D02*
X128552000Y-61579000D01*
X125484000Y-61539000D02*
X126160000Y-61539000D01*
X127840000Y-61539000D02*
X128516000Y-61539000D01*
X125522000Y-61499000D02*
X126160000Y-61499000D01*
X127840000Y-61499000D02*
X128478000Y-61499000D01*
X125562000Y-61459000D02*
X126160000Y-61459000D01*
X127840000Y-61459000D02*
X128438000Y-61459000D01*
X125604000Y-61419000D02*
X126160000Y-61419000D01*
X127840000Y-61419000D02*
X128396000Y-61419000D01*
X125649000Y-61379000D02*
X128351000Y-61379000D01*
X125696000Y-61339000D02*
X128304000Y-61339000D01*
X125746000Y-61299000D02*
X128254000Y-61299000D01*
X125800000Y-61259000D02*
X128200000Y-61259000D01*
X125858000Y-61219000D02*
X128142000Y-61219000D01*
X125920000Y-61179000D02*
X128080000Y-61179000D01*
X125987000Y-61139000D02*
X128013000Y-61139000D01*
X126060000Y-61099000D02*
X127940000Y-61099000D01*
X126141000Y-61059000D02*
X127859000Y-61059000D01*
X126232000Y-61019000D02*
X127768000Y-61019000D01*
X126336000Y-60979000D02*
X127664000Y-60979000D01*
X126463000Y-60939000D02*
X127537000Y-60939000D01*
X126630000Y-60899000D02*
X127370000Y-60899000D01*
X129120000Y-62980000D02*
G75*
G03*
X129120000Y-62980000I-2120000J0D01*
G01*
%TO.C,L1*%
X49220000Y-73525000D02*
X57460000Y-73525000D01*
X49220000Y-73525000D02*
X49220000Y-67147000D01*
X57460000Y-73525000D02*
X57460000Y-67147000D01*
X49220000Y-63663000D02*
X49220000Y-57285000D01*
X57460000Y-63663000D02*
X57460000Y-57285000D01*
X49220000Y-57285000D02*
X57460000Y-57285000D01*
%TO.C,R14*%
X167640000Y-55555000D02*
X167640000Y-55485000D01*
X169010000Y-56925000D02*
G75*
G03*
X169010000Y-56925000I-1370000J0D01*
G01*
%TO.C,J7*%
X122410000Y-47050000D02*
X121080000Y-47050000D01*
X122410000Y-45720000D02*
X122410000Y-47050000D01*
X122410000Y-44450000D02*
X122410000Y-41850000D01*
X122410000Y-44450000D02*
X119750000Y-44450000D01*
X122410000Y-41850000D02*
X119750000Y-41850000D01*
X119750000Y-44450000D02*
X119750000Y-41850000D01*
D15*
%TO.C,U3*%
X85715201Y-80526999D02*
X86259061Y-80526999D01*
X95425341Y-80526999D02*
X95969201Y-80526999D01*
X95969201Y-80526999D02*
X95969201Y-79983139D01*
X85715201Y-79983139D02*
X85715201Y-80526999D01*
X95969201Y-70816859D02*
X95969201Y-70272999D01*
X85715201Y-70272999D02*
X85715201Y-70816859D01*
X86259061Y-70272999D02*
X85715201Y-70272999D01*
X95969201Y-70272999D02*
X95425341Y-70272999D01*
G36*
X94232700Y-82263597D02*
G01*
X93851700Y-82263597D01*
X93851700Y-82009597D01*
X94232700Y-82009597D01*
X94232700Y-82263597D01*
G37*
G36*
X84232603Y-76390500D02*
G01*
X83978603Y-76390500D01*
X83978603Y-76009500D01*
X84232603Y-76009500D01*
X84232603Y-76390500D01*
G37*
G36*
X97705799Y-73190499D02*
G01*
X97451799Y-73190499D01*
X97451799Y-72809499D01*
X97705799Y-72809499D01*
X97705799Y-73190499D01*
G37*
G36*
X89432702Y-68790401D02*
G01*
X89051702Y-68790401D01*
X89051702Y-68536401D01*
X89432702Y-68536401D01*
X89432702Y-68790401D01*
G37*
D12*
%TO.C,C3*%
X75062651Y-54835000D02*
X75862651Y-54835000D01*
X75462651Y-54435000D02*
X75462651Y-55235000D01*
X79472349Y-53070000D02*
X79472349Y-61230000D01*
X79512349Y-53070000D02*
X79512349Y-61230000D01*
X79552349Y-53070000D02*
X79552349Y-61230000D01*
X79592349Y-53071000D02*
X79592349Y-61229000D01*
X79632349Y-53073000D02*
X79632349Y-61227000D01*
X79672349Y-53074000D02*
X79672349Y-61226000D01*
X79712349Y-53076000D02*
X79712349Y-61224000D01*
X79752349Y-53079000D02*
X79752349Y-61221000D01*
X79792349Y-53082000D02*
X79792349Y-61218000D01*
X79832349Y-53085000D02*
X79832349Y-61215000D01*
X79872349Y-53089000D02*
X79872349Y-61211000D01*
X79912349Y-53093000D02*
X79912349Y-61207000D01*
X79952349Y-53098000D02*
X79952349Y-61202000D01*
X79992349Y-53102000D02*
X79992349Y-61198000D01*
X80032349Y-53108000D02*
X80032349Y-61192000D01*
X80072349Y-53113000D02*
X80072349Y-61187000D01*
X80112349Y-53120000D02*
X80112349Y-61180000D01*
X80152349Y-53126000D02*
X80152349Y-61174000D01*
X80193349Y-53133000D02*
X80193349Y-61167000D01*
X80233349Y-53140000D02*
X80233349Y-61160000D01*
X80273349Y-53148000D02*
X80273349Y-61152000D01*
X80313349Y-53156000D02*
X80313349Y-61144000D01*
X80353349Y-53165000D02*
X80353349Y-61135000D01*
X80393349Y-53174000D02*
X80393349Y-61126000D01*
X80433349Y-53183000D02*
X80433349Y-61117000D01*
X80473349Y-53193000D02*
X80473349Y-61107000D01*
X80513349Y-53203000D02*
X80513349Y-61097000D01*
X80553349Y-53214000D02*
X80553349Y-61086000D01*
X80593349Y-53225000D02*
X80593349Y-61075000D01*
X80633349Y-53236000D02*
X80633349Y-61064000D01*
X80673349Y-53248000D02*
X80673349Y-61052000D01*
X80713349Y-53261000D02*
X80713349Y-61039000D01*
X80753349Y-53273000D02*
X80753349Y-61027000D01*
X80793349Y-53287000D02*
X80793349Y-61013000D01*
X80833349Y-53300000D02*
X80833349Y-61000000D01*
X80873349Y-53315000D02*
X80873349Y-60985000D01*
X80913349Y-53329000D02*
X80913349Y-60971000D01*
X80953349Y-53345000D02*
X80953349Y-56110000D01*
X80953349Y-58190000D02*
X80953349Y-60955000D01*
X80993349Y-53360000D02*
X80993349Y-56110000D01*
X80993349Y-58190000D02*
X80993349Y-60940000D01*
X81033349Y-53376000D02*
X81033349Y-56110000D01*
X81033349Y-58190000D02*
X81033349Y-60924000D01*
X81073349Y-53393000D02*
X81073349Y-56110000D01*
X81073349Y-58190000D02*
X81073349Y-60907000D01*
X81113349Y-53410000D02*
X81113349Y-56110000D01*
X81113349Y-58190000D02*
X81113349Y-60890000D01*
X81153349Y-53428000D02*
X81153349Y-56110000D01*
X81153349Y-58190000D02*
X81153349Y-60872000D01*
X81193349Y-53446000D02*
X81193349Y-56110000D01*
X81193349Y-58190000D02*
X81193349Y-60854000D01*
X81233349Y-53464000D02*
X81233349Y-56110000D01*
X81233349Y-58190000D02*
X81233349Y-60836000D01*
X81273349Y-53484000D02*
X81273349Y-56110000D01*
X81273349Y-58190000D02*
X81273349Y-60816000D01*
X81313349Y-53503000D02*
X81313349Y-56110000D01*
X81313349Y-58190000D02*
X81313349Y-60797000D01*
X81353349Y-53523000D02*
X81353349Y-56110000D01*
X81353349Y-58190000D02*
X81353349Y-60777000D01*
X81393349Y-53544000D02*
X81393349Y-56110000D01*
X81393349Y-58190000D02*
X81393349Y-60756000D01*
X81433349Y-53566000D02*
X81433349Y-56110000D01*
X81433349Y-58190000D02*
X81433349Y-60734000D01*
X81473349Y-53588000D02*
X81473349Y-56110000D01*
X81473349Y-58190000D02*
X81473349Y-60712000D01*
X81513349Y-53610000D02*
X81513349Y-56110000D01*
X81513349Y-58190000D02*
X81513349Y-60690000D01*
X81553349Y-53633000D02*
X81553349Y-56110000D01*
X81553349Y-58190000D02*
X81553349Y-60667000D01*
X81593349Y-53657000D02*
X81593349Y-56110000D01*
X81593349Y-58190000D02*
X81593349Y-60643000D01*
X81633349Y-53681000D02*
X81633349Y-56110000D01*
X81633349Y-58190000D02*
X81633349Y-60619000D01*
X81673349Y-53706000D02*
X81673349Y-56110000D01*
X81673349Y-58190000D02*
X81673349Y-60594000D01*
X81713349Y-53732000D02*
X81713349Y-56110000D01*
X81713349Y-58190000D02*
X81713349Y-60568000D01*
X81753349Y-53758000D02*
X81753349Y-56110000D01*
X81753349Y-58190000D02*
X81753349Y-60542000D01*
X81793349Y-53785000D02*
X81793349Y-56110000D01*
X81793349Y-58190000D02*
X81793349Y-60515000D01*
X81833349Y-53812000D02*
X81833349Y-56110000D01*
X81833349Y-58190000D02*
X81833349Y-60488000D01*
X81873349Y-53841000D02*
X81873349Y-56110000D01*
X81873349Y-58190000D02*
X81873349Y-60459000D01*
X81913349Y-53870000D02*
X81913349Y-56110000D01*
X81913349Y-58190000D02*
X81913349Y-60430000D01*
X81953349Y-53900000D02*
X81953349Y-56110000D01*
X81953349Y-58190000D02*
X81953349Y-60400000D01*
X81993349Y-53930000D02*
X81993349Y-56110000D01*
X81993349Y-58190000D02*
X81993349Y-60370000D01*
X82033349Y-53961000D02*
X82033349Y-56110000D01*
X82033349Y-58190000D02*
X82033349Y-60339000D01*
X82073349Y-53994000D02*
X82073349Y-56110000D01*
X82073349Y-58190000D02*
X82073349Y-60306000D01*
X82113349Y-54026000D02*
X82113349Y-56110000D01*
X82113349Y-58190000D02*
X82113349Y-60274000D01*
X82153349Y-54060000D02*
X82153349Y-56110000D01*
X82153349Y-58190000D02*
X82153349Y-60240000D01*
X82193349Y-54095000D02*
X82193349Y-56110000D01*
X82193349Y-58190000D02*
X82193349Y-60205000D01*
X82233349Y-54131000D02*
X82233349Y-56110000D01*
X82233349Y-58190000D02*
X82233349Y-60169000D01*
X82273349Y-54167000D02*
X82273349Y-56110000D01*
X82273349Y-58190000D02*
X82273349Y-60133000D01*
X82313349Y-54205000D02*
X82313349Y-56110000D01*
X82313349Y-58190000D02*
X82313349Y-60095000D01*
X82353349Y-54243000D02*
X82353349Y-56110000D01*
X82353349Y-58190000D02*
X82353349Y-60057000D01*
X82393349Y-54283000D02*
X82393349Y-56110000D01*
X82393349Y-58190000D02*
X82393349Y-60017000D01*
X82433349Y-54324000D02*
X82433349Y-56110000D01*
X82433349Y-58190000D02*
X82433349Y-59976000D01*
X82473349Y-54366000D02*
X82473349Y-56110000D01*
X82473349Y-58190000D02*
X82473349Y-59934000D01*
X82513349Y-54409000D02*
X82513349Y-56110000D01*
X82513349Y-58190000D02*
X82513349Y-59891000D01*
X82553349Y-54453000D02*
X82553349Y-56110000D01*
X82553349Y-58190000D02*
X82553349Y-59847000D01*
X82593349Y-54499000D02*
X82593349Y-56110000D01*
X82593349Y-58190000D02*
X82593349Y-59801000D01*
X82633349Y-54546000D02*
X82633349Y-56110000D01*
X82633349Y-58190000D02*
X82633349Y-59754000D01*
X82673349Y-54594000D02*
X82673349Y-56110000D01*
X82673349Y-58190000D02*
X82673349Y-59706000D01*
X82713349Y-54645000D02*
X82713349Y-56110000D01*
X82713349Y-58190000D02*
X82713349Y-59655000D01*
X82753349Y-54696000D02*
X82753349Y-56110000D01*
X82753349Y-58190000D02*
X82753349Y-59604000D01*
X82793349Y-54750000D02*
X82793349Y-56110000D01*
X82793349Y-58190000D02*
X82793349Y-59550000D01*
X82833349Y-54805000D02*
X82833349Y-56110000D01*
X82833349Y-58190000D02*
X82833349Y-59495000D01*
X82873349Y-54863000D02*
X82873349Y-56110000D01*
X82873349Y-58190000D02*
X82873349Y-59437000D01*
X82913349Y-54922000D02*
X82913349Y-56110000D01*
X82913349Y-58190000D02*
X82913349Y-59378000D01*
X82953349Y-54984000D02*
X82953349Y-56110000D01*
X82953349Y-58190000D02*
X82953349Y-59316000D01*
X82993349Y-55048000D02*
X82993349Y-56110000D01*
X82993349Y-58190000D02*
X82993349Y-59252000D01*
X83033349Y-55116000D02*
X83033349Y-59184000D01*
X83073349Y-55186000D02*
X83073349Y-59114000D01*
X83113349Y-55260000D02*
X83113349Y-59040000D01*
X83153349Y-55337000D02*
X83153349Y-58963000D01*
X83193349Y-55419000D02*
X83193349Y-58881000D01*
X83233349Y-55505000D02*
X83233349Y-58795000D01*
X83273349Y-55598000D02*
X83273349Y-58702000D01*
X83313349Y-55697000D02*
X83313349Y-58603000D01*
X83353349Y-55804000D02*
X83353349Y-58496000D01*
X83393349Y-55921000D02*
X83393349Y-58379000D01*
X83433349Y-56052000D02*
X83433349Y-58248000D01*
X83473349Y-56202000D02*
X83473349Y-58098000D01*
X83513349Y-56382000D02*
X83513349Y-57918000D01*
X83553349Y-56617000D02*
X83553349Y-57683000D01*
X83592349Y-57150000D02*
G75*
G03*
X83592349Y-57150000I-4120000J0D01*
G01*
%TO.C,J8*%
X127060000Y-47050000D02*
X125730000Y-47050000D01*
X127060000Y-45720000D02*
X127060000Y-47050000D01*
X127060000Y-44450000D02*
X127060000Y-41850000D01*
X127060000Y-44450000D02*
X124400000Y-44450000D01*
X127060000Y-41850000D02*
X124400000Y-41850000D01*
X124400000Y-44450000D02*
X124400000Y-41850000D01*
%TO.C,R5*%
X95350000Y-104140000D02*
X95420000Y-104140000D01*
X95350000Y-104140000D02*
G75*
G03*
X95350000Y-104140000I-1370000J0D01*
G01*
%TO.C,C5*%
X142950302Y-57375000D02*
X143750302Y-57375000D01*
X143350302Y-56975000D02*
X143350302Y-57775000D01*
X147360000Y-55610000D02*
X147360000Y-63770000D01*
X147400000Y-55610000D02*
X147400000Y-63770000D01*
X147440000Y-55610000D02*
X147440000Y-63770000D01*
X147480000Y-55611000D02*
X147480000Y-63769000D01*
X147520000Y-55613000D02*
X147520000Y-63767000D01*
X147560000Y-55614000D02*
X147560000Y-63766000D01*
X147600000Y-55616000D02*
X147600000Y-63764000D01*
X147640000Y-55619000D02*
X147640000Y-63761000D01*
X147680000Y-55622000D02*
X147680000Y-63758000D01*
X147720000Y-55625000D02*
X147720000Y-63755000D01*
X147760000Y-55629000D02*
X147760000Y-63751000D01*
X147800000Y-55633000D02*
X147800000Y-63747000D01*
X147840000Y-55638000D02*
X147840000Y-63742000D01*
X147880000Y-55642000D02*
X147880000Y-63738000D01*
X147920000Y-55648000D02*
X147920000Y-63732000D01*
X147960000Y-55653000D02*
X147960000Y-63727000D01*
X148000000Y-55660000D02*
X148000000Y-63720000D01*
X148040000Y-55666000D02*
X148040000Y-63714000D01*
X148081000Y-55673000D02*
X148081000Y-63707000D01*
X148121000Y-55680000D02*
X148121000Y-63700000D01*
X148161000Y-55688000D02*
X148161000Y-63692000D01*
X148201000Y-55696000D02*
X148201000Y-63684000D01*
X148241000Y-55705000D02*
X148241000Y-63675000D01*
X148281000Y-55714000D02*
X148281000Y-63666000D01*
X148321000Y-55723000D02*
X148321000Y-63657000D01*
X148361000Y-55733000D02*
X148361000Y-63647000D01*
X148401000Y-55743000D02*
X148401000Y-63637000D01*
X148441000Y-55754000D02*
X148441000Y-63626000D01*
X148481000Y-55765000D02*
X148481000Y-63615000D01*
X148521000Y-55776000D02*
X148521000Y-63604000D01*
X148561000Y-55788000D02*
X148561000Y-63592000D01*
X148601000Y-55801000D02*
X148601000Y-63579000D01*
X148641000Y-55813000D02*
X148641000Y-63567000D01*
X148681000Y-55827000D02*
X148681000Y-63553000D01*
X148721000Y-55840000D02*
X148721000Y-63540000D01*
X148761000Y-55855000D02*
X148761000Y-63525000D01*
X148801000Y-55869000D02*
X148801000Y-63511000D01*
X148841000Y-55885000D02*
X148841000Y-58650000D01*
X148841000Y-60730000D02*
X148841000Y-63495000D01*
X148881000Y-55900000D02*
X148881000Y-58650000D01*
X148881000Y-60730000D02*
X148881000Y-63480000D01*
X148921000Y-55916000D02*
X148921000Y-58650000D01*
X148921000Y-60730000D02*
X148921000Y-63464000D01*
X148961000Y-55933000D02*
X148961000Y-58650000D01*
X148961000Y-60730000D02*
X148961000Y-63447000D01*
X149001000Y-55950000D02*
X149001000Y-58650000D01*
X149001000Y-60730000D02*
X149001000Y-63430000D01*
X149041000Y-55968000D02*
X149041000Y-58650000D01*
X149041000Y-60730000D02*
X149041000Y-63412000D01*
X149081000Y-55986000D02*
X149081000Y-58650000D01*
X149081000Y-60730000D02*
X149081000Y-63394000D01*
X149121000Y-56004000D02*
X149121000Y-58650000D01*
X149121000Y-60730000D02*
X149121000Y-63376000D01*
X149161000Y-56024000D02*
X149161000Y-58650000D01*
X149161000Y-60730000D02*
X149161000Y-63356000D01*
X149201000Y-56043000D02*
X149201000Y-58650000D01*
X149201000Y-60730000D02*
X149201000Y-63337000D01*
X149241000Y-56063000D02*
X149241000Y-58650000D01*
X149241000Y-60730000D02*
X149241000Y-63317000D01*
X149281000Y-56084000D02*
X149281000Y-58650000D01*
X149281000Y-60730000D02*
X149281000Y-63296000D01*
X149321000Y-56106000D02*
X149321000Y-58650000D01*
X149321000Y-60730000D02*
X149321000Y-63274000D01*
X149361000Y-56128000D02*
X149361000Y-58650000D01*
X149361000Y-60730000D02*
X149361000Y-63252000D01*
X149401000Y-56150000D02*
X149401000Y-58650000D01*
X149401000Y-60730000D02*
X149401000Y-63230000D01*
X149441000Y-56173000D02*
X149441000Y-58650000D01*
X149441000Y-60730000D02*
X149441000Y-63207000D01*
X149481000Y-56197000D02*
X149481000Y-58650000D01*
X149481000Y-60730000D02*
X149481000Y-63183000D01*
X149521000Y-56221000D02*
X149521000Y-58650000D01*
X149521000Y-60730000D02*
X149521000Y-63159000D01*
X149561000Y-56246000D02*
X149561000Y-58650000D01*
X149561000Y-60730000D02*
X149561000Y-63134000D01*
X149601000Y-56272000D02*
X149601000Y-58650000D01*
X149601000Y-60730000D02*
X149601000Y-63108000D01*
X149641000Y-56298000D02*
X149641000Y-58650000D01*
X149641000Y-60730000D02*
X149641000Y-63082000D01*
X149681000Y-56325000D02*
X149681000Y-58650000D01*
X149681000Y-60730000D02*
X149681000Y-63055000D01*
X149721000Y-56352000D02*
X149721000Y-58650000D01*
X149721000Y-60730000D02*
X149721000Y-63028000D01*
X149761000Y-56381000D02*
X149761000Y-58650000D01*
X149761000Y-60730000D02*
X149761000Y-62999000D01*
X149801000Y-56410000D02*
X149801000Y-58650000D01*
X149801000Y-60730000D02*
X149801000Y-62970000D01*
X149841000Y-56440000D02*
X149841000Y-58650000D01*
X149841000Y-60730000D02*
X149841000Y-62940000D01*
X149881000Y-56470000D02*
X149881000Y-58650000D01*
X149881000Y-60730000D02*
X149881000Y-62910000D01*
X149921000Y-56501000D02*
X149921000Y-58650000D01*
X149921000Y-60730000D02*
X149921000Y-62879000D01*
X149961000Y-56534000D02*
X149961000Y-58650000D01*
X149961000Y-60730000D02*
X149961000Y-62846000D01*
X150001000Y-56566000D02*
X150001000Y-58650000D01*
X150001000Y-60730000D02*
X150001000Y-62814000D01*
X150041000Y-56600000D02*
X150041000Y-58650000D01*
X150041000Y-60730000D02*
X150041000Y-62780000D01*
X150081000Y-56635000D02*
X150081000Y-58650000D01*
X150081000Y-60730000D02*
X150081000Y-62745000D01*
X150121000Y-56671000D02*
X150121000Y-58650000D01*
X150121000Y-60730000D02*
X150121000Y-62709000D01*
X150161000Y-56707000D02*
X150161000Y-58650000D01*
X150161000Y-60730000D02*
X150161000Y-62673000D01*
X150201000Y-56745000D02*
X150201000Y-58650000D01*
X150201000Y-60730000D02*
X150201000Y-62635000D01*
X150241000Y-56783000D02*
X150241000Y-58650000D01*
X150241000Y-60730000D02*
X150241000Y-62597000D01*
X150281000Y-56823000D02*
X150281000Y-58650000D01*
X150281000Y-60730000D02*
X150281000Y-62557000D01*
X150321000Y-56864000D02*
X150321000Y-58650000D01*
X150321000Y-60730000D02*
X150321000Y-62516000D01*
X150361000Y-56906000D02*
X150361000Y-58650000D01*
X150361000Y-60730000D02*
X150361000Y-62474000D01*
X150401000Y-56949000D02*
X150401000Y-58650000D01*
X150401000Y-60730000D02*
X150401000Y-62431000D01*
X150441000Y-56993000D02*
X150441000Y-58650000D01*
X150441000Y-60730000D02*
X150441000Y-62387000D01*
X150481000Y-57039000D02*
X150481000Y-58650000D01*
X150481000Y-60730000D02*
X150481000Y-62341000D01*
X150521000Y-57086000D02*
X150521000Y-58650000D01*
X150521000Y-60730000D02*
X150521000Y-62294000D01*
X150561000Y-57134000D02*
X150561000Y-58650000D01*
X150561000Y-60730000D02*
X150561000Y-62246000D01*
X150601000Y-57185000D02*
X150601000Y-58650000D01*
X150601000Y-60730000D02*
X150601000Y-62195000D01*
X150641000Y-57236000D02*
X150641000Y-58650000D01*
X150641000Y-60730000D02*
X150641000Y-62144000D01*
X150681000Y-57290000D02*
X150681000Y-58650000D01*
X150681000Y-60730000D02*
X150681000Y-62090000D01*
X150721000Y-57345000D02*
X150721000Y-58650000D01*
X150721000Y-60730000D02*
X150721000Y-62035000D01*
X150761000Y-57403000D02*
X150761000Y-58650000D01*
X150761000Y-60730000D02*
X150761000Y-61977000D01*
X150801000Y-57462000D02*
X150801000Y-58650000D01*
X150801000Y-60730000D02*
X150801000Y-61918000D01*
X150841000Y-57524000D02*
X150841000Y-58650000D01*
X150841000Y-60730000D02*
X150841000Y-61856000D01*
X150881000Y-57588000D02*
X150881000Y-58650000D01*
X150881000Y-60730000D02*
X150881000Y-61792000D01*
X150921000Y-57656000D02*
X150921000Y-61724000D01*
X150961000Y-57726000D02*
X150961000Y-61654000D01*
X151001000Y-57800000D02*
X151001000Y-61580000D01*
X151041000Y-57877000D02*
X151041000Y-61503000D01*
X151081000Y-57959000D02*
X151081000Y-61421000D01*
X151121000Y-58045000D02*
X151121000Y-61335000D01*
X151161000Y-58138000D02*
X151161000Y-61242000D01*
X151201000Y-58237000D02*
X151201000Y-61143000D01*
X151241000Y-58344000D02*
X151241000Y-61036000D01*
X151281000Y-58461000D02*
X151281000Y-60919000D01*
X151321000Y-58592000D02*
X151321000Y-60788000D01*
X151361000Y-58742000D02*
X151361000Y-60638000D01*
X151401000Y-58922000D02*
X151401000Y-60458000D01*
X151441000Y-59157000D02*
X151441000Y-60223000D01*
X151480000Y-59690000D02*
G75*
G03*
X151480000Y-59690000I-4120000J0D01*
G01*
%TO.C,R16*%
X173355000Y-68045000D02*
X173355000Y-68115000D01*
X174725000Y-66675000D02*
G75*
G03*
X174725000Y-66675000I-1370000J0D01*
G01*
%TO.C,L2*%
X170950000Y-51760000D02*
X170950000Y-60000000D01*
X170950000Y-51760000D02*
X177328000Y-51760000D01*
X170950000Y-60000000D02*
X177328000Y-60000000D01*
X180812000Y-51760000D02*
X187190000Y-51760000D01*
X180812000Y-60000000D02*
X187190000Y-60000000D01*
X187190000Y-51760000D02*
X187190000Y-60000000D01*
%TO.C,NE2*%
X88610000Y-95284000D02*
X88610000Y-95440000D01*
X88610000Y-97600000D02*
X88610000Y-97756000D01*
X91842334Y-95441392D02*
G75*
G03*
X88610001Y-95284485I-1672334J-1078608D01*
G01*
X91211129Y-95440164D02*
G75*
G03*
X89129040Y-95440001I-1041129J-1079836D01*
G01*
X89129040Y-97599999D02*
G75*
G03*
X91211129Y-97599836I1040960J1079999D01*
G01*
X88610001Y-97755515D02*
G75*
G03*
X91842334Y-97598608I1559999J1235515D01*
G01*
D13*
%TO.C,NX6*%
X172386500Y-98973640D02*
X172386500Y-86116160D01*
X172386500Y-98973640D02*
X172386500Y-99133660D01*
X189214000Y-86116160D02*
X189214000Y-99133660D01*
X189205562Y-86102034D02*
G75*
G03*
X172386500Y-86116160I-8404042J-6541927D01*
G01*
D14*
X189206482Y-86103379D02*
G75*
G03*
X172386500Y-86116160I-8404962J-6624400D01*
G01*
X172388536Y-99132954D02*
G75*
G03*
X189214000Y-99133660I8412984J6011472D01*
G01*
D13*
X172395679Y-99143282D02*
G75*
G03*
X189213999Y-99133660I8405841J5805901D01*
G01*
D14*
X183816500Y-92783660D02*
G75*
G03*
X183816500Y-92783660I-2540000J0D01*
G01*
D12*
%TO.C,Q1*%
X61555000Y-55460000D02*
X61555000Y-60101000D01*
X61555000Y-55460000D02*
X71795000Y-55460000D01*
X61555000Y-56970000D02*
X71795000Y-56970000D01*
X61555000Y-60101000D02*
X71795000Y-60101000D01*
X64825000Y-55460000D02*
X64825000Y-56970000D01*
X68526000Y-55460000D02*
X68526000Y-56970000D01*
X71795000Y-55460000D02*
X71795000Y-60101000D01*
%TO.C,J6*%
X117760000Y-47050000D02*
X116430000Y-47050000D01*
X117760000Y-45720000D02*
X117760000Y-47050000D01*
X117760000Y-44450000D02*
X117760000Y-41850000D01*
X117760000Y-44450000D02*
X115100000Y-44450000D01*
X117760000Y-41850000D02*
X115100000Y-41850000D01*
X115100000Y-44450000D02*
X115100000Y-41850000D01*
%TO.C,X1*%
X105395000Y-52605000D02*
X93245000Y-52605000D01*
X93245000Y-52605000D02*
X93245000Y-64755000D01*
X106145000Y-64755000D02*
X106145000Y-53355000D01*
X93995000Y-65505000D02*
X105395000Y-65505000D01*
X106145000Y-53355000D02*
G75*
G03*
X105395000Y-52605000I-750000J0D01*
G01*
X105395000Y-65505000D02*
G75*
G03*
X106145000Y-64755000I0J750000D01*
G01*
X93245000Y-64755000D02*
G75*
G03*
X93995000Y-65505000I750000J0D01*
G01*
D13*
%TO.C,NX1*%
X43260000Y-98973640D02*
X43260000Y-86116160D01*
X43260000Y-98973640D02*
X43260000Y-99133660D01*
X60087500Y-86116160D02*
X60087500Y-99133660D01*
X60079062Y-86102034D02*
G75*
G03*
X43260000Y-86116160I-8404042J-6541927D01*
G01*
D14*
X60079982Y-86103379D02*
G75*
G03*
X43260000Y-86116160I-8404962J-6624400D01*
G01*
X43262036Y-99132954D02*
G75*
G03*
X60087500Y-99133660I8412984J6011472D01*
G01*
D13*
X43269179Y-99143282D02*
G75*
G03*
X60087499Y-99133660I8405841J5805901D01*
G01*
D14*
X54690000Y-92783660D02*
G75*
G03*
X54690000Y-92783660I-2540000J0D01*
G01*
D12*
%TO.C,R7*%
X113130000Y-103505000D02*
X113200000Y-103505000D01*
X113130000Y-103505000D02*
G75*
G03*
X113130000Y-103505000I-1370000J0D01*
G01*
%TO.C,J2*%
X53750000Y-35555000D02*
X53750000Y-50255000D01*
X44550000Y-35555000D02*
X53750000Y-35555000D01*
X44550000Y-44355000D02*
X44550000Y-35555000D01*
X53950000Y-49405000D02*
X53950000Y-50455000D01*
X53750000Y-50255000D02*
X51150000Y-50255000D01*
X47250000Y-50255000D02*
X44550000Y-50255000D01*
X44550000Y-50255000D02*
X44550000Y-48355000D01*
X52900000Y-50455000D02*
X53950000Y-50455000D01*
%TO.C,U5*%
X158015000Y-50750000D02*
X158015000Y-61030000D01*
X158015000Y-61030000D02*
X163315000Y-61030000D01*
X159665000Y-50750000D02*
X158015000Y-50750000D01*
X163315000Y-50750000D02*
X161665000Y-50750000D01*
X163315000Y-61030000D02*
X163315000Y-50750000D01*
X159665000Y-50750000D02*
G75*
G03*
X161665000Y-50750000I1000000J0D01*
G01*
%TO.C,R11*%
X62330000Y-104140000D02*
X62400000Y-104140000D01*
X62330000Y-104140000D02*
G75*
G03*
X62330000Y-104140000I-1370000J0D01*
G01*
%TO.C,J3*%
X103810000Y-47050000D02*
X102480000Y-47050000D01*
X103810000Y-45720000D02*
X103810000Y-47050000D01*
X103810000Y-44450000D02*
X103810000Y-41850000D01*
X103810000Y-44450000D02*
X101150000Y-44450000D01*
X103810000Y-41850000D02*
X101150000Y-41850000D01*
X101150000Y-44450000D02*
X101150000Y-41850000D01*
%TO.C,R9*%
X167105000Y-104140000D02*
X167175000Y-104140000D01*
X167105000Y-104140000D02*
G75*
G03*
X167105000Y-104140000I-1370000J0D01*
G01*
%TO.C,NE3*%
X141950000Y-87664000D02*
X141950000Y-87820000D01*
X141950000Y-89980000D02*
X141950000Y-90136000D01*
X145182334Y-87821392D02*
G75*
G03*
X141950001Y-87664485I-1672334J-1078608D01*
G01*
X144551129Y-87820164D02*
G75*
G03*
X142469040Y-87820001I-1041129J-1079836D01*
G01*
X142469040Y-89979999D02*
G75*
G03*
X144551129Y-89979836I1040960J1079999D01*
G01*
X141950001Y-90135515D02*
G75*
G03*
X145182334Y-89978608I1559999J1235515D01*
G01*
%TO.C,C4*%
X152345000Y-52170000D02*
X152345000Y-51725000D01*
X152345000Y-52170000D02*
X146105000Y-52170000D01*
X152345000Y-49875000D02*
X152345000Y-49430000D01*
X152345000Y-49430000D02*
X146105000Y-49430000D01*
X146105000Y-52170000D02*
X146105000Y-51725000D01*
X146105000Y-49875000D02*
X146105000Y-49430000D01*
%TO.C,J1*%
X132020000Y-50740000D02*
X133350000Y-50740000D01*
X132020000Y-52070000D02*
X132020000Y-50740000D01*
X132020000Y-53340000D02*
X132020000Y-63560000D01*
X132020000Y-53340000D02*
X134620000Y-53340000D01*
X132020000Y-63560000D02*
X137220000Y-63560000D01*
X134620000Y-50740000D02*
X137220000Y-50740000D01*
X134620000Y-53340000D02*
X134620000Y-50740000D01*
X137220000Y-50740000D02*
X137220000Y-63560000D01*
%TO.C,R6*%
X84555000Y-104140000D02*
X84625000Y-104140000D01*
X84555000Y-104140000D02*
G75*
G03*
X84555000Y-104140000I-1370000J0D01*
G01*
D13*
%TO.C,NX5*%
X149509480Y-98973640D02*
X149509480Y-86116160D01*
X149509480Y-98973640D02*
X149509480Y-99133660D01*
X166336980Y-86116160D02*
X166336980Y-99133660D01*
X166328542Y-86102034D02*
G75*
G03*
X149509480Y-86116160I-8404042J-6541927D01*
G01*
D14*
X166329462Y-86103379D02*
G75*
G03*
X149509480Y-86116160I-8404962J-6624400D01*
G01*
X149511516Y-99132954D02*
G75*
G03*
X166336980Y-99133660I8412984J6011472D01*
G01*
D13*
X149518659Y-99143282D02*
G75*
G03*
X166336979Y-99133660I8405841J5805901D01*
G01*
D14*
X160939480Y-92783660D02*
G75*
G03*
X160939480Y-92783660I-2540000J0D01*
G01*
D12*
%TO.C,NE4*%
X141950000Y-95284000D02*
X141950000Y-95440000D01*
X141950000Y-97600000D02*
X141950000Y-97756000D01*
X145182334Y-95441392D02*
G75*
G03*
X141950001Y-95284485I-1672334J-1078608D01*
G01*
X144551129Y-95440164D02*
G75*
G03*
X142469040Y-95440001I-1041129J-1079836D01*
G01*
X142469040Y-97599999D02*
G75*
G03*
X144551129Y-97599836I1040960J1079999D01*
G01*
X141950001Y-97755515D02*
G75*
G03*
X145182334Y-97598608I1559999J1235515D01*
G01*
D15*
%TO.C,U2*%
X67538600Y-47866300D02*
X67538600Y-49923700D01*
X70891400Y-49923700D02*
X70891400Y-47866300D01*
X68851739Y-49923700D02*
X69578261Y-49923700D01*
%TD*%
M02*
