%TF.GenerationSoftware,KiCad,Pcbnew,7.0.2-0*%
%TF.CreationDate,2023-05-13T13:36:10-07:00*%
%TF.ProjectId,nixie3,6e697869-6533-42e6-9b69-6361645f7063,rev?*%
%TF.SameCoordinates,Original*%
%TF.FileFunction,Soldermask,Bot*%
%TF.FilePolarity,Negative*%
%FSLAX46Y46*%
G04 Gerber Fmt 4.6, Leading zero omitted, Abs format (unit mm)*
G04 Created by KiCad (PCBNEW 7.0.2-0) date 2023-05-13 13:36:10*
%MOMM*%
%LPD*%
G01*
G04 APERTURE LIST*
G04 Aperture macros list*
%AMRoundRect*
0 Rectangle with rounded corners*
0 $1 Rounding radius*
0 $2 $3 $4 $5 $6 $7 $8 $9 X,Y pos of 4 corners*
0 Add a 4 corners polygon primitive as box body*
4,1,4,$2,$3,$4,$5,$6,$7,$8,$9,$2,$3,0*
0 Add four circle primitives for the rounded corners*
1,1,$1+$1,$2,$3*
1,1,$1+$1,$4,$5*
1,1,$1+$1,$6,$7*
1,1,$1+$1,$8,$9*
0 Add four rect primitives between the rounded corners*
20,1,$1+$1,$2,$3,$4,$5,0*
20,1,$1+$1,$4,$5,$6,$7,0*
20,1,$1+$1,$6,$7,$8,$9,0*
20,1,$1+$1,$8,$9,$2,$3,0*%
G04 Aperture macros list end*
%ADD10C,1.600000*%
%ADD11O,1.600000X1.600000*%
%ADD12C,1.400000*%
%ADD13O,1.400000X1.400000*%
%ADD14C,2.700000*%
%ADD15R,1.200000X1.200000*%
%ADD16C,1.200000*%
%ADD17C,4.998720*%
%ADD18C,2.540000*%
%ADD19R,2.400000X2.400000*%
%ADD20O,2.400000X2.400000*%
%ADD21R,1.800000X1.800000*%
%ADD22C,1.800000*%
%ADD23R,1.700000X1.700000*%
%ADD24O,1.700000X1.700000*%
%ADD25C,3.000000*%
%ADD26R,1.600000X1.600000*%
%ADD27R,1.905000X2.000000*%
%ADD28O,1.905000X2.000000*%
%ADD29R,3.500000X3.500000*%
%ADD30RoundRect,0.750000X-1.000000X0.750000X-1.000000X-0.750000X1.000000X-0.750000X1.000000X0.750000X0*%
%ADD31RoundRect,0.875000X-0.875000X0.875000X-0.875000X-0.875000X0.875000X-0.875000X0.875000X0.875000X0*%
G04 APERTURE END LIST*
D10*
%TO.C,R17*%
X81915000Y-44450000D03*
D11*
X84455000Y-44450000D03*
%TD*%
D10*
%TO.C,R10*%
X188595000Y-103505000D03*
D11*
X191135000Y-103505000D03*
%TD*%
D10*
%TO.C,R3*%
X87630000Y-48895000D03*
D11*
X90170000Y-48895000D03*
%TD*%
D10*
%TO.C,R12*%
X139290000Y-103505000D03*
D11*
X141830000Y-103505000D03*
%TD*%
D12*
%TO.C,R1*%
X108590000Y-59690000D03*
D13*
X110490000Y-59690000D03*
%TD*%
D10*
%TO.C,R15*%
X169320000Y-60960000D03*
D11*
X166780000Y-60960000D03*
%TD*%
D14*
%TO.C,REF\u002A\u002A*%
X116205000Y-108585000D03*
%TD*%
D10*
%TO.C,R13*%
X144780000Y-103505000D03*
D11*
X147320000Y-103505000D03*
%TD*%
D15*
%TO.C,C1*%
X114705000Y-59690000D03*
D16*
X116205000Y-59690000D03*
%TD*%
D17*
%TO.C,NX3*%
X104173020Y-92783660D03*
D18*
X109220000Y-97282000D03*
X99857560Y-100599240D03*
X98173540Y-97282000D03*
X98046540Y-92783660D03*
X98173540Y-88285320D03*
X99857560Y-84968080D03*
X103855520Y-83967320D03*
X107853480Y-84968080D03*
X109220000Y-88285320D03*
X109347000Y-92783660D03*
X107853480Y-100599240D03*
X103855520Y-101600000D03*
%TD*%
D19*
%TO.C,D1*%
X74295000Y-65405000D03*
D20*
X61595000Y-65405000D03*
%TD*%
D21*
%TO.C,NE1*%
X88900000Y-88900000D03*
D22*
X91440000Y-88900000D03*
%TD*%
D10*
%TO.C,R4*%
X90805000Y-104140000D03*
D11*
X88265000Y-104140000D03*
%TD*%
D23*
%TO.C,J4*%
X107130000Y-45720000D03*
D24*
X107130000Y-43180000D03*
%TD*%
D10*
%TO.C,R8*%
X133985000Y-104140000D03*
D11*
X136525000Y-104140000D03*
%TD*%
D23*
%TO.C,J5*%
X111780000Y-45720000D03*
D24*
X111780000Y-43180000D03*
%TD*%
D14*
%TO.C,REF\u002A\u002A*%
X189865000Y-38735000D03*
%TD*%
D17*
%TO.C,NX4*%
X127653040Y-92783660D03*
D18*
X132700020Y-97282000D03*
X123337580Y-100599240D03*
X121653560Y-97282000D03*
X121526560Y-92783660D03*
X121653560Y-88285320D03*
X123337580Y-84968080D03*
X127335540Y-83967320D03*
X131333500Y-84968080D03*
X132700020Y-88285320D03*
X132827020Y-92783660D03*
X131333500Y-100599240D03*
X127335540Y-101600000D03*
%TD*%
D17*
%TO.C,NX2*%
X76200000Y-92783660D03*
D18*
X81246980Y-97282000D03*
X71884540Y-100599240D03*
X70200520Y-97282000D03*
X70073520Y-92783660D03*
X70200520Y-88285320D03*
X71884540Y-84968080D03*
X75882500Y-83967320D03*
X79880460Y-84968080D03*
X81246980Y-88285320D03*
X81373980Y-92783660D03*
X79880460Y-100599240D03*
X75882500Y-101600000D03*
%TD*%
D14*
%TO.C,REF\u002A\u002A*%
X44450000Y-108585000D03*
%TD*%
D19*
%TO.C,D2*%
X155575000Y-67945000D03*
D20*
X168275000Y-67945000D03*
%TD*%
D10*
%TO.C,R2*%
X77060000Y-48895000D03*
D11*
X79600000Y-48895000D03*
%TD*%
D14*
%TO.C,REF\u002A\u002A*%
X44450000Y-55245000D03*
%TD*%
D15*
%TO.C,C2*%
X127000000Y-63730000D03*
D16*
X127000000Y-62230000D03*
%TD*%
D25*
%TO.C,L1*%
X49530000Y-65405000D03*
X57150000Y-65405000D03*
%TD*%
D10*
%TO.C,R14*%
X167640000Y-56925000D03*
D11*
X167640000Y-54385000D03*
%TD*%
D23*
%TO.C,J7*%
X121080000Y-45720000D03*
D24*
X121080000Y-43180000D03*
%TD*%
D26*
%TO.C,C3*%
X76972349Y-57150000D03*
D10*
X81972349Y-57150000D03*
%TD*%
D23*
%TO.C,J8*%
X125730000Y-45720000D03*
D24*
X125730000Y-43180000D03*
%TD*%
D14*
%TO.C,REF\u002A\u002A*%
X189865000Y-108585000D03*
%TD*%
D10*
%TO.C,R5*%
X93980000Y-104140000D03*
D11*
X96520000Y-104140000D03*
%TD*%
D26*
%TO.C,C5*%
X144860000Y-59690000D03*
D10*
X149860000Y-59690000D03*
%TD*%
%TO.C,R16*%
X173355000Y-66675000D03*
D11*
X173355000Y-69215000D03*
%TD*%
D25*
%TO.C,L2*%
X179070000Y-52070000D03*
X179070000Y-59690000D03*
%TD*%
D14*
%TO.C,REF\u002A\u002A*%
X137160000Y-38735000D03*
%TD*%
D21*
%TO.C,NE2*%
X88900000Y-96520000D03*
D22*
X91440000Y-96520000D03*
%TD*%
D17*
%TO.C,NX6*%
X181276500Y-92783660D03*
D18*
X186323480Y-97282000D03*
X176961040Y-100599240D03*
X175277020Y-97282000D03*
X175150020Y-92783660D03*
X175277020Y-88285320D03*
X176961040Y-84968080D03*
X180959000Y-83967320D03*
X184956960Y-84968080D03*
X186323480Y-88285320D03*
X186450480Y-92783660D03*
X184956960Y-100599240D03*
X180959000Y-101600000D03*
%TD*%
D27*
%TO.C,Q1*%
X64135000Y-58730000D03*
D28*
X66675000Y-58730000D03*
X69215000Y-58730000D03*
%TD*%
D23*
%TO.C,J6*%
X116430000Y-45720000D03*
D24*
X116430000Y-43180000D03*
%TD*%
D26*
%TO.C,X1*%
X95885000Y-55245000D03*
D10*
X95885000Y-62865000D03*
X103505000Y-62865000D03*
X103505000Y-55245000D03*
%TD*%
D17*
%TO.C,NX1*%
X52150000Y-92783660D03*
D18*
X57196980Y-97282000D03*
X47834540Y-100599240D03*
X46150520Y-97282000D03*
X46023520Y-92783660D03*
X46150520Y-88285320D03*
X47834540Y-84968080D03*
X51832500Y-83967320D03*
X55830460Y-84968080D03*
X57196980Y-88285320D03*
X57323980Y-92783660D03*
X55830460Y-100599240D03*
X51832500Y-101600000D03*
%TD*%
D10*
%TO.C,R7*%
X111760000Y-103505000D03*
D11*
X114300000Y-103505000D03*
%TD*%
D29*
%TO.C,J2*%
X49150000Y-49355000D03*
D30*
X49150000Y-43355000D03*
D31*
X44450000Y-46355000D03*
%TD*%
D26*
%TO.C,U5*%
X156855000Y-52080000D03*
D11*
X156855000Y-54620000D03*
X156855000Y-57160000D03*
X156855000Y-59700000D03*
X164475000Y-59700000D03*
X164475000Y-57160000D03*
X164475000Y-54620000D03*
X164475000Y-52080000D03*
%TD*%
D10*
%TO.C,R11*%
X60960000Y-104140000D03*
D11*
X63500000Y-104140000D03*
%TD*%
D23*
%TO.C,J3*%
X102480000Y-45720000D03*
D24*
X102480000Y-43180000D03*
%TD*%
D10*
%TO.C,R9*%
X165735000Y-104140000D03*
D11*
X168275000Y-104140000D03*
%TD*%
D21*
%TO.C,NE3*%
X142240000Y-88900000D03*
D22*
X144780000Y-88900000D03*
%TD*%
D10*
%TO.C,C4*%
X151725000Y-50800000D03*
X146725000Y-50800000D03*
%TD*%
D23*
%TO.C,J1*%
X133350000Y-52070000D03*
D24*
X135890000Y-52070000D03*
X133350000Y-54610000D03*
X135890000Y-54610000D03*
X133350000Y-57150000D03*
X135890000Y-57150000D03*
X133350000Y-59690000D03*
X135890000Y-59690000D03*
X133350000Y-62230000D03*
X135890000Y-62230000D03*
%TD*%
D10*
%TO.C,R6*%
X83185000Y-104140000D03*
D11*
X85725000Y-104140000D03*
%TD*%
D17*
%TO.C,NX5*%
X158399480Y-92783660D03*
D18*
X163446460Y-97282000D03*
X154084020Y-100599240D03*
X152400000Y-97282000D03*
X152273000Y-92783660D03*
X152400000Y-88285320D03*
X154084020Y-84968080D03*
X158081980Y-83967320D03*
X162079940Y-84968080D03*
X163446460Y-88285320D03*
X163573460Y-92783660D03*
X162079940Y-100599240D03*
X158081980Y-101600000D03*
%TD*%
D21*
%TO.C,NE4*%
X142240000Y-96520000D03*
D22*
X144780000Y-96520000D03*
%TD*%
D14*
%TO.C,REF\u002A\u002A*%
X92075000Y-38735000D03*
%TD*%
M02*
