%TF.GenerationSoftware,KiCad,Pcbnew,7.0.8*%
%TF.CreationDate,2023-10-07T19:29:42-07:00*%
%TF.ProjectId,nixie3,6e697869-6533-42e6-9b69-6361645f7063,rev?*%
%TF.SameCoordinates,Original*%
%TF.FileFunction,Copper,L1,Top*%
%TF.FilePolarity,Positive*%
%FSLAX46Y46*%
G04 Gerber Fmt 4.6, Leading zero omitted, Abs format (unit mm)*
G04 Created by KiCad (PCBNEW 7.0.8) date 2023-10-07 19:29:42*
%MOMM*%
%LPD*%
G01*
G04 APERTURE LIST*
G04 Aperture macros list*
%AMRoundRect*
0 Rectangle with rounded corners*
0 $1 Rounding radius*
0 $2 $3 $4 $5 $6 $7 $8 $9 X,Y pos of 4 corners*
0 Add a 4 corners polygon primitive as box body*
4,1,4,$2,$3,$4,$5,$6,$7,$8,$9,$2,$3,0*
0 Add four circle primitives for the rounded corners*
1,1,$1+$1,$2,$3*
1,1,$1+$1,$4,$5*
1,1,$1+$1,$6,$7*
1,1,$1+$1,$8,$9*
0 Add four rect primitives between the rounded corners*
20,1,$1+$1,$2,$3,$4,$5,0*
20,1,$1+$1,$4,$5,$6,$7,0*
20,1,$1+$1,$6,$7,$8,$9,0*
20,1,$1+$1,$8,$9,$2,$3,0*%
G04 Aperture macros list end*
%TA.AperFunction,ComponentPad*%
%ADD10C,1.500000*%
%TD*%
%TA.AperFunction,ComponentPad*%
%ADD11C,1.600000*%
%TD*%
%TA.AperFunction,ComponentPad*%
%ADD12O,1.600000X1.600000*%
%TD*%
%TA.AperFunction,ComponentPad*%
%ADD13R,1.600000X1.600000*%
%TD*%
%TA.AperFunction,ComponentPad*%
%ADD14R,2.400000X2.400000*%
%TD*%
%TA.AperFunction,ComponentPad*%
%ADD15O,2.400000X2.400000*%
%TD*%
%TA.AperFunction,ComponentPad*%
%ADD16C,2.540000*%
%TD*%
%TA.AperFunction,ComponentPad*%
%ADD17R,1.800000X1.800000*%
%TD*%
%TA.AperFunction,ComponentPad*%
%ADD18C,1.800000*%
%TD*%
%TA.AperFunction,ComponentPad*%
%ADD19R,1.200000X1.200000*%
%TD*%
%TA.AperFunction,ComponentPad*%
%ADD20C,1.200000*%
%TD*%
%TA.AperFunction,ComponentPad*%
%ADD21R,1.700000X1.700000*%
%TD*%
%TA.AperFunction,ComponentPad*%
%ADD22O,1.700000X1.700000*%
%TD*%
%TA.AperFunction,ComponentPad*%
%ADD23R,2.000000X1.905000*%
%TD*%
%TA.AperFunction,ComponentPad*%
%ADD24O,2.000000X1.905000*%
%TD*%
%TA.AperFunction,SMDPad,CuDef*%
%ADD25R,1.600000X0.550000*%
%TD*%
%TA.AperFunction,SMDPad,CuDef*%
%ADD26R,0.550000X1.600000*%
%TD*%
%TA.AperFunction,ComponentPad*%
%ADD27C,3.000000*%
%TD*%
%TA.AperFunction,ComponentPad*%
%ADD28R,3.500000X3.500000*%
%TD*%
%TA.AperFunction,ComponentPad*%
%ADD29RoundRect,0.750000X-1.000000X0.750000X-1.000000X-0.750000X1.000000X-0.750000X1.000000X0.750000X0*%
%TD*%
%TA.AperFunction,ComponentPad*%
%ADD30RoundRect,0.875000X-0.875000X0.875000X-0.875000X-0.875000X0.875000X-0.875000X0.875000X0.875000X0*%
%TD*%
%TA.AperFunction,ComponentPad*%
%ADD31C,1.400000*%
%TD*%
%TA.AperFunction,ComponentPad*%
%ADD32O,1.400000X1.400000*%
%TD*%
%TA.AperFunction,SMDPad,CuDef*%
%ADD33RoundRect,0.008200X0.196800X-0.976800X0.196800X0.976800X-0.196800X0.976800X-0.196800X-0.976800X0*%
%TD*%
%TA.AperFunction,SMDPad,CuDef*%
%ADD34RoundRect,0.008200X-0.196800X0.976800X-0.196800X-0.976800X0.196800X-0.976800X0.196800X0.976800X0*%
%TD*%
%TA.AperFunction,ComponentPad*%
%ADD35C,1.700000*%
%TD*%
%TA.AperFunction,ComponentPad*%
%ADD36C,3.500000*%
%TD*%
%TA.AperFunction,SMDPad,CuDef*%
%ADD37R,1.320800X0.508000*%
%TD*%
%TA.AperFunction,ViaPad*%
%ADD38C,0.800000*%
%TD*%
%TA.AperFunction,Conductor*%
%ADD39C,0.250000*%
%TD*%
%TA.AperFunction,Conductor*%
%ADD40C,0.500000*%
%TD*%
G04 APERTURE END LIST*
D10*
%TO.P,Y1,1,1*%
%TO.N,Net-(U1-XTAL2{slash}PB7)*%
X94615000Y-64680000D03*
%TO.P,Y1,2,2*%
%TO.N,Net-(U1-XTAL1{slash}PB6)*%
X94615000Y-59800000D03*
%TD*%
D11*
%TO.P,R10,1*%
%TO.N,Net-(NX6-PadA)*%
X188595000Y-103505000D03*
D12*
%TO.P,R10,2*%
%TO.N,Net-(D1-K)*%
X191135000Y-103505000D03*
%TD*%
D13*
%TO.P,U7,1,~{Q8}*%
%TO.N,Net-(U7-~{Q8})*%
X137795000Y-70485000D03*
D12*
%TO.P,U7,2,~{Q9}*%
%TO.N,Net-(U7-~{Q9})*%
X135255000Y-70485000D03*
%TO.P,U7,3,A*%
%TO.N,Net-(U14-QE)*%
X132715000Y-70485000D03*
%TO.P,U7,4,D*%
%TO.N,Net-(U14-QH)*%
X130175000Y-70485000D03*
%TO.P,U7,5,VCC*%
%TO.N,VDD*%
X127635000Y-70485000D03*
%TO.P,U7,6,B*%
%TO.N,Net-(U14-QF)*%
X125095000Y-70485000D03*
%TO.P,U7,7,C*%
%TO.N,Net-(U14-QG)*%
X122555000Y-70485000D03*
%TO.P,U7,8,~{Q2}*%
%TO.N,Net-(U7-~{Q2})*%
X120015000Y-70485000D03*
%TO.P,U7,9,~{Q3}*%
%TO.N,Net-(U7-~{Q3})*%
X120015000Y-78105000D03*
%TO.P,U7,10,~{Q7}*%
%TO.N,Net-(U7-~{Q7})*%
X122555000Y-78105000D03*
%TO.P,U7,11,~{Q6}*%
%TO.N,Net-(U7-~{Q6})*%
X125095000Y-78105000D03*
%TO.P,U7,12,GND*%
%TO.N,GND*%
X127635000Y-78105000D03*
%TO.P,U7,13,~{Q4}*%
%TO.N,Net-(U7-~{Q4})*%
X130175000Y-78105000D03*
%TO.P,U7,14,~{Q5}*%
%TO.N,Net-(U7-~{Q5})*%
X132715000Y-78105000D03*
%TO.P,U7,15,~{Q1}*%
%TO.N,Net-(U7-~{Q1})*%
X135255000Y-78105000D03*
%TO.P,U7,16,~{Q0}*%
%TO.N,Net-(U7-~{Q0})*%
X137795000Y-78105000D03*
%TD*%
D11*
%TO.P,R12,1*%
%TO.N,Net-(NE3-Pad1)*%
X139290000Y-103505000D03*
D12*
%TO.P,R12,2*%
%TO.N,Net-(D1-K)*%
X141830000Y-103505000D03*
%TD*%
D13*
%TO.P,C11,1*%
%TO.N,VDD*%
X100370000Y-48895000D03*
D11*
%TO.P,C11,2*%
%TO.N,GND*%
X102870000Y-48895000D03*
%TD*%
D14*
%TO.P,D2,1,K*%
%TO.N,Net-(D2-K)*%
X70485000Y-38735000D03*
D15*
%TO.P,D2,2,A*%
%TO.N,GND*%
X57785000Y-38735000D03*
%TD*%
D11*
%TO.P,R13,1*%
%TO.N,Net-(NE4-Pad1)*%
X144780000Y-103505000D03*
D12*
%TO.P,R13,2*%
%TO.N,Net-(D1-K)*%
X147320000Y-103505000D03*
%TD*%
D16*
%TO.P,NX3,0,0*%
%TO.N,Net-(U11-~{Q0})*%
X109220000Y-97282000D03*
%TO.P,NX3,1,1*%
%TO.N,Net-(U11-~{Q1})*%
X99857560Y-100599240D03*
%TO.P,NX3,2,2*%
%TO.N,Net-(U11-~{Q2})*%
X98173540Y-97282000D03*
%TO.P,NX3,3,3*%
%TO.N,Net-(U11-~{Q3})*%
X98046540Y-92783660D03*
%TO.P,NX3,4,4*%
%TO.N,Net-(U11-~{Q4})*%
X98173540Y-88285320D03*
%TO.P,NX3,5,5*%
%TO.N,Net-(U11-~{Q5})*%
X99857560Y-84968080D03*
%TO.P,NX3,6,6*%
%TO.N,Net-(U11-~{Q6})*%
X103855520Y-83967320D03*
%TO.P,NX3,7,7*%
%TO.N,Net-(U11-~{Q7})*%
X107853480Y-84968080D03*
%TO.P,NX3,8,8*%
%TO.N,Net-(U11-~{Q8})*%
X109220000Y-88285320D03*
%TO.P,NX3,9,9*%
%TO.N,Net-(U11-~{Q9})*%
X109347000Y-92783660D03*
%TO.P,NX3,A,A*%
%TO.N,Net-(NX3-PadA)*%
X107853480Y-100599240D03*
%TO.P,NX3,LHDP*%
%TO.N,N/C*%
X103855520Y-101600000D03*
%TD*%
D17*
%TO.P,NE1,1*%
%TO.N,Net-(NE1-Pad1)*%
X88900000Y-88900000D03*
D18*
%TO.P,NE1,2*%
%TO.N,GND*%
X91440000Y-88900000D03*
%TD*%
D19*
%TO.P,C1,1*%
%TO.N,Net-(J9-~{RST})*%
X112785000Y-56525000D03*
D20*
%TO.P,C1,2*%
%TO.N,GND*%
X114285000Y-56525000D03*
%TD*%
D13*
%TO.P,C9,1*%
%TO.N,Net-(J1-D+)*%
X151805000Y-38100000D03*
D11*
%TO.P,C9,2*%
%TO.N,GND*%
X154305000Y-38100000D03*
%TD*%
D13*
%TO.P,U9,1,~{Q8}*%
%TO.N,Net-(U9-~{Q8})*%
X164465000Y-70485000D03*
D12*
%TO.P,U9,2,~{Q9}*%
%TO.N,Net-(U9-~{Q9})*%
X161925000Y-70485000D03*
%TO.P,U9,3,A*%
%TO.N,Net-(U15-QA)*%
X159385000Y-70485000D03*
%TO.P,U9,4,D*%
%TO.N,Net-(U15-QD)*%
X156845000Y-70485000D03*
%TO.P,U9,5,VCC*%
%TO.N,VDD*%
X154305000Y-70485000D03*
%TO.P,U9,6,B*%
%TO.N,Net-(U15-QB)*%
X151765000Y-70485000D03*
%TO.P,U9,7,C*%
%TO.N,Net-(U15-QC)*%
X149225000Y-70485000D03*
%TO.P,U9,8,~{Q2}*%
%TO.N,Net-(U9-~{Q2})*%
X146685000Y-70485000D03*
%TO.P,U9,9,~{Q3}*%
%TO.N,Net-(U9-~{Q3})*%
X146685000Y-78105000D03*
%TO.P,U9,10,~{Q7}*%
%TO.N,Net-(U9-~{Q7})*%
X149225000Y-78105000D03*
%TO.P,U9,11,~{Q6}*%
%TO.N,Net-(U9-~{Q6})*%
X151765000Y-78105000D03*
%TO.P,U9,12,GND*%
%TO.N,GND*%
X154305000Y-78105000D03*
%TO.P,U9,13,~{Q4}*%
%TO.N,Net-(U9-~{Q4})*%
X156845000Y-78105000D03*
%TO.P,U9,14,~{Q5}*%
%TO.N,Net-(U9-~{Q5})*%
X159385000Y-78105000D03*
%TO.P,U9,15,~{Q1}*%
%TO.N,Net-(U9-~{Q1})*%
X161925000Y-78105000D03*
%TO.P,U9,16,~{Q0}*%
%TO.N,Net-(U9-~{Q0})*%
X164465000Y-78105000D03*
%TD*%
D21*
%TO.P,J7,1,Pin_1*%
%TO.N,Net-(J7-Pin_1)*%
X111125000Y-40640000D03*
D22*
%TO.P,J7,2,Pin_2*%
%TO.N,GND*%
X111125000Y-38100000D03*
%TD*%
D11*
%TO.P,R3,1*%
%TO.N,Net-(U1-ADC6)*%
X184150000Y-67310000D03*
D12*
%TO.P,R3,2*%
%TO.N,GND*%
X181610000Y-67310000D03*
%TD*%
D11*
%TO.P,R4,1*%
%TO.N,Net-(D1-K)*%
X90805000Y-104140000D03*
D12*
%TO.P,R4,2*%
%TO.N,Net-(NE1-Pad1)*%
X88265000Y-104140000D03*
%TD*%
D13*
%TO.P,U11,1,~{Q8}*%
%TO.N,Net-(U11-~{Q8})*%
X112395000Y-70485000D03*
D12*
%TO.P,U11,2,~{Q9}*%
%TO.N,Net-(U11-~{Q9})*%
X109855000Y-70485000D03*
%TO.P,U11,3,A*%
%TO.N,Net-(U11-A)*%
X107315000Y-70485000D03*
%TO.P,U11,4,D*%
%TO.N,Net-(U11-D)*%
X104775000Y-70485000D03*
%TO.P,U11,5,VCC*%
%TO.N,VDD*%
X102235000Y-70485000D03*
%TO.P,U11,6,B*%
%TO.N,Net-(U11-B)*%
X99695000Y-70485000D03*
%TO.P,U11,7,C*%
%TO.N,Net-(U11-C)*%
X97155000Y-70485000D03*
%TO.P,U11,8,~{Q2}*%
%TO.N,Net-(U11-~{Q2})*%
X94615000Y-70485000D03*
%TO.P,U11,9,~{Q3}*%
%TO.N,Net-(U11-~{Q3})*%
X94615000Y-78105000D03*
%TO.P,U11,10,~{Q7}*%
%TO.N,Net-(U11-~{Q7})*%
X97155000Y-78105000D03*
%TO.P,U11,11,~{Q6}*%
%TO.N,Net-(U11-~{Q6})*%
X99695000Y-78105000D03*
%TO.P,U11,12,GND*%
%TO.N,GND*%
X102235000Y-78105000D03*
%TO.P,U11,13,~{Q4}*%
%TO.N,Net-(U11-~{Q4})*%
X104775000Y-78105000D03*
%TO.P,U11,14,~{Q5}*%
%TO.N,Net-(U11-~{Q5})*%
X107315000Y-78105000D03*
%TO.P,U11,15,~{Q1}*%
%TO.N,Net-(U11-~{Q1})*%
X109855000Y-78105000D03*
%TO.P,U11,16,~{Q0}*%
%TO.N,Net-(U11-~{Q0})*%
X112395000Y-78105000D03*
%TD*%
D13*
%TO.P,U14,1,QB*%
%TO.N,Net-(U11-B)*%
X120000000Y-65415000D03*
D12*
%TO.P,U14,2,QC*%
%TO.N,Net-(U11-C)*%
X122540000Y-65415000D03*
%TO.P,U14,3,QD*%
%TO.N,Net-(U11-D)*%
X125080000Y-65415000D03*
%TO.P,U14,4,QE*%
%TO.N,Net-(U14-QE)*%
X127620000Y-65415000D03*
%TO.P,U14,5,QF*%
%TO.N,Net-(U14-QF)*%
X130160000Y-65415000D03*
%TO.P,U14,6,QG*%
%TO.N,Net-(U14-QG)*%
X132700000Y-65415000D03*
%TO.P,U14,7,QH*%
%TO.N,Net-(U14-QH)*%
X135240000Y-65415000D03*
%TO.P,U14,8,GND*%
%TO.N,GND*%
X137780000Y-65415000D03*
%TO.P,U14,9,QH'*%
%TO.N,Net-(U14-QH')*%
X137780000Y-57795000D03*
%TO.P,U14,10,~{SRCLR}*%
%TO.N,VDD*%
X135240000Y-57795000D03*
%TO.P,U14,11,SRCLK*%
%TO.N,Net-(U1-PC5)*%
X132700000Y-57795000D03*
%TO.P,U14,12,RCLK*%
%TO.N,Net-(U1-PD3)*%
X130160000Y-57795000D03*
%TO.P,U14,13,~{OE}*%
%TO.N,GND*%
X127620000Y-57795000D03*
%TO.P,U14,14,SER*%
%TO.N,Net-(U13-QH')*%
X125080000Y-57795000D03*
%TO.P,U14,15,QA*%
%TO.N,Net-(U11-A)*%
X122540000Y-57795000D03*
%TO.P,U14,16,VCC*%
%TO.N,VDD*%
X120000000Y-57795000D03*
%TD*%
D13*
%TO.P,U10,1,~{Q8}*%
%TO.N,Net-(U10-~{Q8})*%
X85090000Y-70485000D03*
D12*
%TO.P,U10,2,~{Q9}*%
%TO.N,Net-(U10-~{Q9})*%
X82550000Y-70485000D03*
%TO.P,U10,3,A*%
%TO.N,Net-(U10-A)*%
X80010000Y-70485000D03*
%TO.P,U10,4,D*%
%TO.N,Net-(U10-D)*%
X77470000Y-70485000D03*
%TO.P,U10,5,VCC*%
%TO.N,VDD*%
X74930000Y-70485000D03*
%TO.P,U10,6,B*%
%TO.N,Net-(U10-B)*%
X72390000Y-70485000D03*
%TO.P,U10,7,C*%
%TO.N,Net-(U10-C)*%
X69850000Y-70485000D03*
%TO.P,U10,8,~{Q2}*%
%TO.N,Net-(U10-~{Q2})*%
X67310000Y-70485000D03*
%TO.P,U10,9,~{Q3}*%
%TO.N,Net-(U10-~{Q3})*%
X67310000Y-78105000D03*
%TO.P,U10,10,~{Q7}*%
%TO.N,Net-(U10-~{Q7})*%
X69850000Y-78105000D03*
%TO.P,U10,11,~{Q6}*%
%TO.N,Net-(U10-~{Q6})*%
X72390000Y-78105000D03*
%TO.P,U10,12,GND*%
%TO.N,GND*%
X74930000Y-78105000D03*
%TO.P,U10,13,~{Q4}*%
%TO.N,Net-(U10-~{Q4})*%
X77470000Y-78105000D03*
%TO.P,U10,14,~{Q5}*%
%TO.N,Net-(U10-~{Q5})*%
X80010000Y-78105000D03*
%TO.P,U10,15,~{Q1}*%
%TO.N,Net-(U10-~{Q1})*%
X82550000Y-78105000D03*
%TO.P,U10,16,~{Q0}*%
%TO.N,Net-(U10-~{Q0})*%
X85090000Y-78105000D03*
%TD*%
D11*
%TO.P,R8,1*%
%TO.N,Net-(NX4-PadA)*%
X133985000Y-104140000D03*
D12*
%TO.P,R8,2*%
%TO.N,Net-(D1-K)*%
X136525000Y-104140000D03*
%TD*%
D23*
%TO.P,Q1,1,G*%
%TO.N,Net-(Q1-G)*%
X171775000Y-43180000D03*
D24*
%TO.P,Q1,2,D*%
%TO.N,Net-(D1-A)*%
X171775000Y-45720000D03*
%TO.P,Q1,3,S*%
%TO.N,GND*%
X171775000Y-48260000D03*
%TD*%
D11*
%TO.P,R14,1*%
%TO.N,VCC*%
X54835000Y-52705000D03*
D12*
%TO.P,R14,2*%
%TO.N,Net-(U5-DC)*%
X57375000Y-52705000D03*
%TD*%
D25*
%TO.P,U1,1,PD3*%
%TO.N,Net-(U1-PD3)*%
X101340000Y-58265000D03*
%TO.P,U1,2,PD4*%
%TO.N,unconnected-(U1-PD4-Pad2)*%
X101340000Y-59065000D03*
%TO.P,U1,3,GND*%
%TO.N,GND*%
X101340000Y-59865000D03*
%TO.P,U1,4,VCC*%
%TO.N,VDD*%
X101340000Y-60665000D03*
%TO.P,U1,5,GND*%
%TO.N,GND*%
X101340000Y-61465000D03*
%TO.P,U1,6,VCC*%
%TO.N,VDD*%
X101340000Y-62265000D03*
%TO.P,U1,7,XTAL1/PB6*%
%TO.N,Net-(U1-XTAL1{slash}PB6)*%
X101340000Y-63065000D03*
%TO.P,U1,8,XTAL2/PB7*%
%TO.N,Net-(U1-XTAL2{slash}PB7)*%
X101340000Y-63865000D03*
D26*
%TO.P,U1,9,PD5*%
%TO.N,unconnected-(U1-PD5-Pad9)*%
X102790000Y-65315000D03*
%TO.P,U1,10,PD6*%
%TO.N,unconnected-(U1-PD6-Pad10)*%
X103590000Y-65315000D03*
%TO.P,U1,11,PD7*%
%TO.N,unconnected-(U1-PD7-Pad11)*%
X104390000Y-65315000D03*
%TO.P,U1,12,PB0*%
%TO.N,unconnected-(U1-PB0-Pad12)*%
X105190000Y-65315000D03*
%TO.P,U1,13,PB1*%
%TO.N,Net-(U1-PB1)*%
X105990000Y-65315000D03*
%TO.P,U1,14,PB2*%
%TO.N,unconnected-(U1-PB2-Pad14)*%
X106790000Y-65315000D03*
%TO.P,U1,15,PB3*%
%TO.N,Net-(J9-MOSI)*%
X107590000Y-65315000D03*
%TO.P,U1,16,PB4*%
%TO.N,Net-(J9-MISO)*%
X108390000Y-65315000D03*
D25*
%TO.P,U1,17,PB5*%
%TO.N,Net-(J9-SCK)*%
X109840000Y-63865000D03*
%TO.P,U1,18,AVCC*%
%TO.N,VDD*%
X109840000Y-63065000D03*
%TO.P,U1,19,ADC6*%
%TO.N,Net-(U1-ADC6)*%
X109840000Y-62265000D03*
%TO.P,U1,20,AREF*%
%TO.N,Net-(U1-AREF)*%
X109840000Y-61465000D03*
%TO.P,U1,21,GND*%
%TO.N,GND*%
X109840000Y-60665000D03*
%TO.P,U1,22,ADC7*%
%TO.N,unconnected-(U1-ADC7-Pad22)*%
X109840000Y-59865000D03*
%TO.P,U1,23,PC0*%
%TO.N,Net-(J5-Pin_1)*%
X109840000Y-59065000D03*
%TO.P,U1,24,PC1*%
%TO.N,Net-(J6-Pin_1)*%
X109840000Y-58265000D03*
D26*
%TO.P,U1,25,PC2*%
%TO.N,Net-(J7-Pin_1)*%
X108390000Y-56815000D03*
%TO.P,U1,26,PC3*%
%TO.N,Net-(J8-Pin_1)*%
X107590000Y-56815000D03*
%TO.P,U1,27,PC4*%
%TO.N,Net-(U1-PC4)*%
X106790000Y-56815000D03*
%TO.P,U1,28,PC5*%
%TO.N,Net-(U1-PC5)*%
X105990000Y-56815000D03*
%TO.P,U1,29,~{RESET}/PC6*%
%TO.N,Net-(J9-~{RST})*%
X105190000Y-56815000D03*
%TO.P,U1,30,PD0*%
%TO.N,Net-(U1-PD0)*%
X104390000Y-56815000D03*
%TO.P,U1,31,PD1*%
%TO.N,Net-(U1-PD1)*%
X103590000Y-56815000D03*
%TO.P,U1,32,PD2*%
%TO.N,Net-(U1-PD2)*%
X102790000Y-56815000D03*
%TD*%
D27*
%TO.P,L2,1,1*%
%TO.N,Net-(D2-K)*%
X81280000Y-49530000D03*
%TO.P,L2,2,2*%
%TO.N,VDD*%
X81280000Y-41910000D03*
%TD*%
D11*
%TO.P,R15,1*%
%TO.N,VDD*%
X49940000Y-55245000D03*
D12*
%TO.P,R15,2*%
%TO.N,Net-(U5-Vfb)*%
X47400000Y-55245000D03*
%TD*%
D16*
%TO.P,NX4,0,0*%
%TO.N,Net-(U7-~{Q0})*%
X132700020Y-97282000D03*
%TO.P,NX4,1,1*%
%TO.N,Net-(U7-~{Q1})*%
X123337580Y-100599240D03*
%TO.P,NX4,2,2*%
%TO.N,Net-(U7-~{Q2})*%
X121653560Y-97282000D03*
%TO.P,NX4,3,3*%
%TO.N,Net-(U7-~{Q3})*%
X121526560Y-92783660D03*
%TO.P,NX4,4,4*%
%TO.N,Net-(U7-~{Q4})*%
X121653560Y-88285320D03*
%TO.P,NX4,5,5*%
%TO.N,Net-(U7-~{Q5})*%
X123337580Y-84968080D03*
%TO.P,NX4,6,6*%
%TO.N,Net-(U7-~{Q6})*%
X127335540Y-83967320D03*
%TO.P,NX4,7,7*%
%TO.N,Net-(U7-~{Q7})*%
X131333500Y-84968080D03*
%TO.P,NX4,8,8*%
%TO.N,Net-(U7-~{Q8})*%
X132700020Y-88285320D03*
%TO.P,NX4,9,9*%
%TO.N,Net-(U7-~{Q9})*%
X132827020Y-92783660D03*
%TO.P,NX4,A,A*%
%TO.N,Net-(NX4-PadA)*%
X131333500Y-100599240D03*
%TO.P,NX4,LHDP*%
%TO.N,N/C*%
X127335540Y-101600000D03*
%TD*%
D13*
%TO.P,U8,1,~{Q8}*%
%TO.N,Net-(U8-~{Q8})*%
X59690000Y-70485000D03*
D12*
%TO.P,U8,2,~{Q9}*%
%TO.N,Net-(U8-~{Q9})*%
X57150000Y-70485000D03*
%TO.P,U8,3,A*%
%TO.N,Net-(U13-QA)*%
X54610000Y-70485000D03*
%TO.P,U8,4,D*%
%TO.N,Net-(U13-QD)*%
X52070000Y-70485000D03*
%TO.P,U8,5,VCC*%
%TO.N,VDD*%
X49530000Y-70485000D03*
%TO.P,U8,6,B*%
%TO.N,Net-(U13-QB)*%
X46990000Y-70485000D03*
%TO.P,U8,7,C*%
%TO.N,Net-(U13-QC)*%
X44450000Y-70485000D03*
%TO.P,U8,8,~{Q2}*%
%TO.N,Net-(U8-~{Q2})*%
X41910000Y-70485000D03*
%TO.P,U8,9,~{Q3}*%
%TO.N,Net-(U8-~{Q3})*%
X41910000Y-78105000D03*
%TO.P,U8,10,~{Q7}*%
%TO.N,Net-(U8-~{Q7})*%
X44450000Y-78105000D03*
%TO.P,U8,11,~{Q6}*%
%TO.N,Net-(U8-~{Q6})*%
X46990000Y-78105000D03*
%TO.P,U8,12,GND*%
%TO.N,GND*%
X49530000Y-78105000D03*
%TO.P,U8,13,~{Q4}*%
%TO.N,Net-(U8-~{Q4})*%
X52070000Y-78105000D03*
%TO.P,U8,14,~{Q5}*%
%TO.N,Net-(U8-~{Q5})*%
X54610000Y-78105000D03*
%TO.P,U8,15,~{Q1}*%
%TO.N,Net-(U8-~{Q1})*%
X57150000Y-78105000D03*
%TO.P,U8,16,~{Q0}*%
%TO.N,Net-(U8-~{Q0})*%
X59690000Y-78105000D03*
%TD*%
D21*
%TO.P,J5,1,Pin_1*%
%TO.N,Net-(J5-Pin_1)*%
X103505000Y-40645000D03*
D22*
%TO.P,J5,2,Pin_2*%
%TO.N,GND*%
X103505000Y-38105000D03*
%TD*%
D16*
%TO.P,NX2,0,0*%
%TO.N,Net-(U10-~{Q0})*%
X81246980Y-97282000D03*
%TO.P,NX2,1,1*%
%TO.N,Net-(U10-~{Q1})*%
X71884540Y-100599240D03*
%TO.P,NX2,2,2*%
%TO.N,Net-(U10-~{Q2})*%
X70200520Y-97282000D03*
%TO.P,NX2,3,3*%
%TO.N,Net-(U10-~{Q3})*%
X70073520Y-92783660D03*
%TO.P,NX2,4,4*%
%TO.N,Net-(U10-~{Q4})*%
X70200520Y-88285320D03*
%TO.P,NX2,5,5*%
%TO.N,Net-(U10-~{Q5})*%
X71884540Y-84968080D03*
%TO.P,NX2,6,6*%
%TO.N,Net-(U10-~{Q6})*%
X75882500Y-83967320D03*
%TO.P,NX2,7,7*%
%TO.N,Net-(U10-~{Q7})*%
X79880460Y-84968080D03*
%TO.P,NX2,8,8*%
%TO.N,Net-(U10-~{Q8})*%
X81246980Y-88285320D03*
%TO.P,NX2,9,9*%
%TO.N,Net-(U10-~{Q9})*%
X81373980Y-92783660D03*
%TO.P,NX2,A,A*%
%TO.N,Net-(NX2-PadA)*%
X79880460Y-100599240D03*
%TO.P,NX2,LHDP*%
%TO.N,N/C*%
X75882500Y-101600000D03*
%TD*%
D13*
%TO.P,U12,1,~{Q8}*%
%TO.N,Net-(U12-~{Q8})*%
X189230000Y-70485000D03*
D12*
%TO.P,U12,2,~{Q9}*%
%TO.N,Net-(U12-~{Q9})*%
X186690000Y-70485000D03*
%TO.P,U12,3,A*%
%TO.N,Net-(U12-A)*%
X184150000Y-70485000D03*
%TO.P,U12,4,D*%
%TO.N,Net-(U12-D)*%
X181610000Y-70485000D03*
%TO.P,U12,5,VCC*%
%TO.N,VDD*%
X179070000Y-70485000D03*
%TO.P,U12,6,B*%
%TO.N,Net-(U12-B)*%
X176530000Y-70485000D03*
%TO.P,U12,7,C*%
%TO.N,Net-(U12-C)*%
X173990000Y-70485000D03*
%TO.P,U12,8,~{Q2}*%
%TO.N,Net-(U12-~{Q2})*%
X171450000Y-70485000D03*
%TO.P,U12,9,~{Q3}*%
%TO.N,Net-(U12-~{Q3})*%
X171450000Y-78105000D03*
%TO.P,U12,10,~{Q7}*%
%TO.N,Net-(U12-~{Q7})*%
X173990000Y-78105000D03*
%TO.P,U12,11,~{Q6}*%
%TO.N,Net-(U12-~{Q6})*%
X176530000Y-78105000D03*
%TO.P,U12,12,GND*%
%TO.N,GND*%
X179070000Y-78105000D03*
%TO.P,U12,13,~{Q4}*%
%TO.N,Net-(U12-~{Q4})*%
X181610000Y-78105000D03*
%TO.P,U12,14,~{Q5}*%
%TO.N,Net-(U12-~{Q5})*%
X184150000Y-78105000D03*
%TO.P,U12,15,~{Q1}*%
%TO.N,Net-(U12-~{Q1})*%
X186690000Y-78105000D03*
%TO.P,U12,16,~{Q0}*%
%TO.N,Net-(U12-~{Q0})*%
X189230000Y-78105000D03*
%TD*%
D21*
%TO.P,J8,1,Pin_1*%
%TO.N,Net-(J8-Pin_1)*%
X114935000Y-40645000D03*
D22*
%TO.P,J8,2,Pin_2*%
%TO.N,GND*%
X114935000Y-38105000D03*
%TD*%
D28*
%TO.P,J2,1*%
%TO.N,VCC*%
X47625000Y-49180000D03*
D29*
%TO.P,J2,2*%
%TO.N,GND*%
X47625000Y-43180000D03*
D30*
%TO.P,J2,3*%
%TO.N,N/C*%
X42925000Y-46180000D03*
%TD*%
D11*
%TO.P,R16,1*%
%TO.N,Net-(U5-Vfb)*%
X47625000Y-58420000D03*
D12*
%TO.P,R16,2*%
%TO.N,GND*%
X50165000Y-58420000D03*
%TD*%
D11*
%TO.P,C4,1*%
%TO.N,Net-(U5-TC)*%
X57150000Y-49490000D03*
%TO.P,C4,2*%
%TO.N,GND*%
X57150000Y-44490000D03*
%TD*%
D13*
%TO.P,C3,1*%
%TO.N,Net-(D1-K)*%
X187325000Y-58557349D03*
D11*
%TO.P,C3,2*%
%TO.N,GND*%
X187325000Y-63557349D03*
%TD*%
%TO.P,R17,1*%
%TO.N,Net-(U1-PB1)*%
X159385000Y-51025000D03*
D12*
%TO.P,R17,2*%
%TO.N,VDD*%
X159385000Y-53565000D03*
%TD*%
D31*
%TO.P,R19,1*%
%TO.N,Net-(U6-USBDM)*%
X128905000Y-39370000D03*
D32*
%TO.P,R19,2*%
%TO.N,Net-(J1-D-)*%
X128905000Y-36830000D03*
%TD*%
D33*
%TO.P,U6,1,~{DTR}*%
%TO.N,unconnected-(U6-~{DTR}-Pad1)*%
X124460000Y-48260000D03*
%TO.P,U6,2,~{RTS}*%
%TO.N,Net-(U1-PD2)*%
X125095000Y-48260000D03*
%TO.P,U6,3,VCCIO*%
%TO.N,VDD*%
X125730000Y-48260000D03*
%TO.P,U6,4,RXD*%
%TO.N,Net-(U1-PD1)*%
X126365000Y-48260000D03*
%TO.P,U6,5,~{RI}*%
%TO.N,unconnected-(U6-~{RI}-Pad5)*%
X127000000Y-48260000D03*
%TO.P,U6,6,GND*%
%TO.N,GND*%
X127635000Y-48260000D03*
%TO.P,U6,7,~{DSR}*%
X128270000Y-48260000D03*
%TO.P,U6,8,~{DCD}*%
X128905000Y-48260000D03*
%TO.P,U6,9,~{CTS}*%
X129540000Y-48260000D03*
%TO.P,U6,10,CBUS2*%
%TO.N,unconnected-(U6-CBUS2-Pad10)*%
X130175000Y-48260000D03*
D34*
%TO.P,U6,11,USBDP*%
%TO.N,Net-(U6-USBDP)*%
X130175000Y-43320000D03*
%TO.P,U6,12,USBDM*%
%TO.N,Net-(U6-USBDM)*%
X129540000Y-43320000D03*
%TO.P,U6,13,3V3OUT*%
%TO.N,unconnected-(U6-3V3OUT-Pad13)*%
X128905000Y-43320000D03*
%TO.P,U6,14,~{RESET}*%
%TO.N,VDD*%
X128270000Y-43320000D03*
%TO.P,U6,15,VCC*%
X127635000Y-43320000D03*
%TO.P,U6,16,GND*%
%TO.N,GND*%
X127000000Y-43320000D03*
%TO.P,U6,17,CBUS1*%
%TO.N,unconnected-(U6-CBUS1-Pad17)*%
X126365000Y-43320000D03*
%TO.P,U6,18,CBUS0*%
%TO.N,unconnected-(U6-CBUS0-Pad18)*%
X125730000Y-43320000D03*
%TO.P,U6,19,CBUS3*%
%TO.N,unconnected-(U6-CBUS3-Pad19)*%
X125095000Y-43320000D03*
%TO.P,U6,20,TXD*%
%TO.N,Net-(U1-PD0)*%
X124460000Y-43320000D03*
%TD*%
D21*
%TO.P,J1,1,VBUS*%
%TO.N,unconnected-(J1-VBUS-Pad1)*%
X140050000Y-50430000D03*
D35*
%TO.P,J1,2,D-*%
%TO.N,Net-(J1-D-)*%
X142550000Y-50430000D03*
%TO.P,J1,3,D+*%
%TO.N,Net-(J1-D+)*%
X142550000Y-48430000D03*
%TO.P,J1,4,GND*%
%TO.N,GND*%
X140050000Y-48430000D03*
D36*
%TO.P,J1,5,Shield*%
X135280000Y-45720000D03*
X147320000Y-45720000D03*
%TD*%
D37*
%TO.P,U2,1,GND*%
%TO.N,GND*%
X163144200Y-50165000D03*
%TO.P,U2,2,VDD*%
%TO.N,VCC*%
X163144200Y-51115001D03*
%TO.P,U2,3,IN*%
%TO.N,Net-(U1-PB1)*%
X163144200Y-52065002D03*
%TO.P,U2,4,GND*%
%TO.N,GND*%
X165735000Y-52065002D03*
%TO.P,U2,5,\u002AOUT*%
%TO.N,Net-(Q1-G)*%
X165735000Y-50165000D03*
%TD*%
D13*
%TO.P,U13,1,QB*%
%TO.N,Net-(U13-QB)*%
X55245000Y-66040000D03*
D12*
%TO.P,U13,2,QC*%
%TO.N,Net-(U13-QC)*%
X57785000Y-66040000D03*
%TO.P,U13,3,QD*%
%TO.N,Net-(U13-QD)*%
X60325000Y-66040000D03*
%TO.P,U13,4,QE*%
%TO.N,Net-(U10-A)*%
X62865000Y-66040000D03*
%TO.P,U13,5,QF*%
%TO.N,Net-(U10-B)*%
X65405000Y-66040000D03*
%TO.P,U13,6,QG*%
%TO.N,Net-(U10-C)*%
X67945000Y-66040000D03*
%TO.P,U13,7,QH*%
%TO.N,Net-(U10-D)*%
X70485000Y-66040000D03*
%TO.P,U13,8,GND*%
%TO.N,GND*%
X73025000Y-66040000D03*
%TO.P,U13,9,QH'*%
%TO.N,Net-(U13-QH')*%
X73025000Y-58420000D03*
%TO.P,U13,10,~{SRCLR}*%
%TO.N,VDD*%
X70485000Y-58420000D03*
%TO.P,U13,11,SRCLK*%
%TO.N,Net-(U1-PC5)*%
X67945000Y-58420000D03*
%TO.P,U13,12,RCLK*%
%TO.N,Net-(U1-PD3)*%
X65405000Y-58420000D03*
%TO.P,U13,13,~{OE}*%
%TO.N,GND*%
X62865000Y-58420000D03*
%TO.P,U13,14,SER*%
%TO.N,Net-(U1-PC4)*%
X60325000Y-58420000D03*
%TO.P,U13,15,QA*%
%TO.N,Net-(U13-QA)*%
X57785000Y-58420000D03*
%TO.P,U13,16,VCC*%
%TO.N,VDD*%
X55245000Y-58420000D03*
%TD*%
D13*
%TO.P,C8,1*%
%TO.N,Net-(J1-D-)*%
X151805000Y-44450000D03*
D11*
%TO.P,C8,2*%
%TO.N,GND*%
X154305000Y-44450000D03*
%TD*%
%TO.P,R5,1*%
%TO.N,Net-(NE2-Pad1)*%
X93980000Y-104140000D03*
D12*
%TO.P,R5,2*%
%TO.N,Net-(D1-K)*%
X96520000Y-104140000D03*
%TD*%
D11*
%TO.P,C6,1*%
%TO.N,GND*%
X90170000Y-68540000D03*
%TO.P,C6,2*%
%TO.N,Net-(U1-XTAL2{slash}PB7)*%
X90170000Y-63540000D03*
%TD*%
D13*
%TO.P,C5,1*%
%TO.N,VDD*%
X94695000Y-40640000D03*
D11*
%TO.P,C5,2*%
%TO.N,GND*%
X99695000Y-40640000D03*
%TD*%
D31*
%TO.P,R1,1*%
%TO.N,VDD*%
X112745000Y-63510000D03*
D32*
%TO.P,R1,2*%
%TO.N,Net-(J9-~{RST})*%
X114645000Y-63510000D03*
%TD*%
D17*
%TO.P,NE2,1*%
%TO.N,Net-(NE2-Pad1)*%
X88900000Y-96520000D03*
D18*
%TO.P,NE2,2*%
%TO.N,GND*%
X91440000Y-96520000D03*
%TD*%
D16*
%TO.P,NX6,0,0*%
%TO.N,Net-(U12-~{Q0})*%
X186323480Y-97282000D03*
%TO.P,NX6,1,1*%
%TO.N,Net-(U12-~{Q1})*%
X176961040Y-100599240D03*
%TO.P,NX6,2,2*%
%TO.N,Net-(U12-~{Q2})*%
X175277020Y-97282000D03*
%TO.P,NX6,3,3*%
%TO.N,Net-(U12-~{Q3})*%
X175150020Y-92783660D03*
%TO.P,NX6,4,4*%
%TO.N,Net-(U12-~{Q4})*%
X175277020Y-88285320D03*
%TO.P,NX6,5,5*%
%TO.N,Net-(U12-~{Q5})*%
X176961040Y-84968080D03*
%TO.P,NX6,6,6*%
%TO.N,Net-(U12-~{Q6})*%
X180959000Y-83967320D03*
%TO.P,NX6,7,7*%
%TO.N,Net-(U12-~{Q7})*%
X184956960Y-84968080D03*
%TO.P,NX6,8,8*%
%TO.N,Net-(U12-~{Q8})*%
X186323480Y-88285320D03*
%TO.P,NX6,9,9*%
%TO.N,Net-(U12-~{Q9})*%
X186450480Y-92783660D03*
%TO.P,NX6,A,A*%
%TO.N,Net-(NX6-PadA)*%
X184956960Y-100599240D03*
%TO.P,NX6,LHDP*%
%TO.N,N/C*%
X180959000Y-101600000D03*
%TD*%
D21*
%TO.P,J9,1,MISO*%
%TO.N,Net-(J9-MISO)*%
X81900000Y-59065000D03*
D22*
%TO.P,J9,2,VCC*%
%TO.N,VDD*%
X84440000Y-59065000D03*
%TO.P,J9,3,SCK*%
%TO.N,Net-(J9-SCK)*%
X81900000Y-61605000D03*
%TO.P,J9,4,MOSI*%
%TO.N,Net-(J9-MOSI)*%
X84440000Y-61605000D03*
%TO.P,J9,5,~{RST}*%
%TO.N,Net-(J9-~{RST})*%
X81900000Y-64145000D03*
%TO.P,J9,6,GND*%
%TO.N,GND*%
X84440000Y-64145000D03*
%TD*%
D11*
%TO.P,C7,1*%
%TO.N,GND*%
X90170000Y-55920000D03*
%TO.P,C7,2*%
%TO.N,Net-(U1-XTAL1{slash}PB6)*%
X90170000Y-60920000D03*
%TD*%
D16*
%TO.P,NX1,0,0*%
%TO.N,Net-(U8-~{Q0})*%
X57196980Y-97282000D03*
%TO.P,NX1,1,1*%
%TO.N,Net-(U8-~{Q1})*%
X47834540Y-100599240D03*
%TO.P,NX1,2,2*%
%TO.N,Net-(U8-~{Q2})*%
X46150520Y-97282000D03*
%TO.P,NX1,3,3*%
%TO.N,Net-(U8-~{Q3})*%
X46023520Y-92783660D03*
%TO.P,NX1,4,4*%
%TO.N,Net-(U8-~{Q4})*%
X46150520Y-88285320D03*
%TO.P,NX1,5,5*%
%TO.N,Net-(U8-~{Q5})*%
X47834540Y-84968080D03*
%TO.P,NX1,6,6*%
%TO.N,Net-(U8-~{Q6})*%
X51832500Y-83967320D03*
%TO.P,NX1,7,7*%
%TO.N,Net-(U8-~{Q7})*%
X55830460Y-84968080D03*
%TO.P,NX1,8,8*%
%TO.N,Net-(U8-~{Q8})*%
X57196980Y-88285320D03*
%TO.P,NX1,9,9*%
%TO.N,Net-(U8-~{Q9})*%
X57323980Y-92783660D03*
%TO.P,NX1,A,A*%
%TO.N,Net-(NX1-PadA)*%
X55830460Y-100599240D03*
%TO.P,NX1,LHDP*%
%TO.N,N/C*%
X51832500Y-101600000D03*
%TD*%
D13*
%TO.P,C14,1*%
%TO.N,VCC*%
X167640000Y-39965000D03*
D11*
%TO.P,C14,2*%
%TO.N,GND*%
X167640000Y-37465000D03*
%TD*%
D21*
%TO.P,J6,1,Pin_1*%
%TO.N,Net-(J6-Pin_1)*%
X107315000Y-40645000D03*
D22*
%TO.P,J6,2,Pin_2*%
%TO.N,GND*%
X107315000Y-38105000D03*
%TD*%
D11*
%TO.P,R2,1*%
%TO.N,Net-(D1-K)*%
X189640000Y-67310000D03*
D12*
%TO.P,R2,2*%
%TO.N,Net-(U1-ADC6)*%
X187100000Y-67310000D03*
%TD*%
D13*
%TO.P,U5,1,SwC*%
%TO.N,Net-(U5-DC)*%
X69215000Y-43180000D03*
D12*
%TO.P,U5,2,SwE*%
%TO.N,Net-(D2-K)*%
X66675000Y-43180000D03*
%TO.P,U5,3,TC*%
%TO.N,Net-(U5-TC)*%
X64135000Y-43180000D03*
%TO.P,U5,4,GND*%
%TO.N,GND*%
X61595000Y-43180000D03*
%TO.P,U5,5,Vfb*%
%TO.N,Net-(U5-Vfb)*%
X61595000Y-50800000D03*
%TO.P,U5,6,Vin*%
%TO.N,VCC*%
X64135000Y-50800000D03*
%TO.P,U5,7,Ipk*%
%TO.N,Net-(U5-DC)*%
X66675000Y-50800000D03*
%TO.P,U5,8,DC*%
X69215000Y-50800000D03*
%TD*%
D11*
%TO.P,R7,1*%
%TO.N,Net-(NX3-PadA)*%
X111760000Y-103505000D03*
D12*
%TO.P,R7,2*%
%TO.N,Net-(D1-K)*%
X114300000Y-103505000D03*
%TD*%
D31*
%TO.P,R18,1*%
%TO.N,Net-(U6-USBDP)*%
X131445000Y-39370000D03*
D32*
%TO.P,R18,2*%
%TO.N,Net-(J1-D+)*%
X131445000Y-36830000D03*
%TD*%
D11*
%TO.P,R11,1*%
%TO.N,Net-(NX1-PadA)*%
X60960000Y-104140000D03*
D12*
%TO.P,R11,2*%
%TO.N,Net-(D1-K)*%
X63500000Y-104140000D03*
%TD*%
D13*
%TO.P,C10,1*%
%TO.N,VDD*%
X118150000Y-44450000D03*
D11*
%TO.P,C10,2*%
%TO.N,GND*%
X120650000Y-44450000D03*
%TD*%
%TO.P,R9,1*%
%TO.N,Net-(NX5-PadA)*%
X165735000Y-104140000D03*
D12*
%TO.P,R9,2*%
%TO.N,Net-(D1-K)*%
X168275000Y-104140000D03*
%TD*%
D17*
%TO.P,NE3,1*%
%TO.N,Net-(NE3-Pad1)*%
X142240000Y-88900000D03*
D18*
%TO.P,NE3,2*%
%TO.N,GND*%
X144780000Y-88900000D03*
%TD*%
D13*
%TO.P,C13,1*%
%TO.N,VCC*%
X158195000Y-41910000D03*
D11*
%TO.P,C13,2*%
%TO.N,GND*%
X163195000Y-41910000D03*
%TD*%
D27*
%TO.P,L1,1,1*%
%TO.N,VCC*%
X184785000Y-40005000D03*
%TO.P,L1,2,2*%
%TO.N,Net-(D1-A)*%
X184785000Y-47625000D03*
%TD*%
D11*
%TO.P,R6,1*%
%TO.N,Net-(NX2-PadA)*%
X83185000Y-104140000D03*
D12*
%TO.P,R6,2*%
%TO.N,Net-(D1-K)*%
X85725000Y-104140000D03*
%TD*%
D16*
%TO.P,NX5,0,0*%
%TO.N,Net-(U9-~{Q0})*%
X163446460Y-97282000D03*
%TO.P,NX5,1,1*%
%TO.N,Net-(U9-~{Q1})*%
X154084020Y-100599240D03*
%TO.P,NX5,2,2*%
%TO.N,Net-(U9-~{Q2})*%
X152400000Y-97282000D03*
%TO.P,NX5,3,3*%
%TO.N,Net-(U9-~{Q3})*%
X152273000Y-92783660D03*
%TO.P,NX5,4,4*%
%TO.N,Net-(U9-~{Q4})*%
X152400000Y-88285320D03*
%TO.P,NX5,5,5*%
%TO.N,Net-(U9-~{Q5})*%
X154084020Y-84968080D03*
%TO.P,NX5,6,6*%
%TO.N,Net-(U9-~{Q6})*%
X158081980Y-83967320D03*
%TO.P,NX5,7,7*%
%TO.N,Net-(U9-~{Q7})*%
X162079940Y-84968080D03*
%TO.P,NX5,8,8*%
%TO.N,Net-(U9-~{Q8})*%
X163446460Y-88285320D03*
%TO.P,NX5,9,9*%
%TO.N,Net-(U9-~{Q9})*%
X163573460Y-92783660D03*
%TO.P,NX5,A,A*%
%TO.N,Net-(NX5-PadA)*%
X162079940Y-100599240D03*
%TO.P,NX5,LHDP*%
%TO.N,N/C*%
X158081980Y-101600000D03*
%TD*%
D13*
%TO.P,U15,1,QB*%
%TO.N,Net-(U15-QB)*%
X159370000Y-66050000D03*
D12*
%TO.P,U15,2,QC*%
%TO.N,Net-(U15-QC)*%
X161910000Y-66050000D03*
%TO.P,U15,3,QD*%
%TO.N,Net-(U15-QD)*%
X164450000Y-66050000D03*
%TO.P,U15,4,QE*%
%TO.N,Net-(U12-A)*%
X166990000Y-66050000D03*
%TO.P,U15,5,QF*%
%TO.N,Net-(U12-B)*%
X169530000Y-66050000D03*
%TO.P,U15,6,QG*%
%TO.N,Net-(U12-C)*%
X172070000Y-66050000D03*
%TO.P,U15,7,QH*%
%TO.N,Net-(U12-D)*%
X174610000Y-66050000D03*
%TO.P,U15,8,GND*%
%TO.N,GND*%
X177150000Y-66050000D03*
%TO.P,U15,9,QH'*%
%TO.N,unconnected-(U15-QH'-Pad9)*%
X177150000Y-58430000D03*
%TO.P,U15,10,~{SRCLR}*%
%TO.N,VDD*%
X174610000Y-58430000D03*
%TO.P,U15,11,SRCLK*%
%TO.N,Net-(U1-PC5)*%
X172070000Y-58430000D03*
%TO.P,U15,12,RCLK*%
%TO.N,Net-(U1-PD3)*%
X169530000Y-58430000D03*
%TO.P,U15,13,~{OE}*%
%TO.N,GND*%
X166990000Y-58430000D03*
%TO.P,U15,14,SER*%
%TO.N,Net-(U14-QH')*%
X164450000Y-58430000D03*
%TO.P,U15,15,QA*%
%TO.N,Net-(U15-QA)*%
X161910000Y-58430000D03*
%TO.P,U15,16,VCC*%
%TO.N,VDD*%
X159370000Y-58430000D03*
%TD*%
D17*
%TO.P,NE4,1*%
%TO.N,Net-(NE4-Pad1)*%
X142240000Y-96520000D03*
D18*
%TO.P,NE4,2*%
%TO.N,GND*%
X144780000Y-96520000D03*
%TD*%
D14*
%TO.P,D1,1,K*%
%TO.N,Net-(D1-K)*%
X190500000Y-52070000D03*
D15*
%TO.P,D1,2,A*%
%TO.N,Net-(D1-A)*%
X177800000Y-52070000D03*
%TD*%
D19*
%TO.P,C2,1*%
%TO.N,Net-(U1-AREF)*%
X117245000Y-53975000D03*
D20*
%TO.P,C2,2*%
%TO.N,GND*%
X118745000Y-53975000D03*
%TD*%
D13*
%TO.P,C12,1*%
%TO.N,VDD*%
X92115000Y-48895000D03*
D11*
%TO.P,C12,2*%
%TO.N,GND*%
X94615000Y-48895000D03*
%TD*%
D38*
%TO.N,GND*%
X111760000Y-75565000D03*
X109855000Y-75565000D03*
X141605000Y-74930000D03*
X62865000Y-75565000D03*
X163830000Y-74930000D03*
X167640000Y-74930000D03*
X59690000Y-75565000D03*
X125730000Y-45720000D03*
X113665000Y-59690000D03*
X128905000Y-45720000D03*
%TO.N,Net-(U1-PB1)*%
X113665000Y-53424500D03*
X107950000Y-61679500D03*
%TO.N,Net-(U1-ADC6)*%
X142240000Y-67310000D03*
X104140000Y-62923068D03*
X98425000Y-66040000D03*
%TO.N,Net-(J1-D+)*%
X139700000Y-45085000D03*
X142240000Y-42545000D03*
%TO.N,Net-(U1-AREF)*%
X111760000Y-61595000D03*
%TO.N,Net-(U1-PC5)*%
X109855000Y-52070000D03*
X107950000Y-53429500D03*
X107315000Y-55334500D03*
%TO.N,Net-(J5-Pin_1)*%
X97155000Y-57150000D03*
X111760000Y-59690000D03*
%TO.N,Net-(J6-Pin_1)*%
X95885000Y-53885500D03*
X108585000Y-55334500D03*
X52705000Y-57150000D03*
X67945000Y-53340000D03*
%TO.N,Net-(J7-Pin_1)*%
X110490000Y-49530000D03*
X107950000Y-58420000D03*
X104775000Y-55334500D03*
X106045000Y-51435000D03*
%TO.N,Net-(J8-Pin_1)*%
X106680000Y-58965500D03*
X112395000Y-49530000D03*
X103609562Y-55092632D03*
X104775000Y-52615500D03*
%TO.N,VDD*%
X84455000Y-75565000D03*
X103505000Y-72305500D03*
X89535000Y-73660000D03*
X160655000Y-62230000D03*
X82550000Y-75565000D03*
X158750000Y-56515000D03*
X91440000Y-73660000D03*
X74930000Y-74295000D03*
X98742500Y-57785000D03*
%TO.N,Net-(J9-MISO)*%
X111760000Y-65405000D03*
%TO.N,Net-(J9-SCK)*%
X110490000Y-65405000D03*
%TO.N,Net-(J9-MOSI)*%
X106403546Y-63606074D03*
%TO.N,Net-(U1-PD3)*%
X123825000Y-52705000D03*
X165735000Y-60325000D03*
X160020000Y-60325000D03*
X103505000Y-58420000D03*
X111760000Y-53429500D03*
%TO.N,Net-(U1-PC4)*%
X100965000Y-65405000D03*
X104876069Y-63591826D03*
%TO.N,Net-(U1-PD0)*%
X103505000Y-59525500D03*
X97790000Y-55880000D03*
X107315000Y-46355000D03*
X97790000Y-51350500D03*
%TO.N,Net-(U1-PD1)*%
X104775000Y-51435000D03*
X121920000Y-48170500D03*
X122555000Y-49619500D03*
X114935000Y-48260000D03*
%TO.N,Net-(U1-PD2)*%
X113665000Y-46990000D03*
X104775000Y-50165000D03*
%TO.N,Net-(U15-QA)*%
X164465000Y-61595000D03*
%TD*%
D39*
%TO.N,GND*%
X107225000Y-51525000D02*
X104595000Y-48895000D01*
X163805000Y-55245000D02*
X125095000Y-55245000D01*
X118745000Y-53375000D02*
X118420000Y-53050000D01*
D40*
X165735000Y-52065002D02*
X167969998Y-52065002D01*
D39*
X141605000Y-71755000D02*
X137780000Y-67930000D01*
X127620000Y-57795000D02*
X125082500Y-55257500D01*
X118420000Y-53050000D02*
X115860000Y-53050000D01*
X176025000Y-64925000D02*
X177150000Y-66050000D01*
X166990000Y-58430000D02*
X163805000Y-55245000D01*
X112580000Y-54160000D02*
X107655195Y-54160000D01*
X88900000Y-57190000D02*
X88900000Y-64135000D01*
X141605000Y-85725000D02*
X141605000Y-74930000D01*
X73025000Y-66040000D02*
X71900000Y-64915000D01*
X100540000Y-59865000D02*
X101340000Y-59865000D01*
X102870000Y-51435000D02*
X99695000Y-54610000D01*
X109840000Y-60665000D02*
X112690000Y-60665000D01*
X69360000Y-64915000D02*
X62865000Y-58420000D01*
X102870000Y-60735000D02*
X102870000Y-60595000D01*
X128270000Y-48260000D02*
X128270000Y-46355000D01*
X107225000Y-53729805D02*
X107225000Y-51525000D01*
X99695000Y-54610000D02*
X99695000Y-59020000D01*
X177945000Y-76980000D02*
X177945000Y-66845000D01*
X154305000Y-40640000D02*
X154305000Y-38100000D01*
D40*
X163834998Y-50165000D02*
X165735000Y-52065002D01*
D39*
X101340000Y-61465000D02*
X102140000Y-61465000D01*
X102870000Y-60735000D02*
X102940000Y-60665000D01*
X127635000Y-48260000D02*
X127635000Y-46990000D01*
X111760000Y-75565000D02*
X114683234Y-75565000D01*
X88900000Y-64135000D02*
X88900000Y-65405000D01*
X90170000Y-55920000D02*
X88900000Y-57190000D01*
X71900000Y-64915000D02*
X69360000Y-64915000D01*
X102870000Y-60595000D02*
X102140000Y-59865000D01*
D40*
X171775000Y-54935000D02*
X172085000Y-55245000D01*
D39*
X137780000Y-67930000D02*
X137780000Y-65415000D01*
X104775000Y-75565000D02*
X109855000Y-75565000D01*
X118445000Y-70478194D02*
X119708194Y-69215000D01*
X152400000Y-40640000D02*
X154305000Y-40640000D01*
X88900000Y-65405000D02*
X90170000Y-66675000D01*
X112690000Y-60665000D02*
X113665000Y-59690000D01*
X172085000Y-55245000D02*
X163805000Y-55245000D01*
X88890000Y-64145000D02*
X88900000Y-64135000D01*
X114285000Y-55865000D02*
X114285000Y-56525000D01*
X102140000Y-59865000D02*
X101340000Y-59865000D01*
X129540000Y-46355000D02*
X129540000Y-48260000D01*
X123800000Y-53975000D02*
X118745000Y-53975000D01*
X102870000Y-48895000D02*
X102870000Y-51435000D01*
X90170000Y-66675000D02*
X90170000Y-68540000D01*
X115860000Y-53050000D02*
X114750000Y-54160000D01*
X107655195Y-54160000D02*
X107225000Y-53729805D01*
X177945000Y-66845000D02*
X177150000Y-66050000D01*
X102140000Y-61465000D02*
X102870000Y-60735000D01*
D40*
X179012651Y-55245000D02*
X172085000Y-55245000D01*
D39*
X121435000Y-71905000D02*
X127635000Y-78105000D01*
X84440000Y-64145000D02*
X88890000Y-64145000D01*
X147320000Y-45720000D02*
X152400000Y-40640000D01*
X114683234Y-75565000D02*
X118445000Y-71803234D01*
X166990000Y-58430000D02*
X173485000Y-64925000D01*
X129540000Y-48260000D02*
X127635000Y-48260000D01*
X154305000Y-40640000D02*
X154305000Y-44450000D01*
X112580000Y-54160000D02*
X114285000Y-55865000D01*
X99695000Y-59020000D02*
X100540000Y-59865000D01*
X128905000Y-45720000D02*
X128905000Y-48260000D01*
X127000000Y-44450000D02*
X125730000Y-45720000D01*
X179070000Y-78105000D02*
X177945000Y-76980000D01*
X128905000Y-45720000D02*
X129540000Y-46355000D01*
D40*
X167969998Y-52065002D02*
X171775000Y-48260000D01*
D39*
X104595000Y-48895000D02*
X102870000Y-48895000D01*
X76200000Y-67310000D02*
X74930000Y-66040000D01*
X83185000Y-66675000D02*
X82550000Y-67310000D01*
X118745000Y-53975000D02*
X118745000Y-53375000D01*
D40*
X187325000Y-63557349D02*
X179012651Y-55245000D01*
D39*
X125082500Y-55257500D02*
X123800000Y-53975000D01*
X125095000Y-55245000D02*
X125082500Y-55257500D01*
X121435000Y-70028194D02*
X121435000Y-71905000D01*
X163830000Y-74930000D02*
X167640000Y-74930000D01*
X82550000Y-67310000D02*
X76200000Y-67310000D01*
X144780000Y-88900000D02*
X144780000Y-96520000D01*
X127000000Y-43320000D02*
X127000000Y-44450000D01*
X114750000Y-54160000D02*
X112580000Y-54160000D01*
X144780000Y-88900000D02*
X141605000Y-85725000D01*
D40*
X163144200Y-50165000D02*
X163834998Y-50165000D01*
D39*
X127635000Y-46990000D02*
X128905000Y-45720000D01*
X118445000Y-71803234D02*
X118445000Y-70478194D01*
X128270000Y-46355000D02*
X128905000Y-45720000D01*
X102235000Y-78105000D02*
X104775000Y-75565000D01*
X83185000Y-65400000D02*
X83185000Y-66675000D01*
X62865000Y-75565000D02*
X59690000Y-75565000D01*
X119708194Y-69215000D02*
X120621806Y-69215000D01*
X120621806Y-69215000D02*
X121435000Y-70028194D01*
X74930000Y-66040000D02*
X73025000Y-66040000D01*
X141605000Y-74930000D02*
X141605000Y-71755000D01*
X173485000Y-64925000D02*
X176025000Y-64925000D01*
X84440000Y-64145000D02*
X83185000Y-65400000D01*
D40*
X171775000Y-48260000D02*
X171775000Y-54935000D01*
D39*
%TO.N,Net-(U1-PB1)*%
X114270337Y-52605000D02*
X113665000Y-53210337D01*
X159385000Y-51025000D02*
X156620000Y-51025000D01*
X148590000Y-53340000D02*
X148505000Y-53425000D01*
X107230500Y-61679500D02*
X105597548Y-63312452D01*
X120100000Y-53425000D02*
X119280000Y-52605000D01*
X105597548Y-63312452D02*
X105597548Y-64122548D01*
X160425002Y-52065002D02*
X159385000Y-51025000D01*
X154305000Y-53340000D02*
X148590000Y-53340000D01*
X156620000Y-51025000D02*
X154305000Y-53340000D01*
X113665000Y-53210337D02*
X113665000Y-53424500D01*
X160425002Y-52065002D02*
X163144200Y-52065002D01*
X148505000Y-53425000D02*
X120100000Y-53425000D01*
X105597548Y-64122548D02*
X105990000Y-64515000D01*
X107950000Y-61679500D02*
X107230500Y-61679500D01*
X119280000Y-52605000D02*
X114270337Y-52605000D01*
X105990000Y-64515000D02*
X105990000Y-65315000D01*
%TO.N,Net-(D1-K)*%
X87630000Y-106045000D02*
X85725000Y-104140000D01*
X187325000Y-105410000D02*
X186690000Y-106045000D01*
X98425000Y-106045000D02*
X111760000Y-106045000D01*
X127000000Y-103505000D02*
X129540000Y-106045000D01*
X144370000Y-106045000D02*
X141830000Y-103505000D01*
X92710000Y-106045000D02*
X90805000Y-104140000D01*
X114300000Y-103505000D02*
X127000000Y-103505000D01*
X144780000Y-106045000D02*
X144370000Y-106045000D01*
X65405000Y-106045000D02*
X63500000Y-104140000D01*
X147320000Y-103505000D02*
X147320000Y-104775000D01*
X138430000Y-106045000D02*
X136525000Y-104140000D01*
X129540000Y-106045000D02*
X138430000Y-106045000D01*
X144780000Y-106045000D02*
X138430000Y-106045000D01*
X169545000Y-106045000D02*
X148590000Y-106045000D01*
X191135000Y-103505000D02*
X189230000Y-105410000D01*
X148590000Y-106045000D02*
X144780000Y-106045000D01*
X98425000Y-106045000D02*
X96520000Y-104140000D01*
X169545000Y-105410000D02*
X168275000Y-104140000D01*
X147320000Y-104775000D02*
X148590000Y-106045000D01*
X98425000Y-106045000D02*
X92710000Y-106045000D01*
X189230000Y-105410000D02*
X187325000Y-105410000D01*
X92710000Y-106045000D02*
X87630000Y-106045000D01*
X186690000Y-106045000D02*
X169545000Y-106045000D01*
X169545000Y-106045000D02*
X169545000Y-105410000D01*
X87630000Y-106045000D02*
X65405000Y-106045000D01*
X111760000Y-106045000D02*
X114300000Y-103505000D01*
%TO.N,Net-(J9-~{RST})*%
X114935000Y-63220000D02*
X114935000Y-58675000D01*
X112785000Y-56525000D02*
X112785000Y-56270000D01*
X114645000Y-63510000D02*
X114935000Y-63220000D01*
X111125000Y-54610000D02*
X106595000Y-54610000D01*
X106595000Y-54610000D02*
X105190000Y-56015000D01*
X105190000Y-56015000D02*
X105190000Y-56815000D01*
X112785000Y-56270000D02*
X111125000Y-54610000D01*
X114935000Y-58675000D02*
X112785000Y-56525000D01*
%TO.N,Net-(J1-D-)*%
X151805000Y-44450000D02*
X145825000Y-50430000D01*
X142550000Y-50430000D02*
X143725000Y-49255000D01*
X143725000Y-49255000D02*
X143725000Y-47662236D01*
X143725000Y-47662236D02*
X131872868Y-35810104D01*
X131872868Y-35810104D02*
X129924896Y-35810104D01*
X129924896Y-35810104D02*
X128905000Y-36830000D01*
X145825000Y-50430000D02*
X142550000Y-50430000D01*
D40*
%TO.N,VCC*%
X158195000Y-41910000D02*
X160140000Y-39965000D01*
X167005000Y-45361104D02*
X172361104Y-40005000D01*
X125027082Y-52705000D02*
X152400000Y-52705000D01*
X99695000Y-46990000D02*
X104140000Y-46990000D01*
X161925000Y-48260000D02*
X167005000Y-48260000D01*
X160140000Y-39965000D02*
X167640000Y-39965000D01*
X109408045Y-51314873D02*
X109502918Y-51220000D01*
X109502918Y-51220000D02*
X123542082Y-51220000D01*
X160655000Y-49530000D02*
X161925000Y-48260000D01*
X104140000Y-46990000D02*
X108464873Y-51314873D01*
X167005000Y-48260000D02*
X167005000Y-45361104D01*
X61575000Y-48240000D02*
X64135000Y-50800000D01*
X167640000Y-39965000D02*
X172321104Y-39965000D01*
X163144200Y-51115001D02*
X162240001Y-51115001D01*
X61575000Y-48240000D02*
X69195000Y-48240000D01*
X123542082Y-51220000D02*
X125027082Y-52705000D01*
X155575000Y-49530000D02*
X160655000Y-49530000D01*
X152400000Y-52705000D02*
X155575000Y-49530000D01*
X172321104Y-39965000D02*
X172361104Y-40005000D01*
X94615000Y-52070000D02*
X99695000Y-46990000D01*
X69195000Y-48240000D02*
X73025000Y-52070000D01*
X158195000Y-46910000D02*
X155575000Y-49530000D01*
X172361104Y-40005000D02*
X184785000Y-40005000D01*
X47625000Y-49180000D02*
X48565000Y-48240000D01*
X108464873Y-51314873D02*
X109408045Y-51314873D01*
X48565000Y-48240000D02*
X61575000Y-48240000D01*
X158195000Y-41910000D02*
X158195000Y-46910000D01*
X162240001Y-51115001D02*
X160655000Y-49530000D01*
X73025000Y-52070000D02*
X94615000Y-52070000D01*
D39*
%TO.N,Net-(NE1-Pad1)*%
X87630000Y-90170000D02*
X88900000Y-88900000D01*
X87630000Y-90170000D02*
X87630000Y-103505000D01*
X87630000Y-103505000D02*
X88265000Y-104140000D01*
%TO.N,Net-(NE2-Pad1)*%
X93980000Y-101600000D02*
X93980000Y-104140000D01*
X88900000Y-96520000D02*
X93980000Y-101600000D01*
%TO.N,Net-(NE3-Pad1)*%
X139290000Y-103505000D02*
X139290000Y-91850000D01*
X139290000Y-91850000D02*
X142240000Y-88900000D01*
%TO.N,Net-(NE4-Pad1)*%
X142240000Y-96520000D02*
X142240000Y-100965000D01*
X142240000Y-100965000D02*
X144780000Y-103505000D01*
%TO.N,Net-(NX1-PadA)*%
X55830460Y-100599240D02*
X59371220Y-104140000D01*
X59371220Y-104140000D02*
X60960000Y-104140000D01*
%TO.N,Net-(NX2-PadA)*%
X79880460Y-100835460D02*
X79880460Y-100599240D01*
X83185000Y-104140000D02*
X79880460Y-100835460D01*
%TO.N,Net-(NX4-PadA)*%
X131333500Y-101488500D02*
X131333500Y-100599240D01*
X133985000Y-104140000D02*
X131333500Y-101488500D01*
%TO.N,Net-(NX5-PadA)*%
X162194240Y-100599240D02*
X162079940Y-100599240D01*
X165735000Y-104140000D02*
X162194240Y-100599240D01*
%TO.N,Net-(NX6-PadA)*%
X185279240Y-100599240D02*
X184956960Y-100599240D01*
X188185000Y-103505000D02*
X185279240Y-100599240D01*
D40*
%TO.N,Net-(Q1-G)*%
X170326223Y-44628777D02*
X171775000Y-43180000D01*
X170326223Y-46234177D02*
X170326223Y-44628777D01*
X165735000Y-50165000D02*
X166395400Y-50165000D01*
X166395400Y-50165000D02*
X170326223Y-46234177D01*
D39*
%TO.N,Net-(U1-ADC6)*%
X128760000Y-70943878D02*
X128760000Y-70026122D01*
X103360000Y-69996396D02*
X104776396Y-68580000D01*
X95795000Y-68279695D02*
X95795000Y-68880305D01*
X125538878Y-64290000D02*
X126205000Y-64956122D01*
X114775380Y-68580000D02*
X119065380Y-64290000D01*
X133825000Y-65873878D02*
X133825000Y-64956122D01*
X133825000Y-64956122D02*
X134491122Y-64290000D01*
X103360000Y-70943878D02*
X103360000Y-69996396D01*
X128093878Y-71610000D02*
X128760000Y-70943878D01*
X134491122Y-64290000D02*
X139220000Y-64290000D01*
X98034695Y-66040000D02*
X95795000Y-68279695D01*
X123680000Y-68398878D02*
X123680000Y-70653878D01*
X99236122Y-71610000D02*
X102693878Y-71610000D01*
X104776396Y-68580000D02*
X114775380Y-68580000D01*
X123680000Y-70653878D02*
X124636122Y-71610000D01*
X98570000Y-70943878D02*
X99236122Y-71610000D01*
X102693878Y-71610000D02*
X103360000Y-70943878D01*
X128760000Y-70026122D02*
X132246122Y-66540000D01*
X108720000Y-61145000D02*
X108720000Y-61872548D01*
X124636122Y-71610000D02*
X128093878Y-71610000D01*
X126205000Y-65873878D02*
X123680000Y-68398878D01*
X132246122Y-66540000D02*
X133158878Y-66540000D01*
X96219695Y-69305000D02*
X97848878Y-69305000D01*
X108720000Y-61872548D02*
X109112452Y-62265000D01*
X98034695Y-66040000D02*
X98425000Y-66040000D01*
X108535000Y-60960000D02*
X108720000Y-61145000D01*
X119065380Y-64290000D02*
X125538878Y-64290000D01*
X98570000Y-70026122D02*
X98570000Y-70943878D01*
X106103068Y-60960000D02*
X108535000Y-60960000D01*
X133158878Y-66540000D02*
X133825000Y-65873878D01*
X139220000Y-64290000D02*
X142240000Y-67310000D01*
X95795000Y-68880305D02*
X96219695Y-69305000D01*
X97848878Y-69305000D02*
X98570000Y-70026122D01*
X104140000Y-62923068D02*
X106103068Y-60960000D01*
X126205000Y-64956122D02*
X126205000Y-65873878D01*
X109112452Y-62265000D02*
X109840000Y-62265000D01*
%TO.N,Net-(U5-Vfb)*%
X51845000Y-50800000D02*
X61595000Y-50800000D01*
X47400000Y-55245000D02*
X51845000Y-50800000D01*
%TO.N,Net-(J1-D+)*%
X131445000Y-36830000D02*
X139700000Y-45085000D01*
X146685000Y-38100000D02*
X151805000Y-38100000D01*
X139700000Y-45085000D02*
X142550000Y-47935000D01*
X142550000Y-47935000D02*
X142550000Y-48430000D01*
X142240000Y-42545000D02*
X146685000Y-38100000D01*
%TO.N,Net-(U1-AREF)*%
X109970000Y-61595000D02*
X109840000Y-61465000D01*
X111760000Y-61595000D02*
X109970000Y-61595000D01*
%TO.N,Net-(U1-PC5)*%
X109855000Y-53340000D02*
X107950000Y-53340000D01*
X109855000Y-52070000D02*
X109855000Y-53340000D01*
X106670500Y-55334500D02*
X105990000Y-56015000D01*
X107315000Y-55334500D02*
X106670500Y-55334500D01*
X105990000Y-56015000D02*
X105990000Y-56815000D01*
X107950000Y-53340000D02*
X107950000Y-53429500D01*
%TO.N,Net-(J5-Pin_1)*%
X46941122Y-56370000D02*
X45550000Y-54978878D01*
X97155000Y-56515000D02*
X94985000Y-54345000D01*
X48525000Y-55703878D02*
X47858878Y-56370000D01*
X109840000Y-59065000D02*
X111135000Y-59065000D01*
X45550000Y-47295380D02*
X46490380Y-46355000D01*
X111135000Y-59065000D02*
X111760000Y-59690000D01*
X60470000Y-51258878D02*
X52052244Y-51258878D01*
X48525000Y-54786122D02*
X48525000Y-55703878D01*
X86920380Y-46355000D02*
X93905380Y-39370000D01*
X97155000Y-57150000D02*
X97155000Y-56515000D01*
X63556122Y-54345000D02*
X60470000Y-51258878D01*
X94985000Y-54345000D02*
X63556122Y-54345000D01*
X52052244Y-51258878D02*
X48525000Y-54786122D01*
X102230000Y-39370000D02*
X103505000Y-40645000D01*
X46490380Y-46355000D02*
X86920380Y-46355000D01*
X45550000Y-54978878D02*
X45550000Y-47295380D01*
X93905380Y-39370000D02*
X102230000Y-39370000D01*
X47858878Y-56370000D02*
X46941122Y-56370000D01*
%TO.N,Net-(J6-Pin_1)*%
X67945000Y-53340000D02*
X68500000Y-53895000D01*
X102966396Y-39470000D02*
X102416396Y-38920000D01*
X109840000Y-56589500D02*
X109840000Y-58265000D01*
X60405000Y-45165000D02*
X57150000Y-41910000D01*
X50800000Y-45165000D02*
X47043984Y-45165000D01*
X106140000Y-39470000D02*
X102966396Y-39470000D01*
X86995000Y-45165000D02*
X60405000Y-45165000D01*
X47043984Y-45165000D02*
X45085000Y-47123984D01*
X47021122Y-57150000D02*
X52705000Y-57150000D01*
X102416396Y-38920000D02*
X93240000Y-38920000D01*
X71755000Y-53895000D02*
X95805000Y-53895000D01*
X95814500Y-53885500D02*
X95885000Y-53885500D01*
X57150000Y-41910000D02*
X54055000Y-41910000D01*
X93240000Y-38920000D02*
X86995000Y-45165000D01*
X45085000Y-55213878D02*
X47021122Y-57150000D01*
X45085000Y-47123984D02*
X45085000Y-55213878D01*
X54055000Y-41910000D02*
X50800000Y-45165000D01*
X107315000Y-40645000D02*
X106140000Y-39470000D01*
X95805000Y-53895000D02*
X95814500Y-53885500D01*
X108585000Y-55334500D02*
X109840000Y-56589500D01*
X68500000Y-53895000D02*
X71755000Y-53895000D01*
%TO.N,Net-(J7-Pin_1)*%
X108390000Y-57980000D02*
X108390000Y-56815000D01*
X107950000Y-58420000D02*
X108390000Y-57980000D01*
X111125000Y-48895000D02*
X110490000Y-49530000D01*
X106045000Y-51435000D02*
X106045000Y-54064500D01*
X111125000Y-40640000D02*
X111125000Y-48895000D01*
X106045000Y-54064500D02*
X104775000Y-55334500D01*
%TO.N,Net-(J8-Pin_1)*%
X112395000Y-49530000D02*
X112395000Y-43185000D01*
X106680000Y-58965500D02*
X106680000Y-58459620D01*
X103609562Y-53780938D02*
X103609562Y-55092632D01*
X114935000Y-40645000D02*
X112395000Y-43185000D01*
X107590000Y-57549620D02*
X107590000Y-56815000D01*
X106680000Y-58459620D02*
X107590000Y-57549620D01*
X104775000Y-52615500D02*
X103609562Y-53780938D01*
%TO.N,VDD*%
X125730000Y-47250184D02*
X125730000Y-48260000D01*
X109164872Y-50744872D02*
X100185000Y-41765000D01*
X76200000Y-75565000D02*
X82550000Y-75565000D01*
X120000000Y-57795000D02*
X120000000Y-59602764D01*
X84455000Y-75565000D02*
X87630000Y-75565000D01*
X70485000Y-58420000D02*
X70485000Y-56700000D01*
X62715000Y-43023194D02*
X62715000Y-43636806D01*
X120590000Y-42010000D02*
X127334816Y-42010000D01*
X135240000Y-57795000D02*
X131808618Y-61226382D01*
X74930000Y-74295000D02*
X76200000Y-75565000D01*
X150640000Y-70943878D02*
X150640000Y-69705000D01*
X157635000Y-56670000D02*
X136365000Y-56670000D01*
X106140000Y-66580000D02*
X112249896Y-66580000D01*
X55245000Y-58420000D02*
X58420000Y-55245000D01*
X128270000Y-43320000D02*
X127635000Y-43320000D01*
X151306122Y-71610000D02*
X150640000Y-70943878D01*
X61631806Y-44720000D02*
X60690000Y-44720000D01*
X70485000Y-56700000D02*
X72390000Y-54795000D01*
X112300000Y-63065000D02*
X109840000Y-63065000D01*
X72390000Y-54795000D02*
X88710000Y-54795000D01*
X127635000Y-70485000D02*
X131575000Y-66545000D01*
X91440000Y-73660000D02*
X101600000Y-73660000D01*
X102235000Y-70485000D02*
X106140000Y-66580000D01*
X159370000Y-58430000D02*
X158115000Y-57175000D01*
X113575305Y-50645000D02*
X109264745Y-50645000D01*
X125429816Y-49570000D02*
X124125184Y-49570000D01*
X125730000Y-49269816D02*
X125429816Y-49570000D01*
X40640000Y-65098194D02*
X43330000Y-67788194D01*
X49940000Y-55245000D02*
X58420000Y-55245000D01*
X58420000Y-55245000D02*
X58870000Y-54795000D01*
X123450184Y-48895000D02*
X115325305Y-48895000D01*
X125730000Y-48260000D02*
X125730000Y-49269816D01*
X100185000Y-41765000D02*
X95820000Y-41765000D01*
X158115000Y-57150000D02*
X157635000Y-56670000D01*
X131808618Y-61226382D02*
X118376382Y-61226382D01*
X115072868Y-64529896D02*
X113764896Y-64529896D01*
X98742500Y-57785000D02*
X98742500Y-60007500D01*
X103420500Y-72390000D02*
X103505000Y-72305500D01*
X179070000Y-62890000D02*
X174610000Y-58430000D01*
X101340000Y-62265000D02*
X99095000Y-62265000D01*
X131575000Y-66545000D02*
X131575000Y-61460000D01*
X154305000Y-70485000D02*
X153180000Y-71610000D01*
X98742500Y-60007500D02*
X99400000Y-60665000D01*
X40640000Y-45025014D02*
X40640000Y-65098194D01*
X158115000Y-57175000D02*
X158115000Y-57150000D01*
X112745000Y-66084896D02*
X112745000Y-63510000D01*
X43330000Y-67788194D02*
X43330000Y-70941806D01*
X136365000Y-56670000D02*
X135240000Y-57795000D01*
X113764896Y-64529896D02*
X112745000Y-63510000D01*
X48410000Y-71605000D02*
X49530000Y-70485000D01*
X150640000Y-69705000D02*
X158115000Y-62230000D01*
X112745000Y-63510000D02*
X112300000Y-63065000D01*
X95820000Y-41765000D02*
X94695000Y-40640000D01*
X127635000Y-42310184D02*
X127635000Y-43320000D01*
X58870000Y-54795000D02*
X72390000Y-54795000D01*
X43993194Y-71605000D02*
X48410000Y-71605000D01*
X100370000Y-48895000D02*
X98742500Y-50522500D01*
X87630000Y-75565000D02*
X89535000Y-73660000D01*
X81280000Y-41910000D02*
X63828194Y-41910000D01*
X118376382Y-61226382D02*
X115072868Y-64529896D01*
X62715000Y-43636806D02*
X61631806Y-44720000D01*
X101600000Y-73660000D02*
X102870000Y-72390000D01*
X153180000Y-71610000D02*
X151306122Y-71610000D01*
X88710000Y-54795000D02*
X93530000Y-54795000D01*
X44305014Y-41360000D02*
X40640000Y-45025014D01*
X57330000Y-41360000D02*
X44305014Y-41360000D01*
X120000000Y-59602764D02*
X118376382Y-61226382D01*
X112249896Y-66580000D02*
X112745000Y-66084896D01*
X127635000Y-45345184D02*
X125730000Y-47250184D01*
X118150000Y-44450000D02*
X120590000Y-42010000D01*
X60690000Y-44720000D02*
X57330000Y-41360000D01*
X158750000Y-56515000D02*
X157790000Y-56515000D01*
X131575000Y-61460000D02*
X131808618Y-61226382D01*
X124125184Y-49570000D02*
X123450184Y-48895000D01*
X158115000Y-62230000D02*
X160655000Y-62230000D01*
X98425000Y-61595000D02*
X98425000Y-59690000D01*
X98742500Y-50522500D02*
X98742500Y-57785000D01*
X127635000Y-43320000D02*
X127635000Y-45345184D01*
X127334816Y-42010000D02*
X127635000Y-42310184D01*
X98425000Y-59690000D02*
X98742500Y-60007500D01*
X84440000Y-59065000D02*
X88710000Y-54795000D01*
X115325305Y-48895000D02*
X113575305Y-50645000D01*
X102870000Y-72390000D02*
X103420500Y-72390000D01*
X99400000Y-60665000D02*
X101340000Y-60665000D01*
X109264745Y-50645000D02*
X109164872Y-50744872D01*
X99095000Y-62265000D02*
X98425000Y-61595000D01*
X93530000Y-54795000D02*
X98425000Y-59690000D01*
X63828194Y-41910000D02*
X62715000Y-43023194D01*
X157790000Y-56515000D02*
X157635000Y-56670000D01*
X179070000Y-70485000D02*
X179070000Y-62890000D01*
X43330000Y-70941806D02*
X43993194Y-71605000D01*
%TO.N,Net-(U1-XTAL1{slash}PB6)*%
X97880000Y-63065000D02*
X101340000Y-63065000D01*
X94615000Y-59800000D02*
X91290000Y-59800000D01*
X94615000Y-59800000D02*
X97880000Y-63065000D01*
X91290000Y-59800000D02*
X90170000Y-60920000D01*
%TO.N,Net-(J9-MISO)*%
X111035000Y-66130000D02*
X109205000Y-66130000D01*
X111760000Y-65405000D02*
X111035000Y-66130000D01*
X109205000Y-66130000D02*
X108390000Y-65315000D01*
%TO.N,Net-(U1-XTAL2{slash}PB7)*%
X96610000Y-64680000D02*
X97425000Y-63865000D01*
X97425000Y-63865000D02*
X101340000Y-63865000D01*
X94615000Y-64680000D02*
X96610000Y-64680000D01*
X93475000Y-63540000D02*
X94615000Y-64680000D01*
X90170000Y-63540000D02*
X93475000Y-63540000D01*
%TO.N,Net-(J9-SCK)*%
X110490000Y-64515000D02*
X109840000Y-63865000D01*
X110490000Y-65405000D02*
X110490000Y-64515000D01*
%TO.N,Net-(J9-MOSI)*%
X106615694Y-63606074D02*
X107590000Y-64580380D01*
X107590000Y-64580380D02*
X107590000Y-65315000D01*
X106403546Y-63606074D02*
X106615694Y-63606074D01*
%TO.N,Net-(U8-~{Q0})*%
X59690000Y-94788980D02*
X57196980Y-97282000D01*
X59690000Y-78105000D02*
X59690000Y-94788980D01*
%TO.N,Net-(U8-~{Q2})*%
X40785000Y-91916480D02*
X40785000Y-71610000D01*
X40785000Y-71610000D02*
X41910000Y-70485000D01*
X46150520Y-97282000D02*
X40785000Y-91916480D01*
%TO.N,Net-(U8-~{Q3})*%
X41910000Y-88670140D02*
X46023520Y-92783660D01*
X41910000Y-78105000D02*
X41910000Y-88670140D01*
%TO.N,Net-(U8-~{Q5})*%
X56484296Y-86563080D02*
X49429540Y-86563080D01*
X54610000Y-78105000D02*
X57425460Y-80920460D01*
X57425460Y-80920460D02*
X57425460Y-85621916D01*
X49429540Y-86563080D02*
X47834540Y-84968080D01*
X57425460Y-85621916D02*
X56484296Y-86563080D01*
%TO.N,Net-(U8-~{Q7})*%
X53234700Y-82372320D02*
X55830460Y-84968080D01*
X44450000Y-78105000D02*
X48717320Y-82372320D01*
X48717320Y-82372320D02*
X53234700Y-82372320D01*
%TO.N,Net-(U8-~{Q9})*%
X58275000Y-78563878D02*
X58275000Y-71610000D01*
X58791980Y-79080858D02*
X58275000Y-78563878D01*
X58791980Y-91315660D02*
X58791980Y-79080858D01*
X58275000Y-71610000D02*
X57150000Y-70485000D01*
X57323980Y-92783660D02*
X58791980Y-91315660D01*
%TO.N,Net-(U10-~{Q0})*%
X85090000Y-78105000D02*
X85090000Y-93438980D01*
X85090000Y-93438980D02*
X81246980Y-97282000D01*
%TO.N,Net-(U10-~{Q2})*%
X66185000Y-71610000D02*
X67310000Y-70485000D01*
X70200520Y-97282000D02*
X66185000Y-93266480D01*
X66185000Y-93266480D02*
X66185000Y-71610000D01*
%TO.N,Net-(U10-~{Q3})*%
X67310000Y-88265000D02*
X70073520Y-91028520D01*
X70073520Y-91028520D02*
X70073520Y-92783660D01*
X67310000Y-78105000D02*
X67310000Y-88265000D01*
%TO.N,Net-(U10-~{Q5})*%
X80534296Y-86563080D02*
X81475460Y-85621916D01*
X81475460Y-85621916D02*
X81475460Y-79570460D01*
X73479540Y-86563080D02*
X80534296Y-86563080D01*
X81475460Y-79570460D02*
X80010000Y-78105000D01*
X71884540Y-84968080D02*
X73479540Y-86563080D01*
%TO.N,Net-(U10-~{Q7})*%
X76192380Y-81280000D02*
X73025000Y-81280000D01*
X79880460Y-84968080D02*
X76192380Y-81280000D01*
X73025000Y-81280000D02*
X69850000Y-78105000D01*
%TO.N,Net-(U10-~{Q9})*%
X83675000Y-90482640D02*
X83675000Y-71610000D01*
X83675000Y-71610000D02*
X82550000Y-70485000D01*
X81373980Y-92783660D02*
X83675000Y-90482640D01*
%TO.N,Net-(U11-~{Q0})*%
X112395000Y-78105000D02*
X112395000Y-94107000D01*
X112395000Y-94107000D02*
X109220000Y-97282000D01*
%TO.N,Net-(U11-~{Q2})*%
X90720000Y-73958234D02*
X90720000Y-73361766D01*
X90720000Y-73361766D02*
X93596766Y-70485000D01*
X91006610Y-90115070D02*
X90931472Y-90115070D01*
X98173540Y-97282000D02*
X91006610Y-90115070D01*
X90220000Y-74458234D02*
X90720000Y-73958234D01*
X90220000Y-89403598D02*
X90220000Y-74458234D01*
X90931472Y-90115070D02*
X90220000Y-89403598D01*
X93596766Y-70485000D02*
X94615000Y-70485000D01*
%TO.N,Net-(U11-~{Q3})*%
X94615000Y-89352120D02*
X98046540Y-92783660D01*
X94615000Y-78105000D02*
X94615000Y-89352120D01*
%TO.N,Net-(U11-~{Q5})*%
X109448480Y-80238480D02*
X107315000Y-78105000D01*
X108908516Y-86671484D02*
X109448480Y-86131520D01*
X99857560Y-84968080D02*
X101560964Y-86671484D01*
X101560964Y-86671484D02*
X108908516Y-86671484D01*
X109448480Y-86131520D02*
X109448480Y-80238480D01*
%TO.N,Net-(U11-~{Q7})*%
X107853480Y-84968080D02*
X104165400Y-81280000D01*
X100330000Y-81280000D02*
X97155000Y-78105000D01*
X104165400Y-81280000D02*
X100330000Y-81280000D01*
%TO.N,Net-(U11-~{Q9})*%
X110980000Y-91150660D02*
X110980000Y-71610000D01*
X109347000Y-92783660D02*
X110980000Y-91150660D01*
X110980000Y-71610000D02*
X109855000Y-70485000D01*
%TO.N,Net-(U7-~{Q0})*%
X132700020Y-97282000D02*
X137795000Y-92187020D01*
X137795000Y-92187020D02*
X137795000Y-78105000D01*
%TO.N,Net-(U7-~{Q2})*%
X120015000Y-70485000D02*
X118890000Y-71610000D01*
X118890000Y-94518440D02*
X121653560Y-97282000D01*
X118890000Y-71610000D02*
X118890000Y-94518440D01*
%TO.N,Net-(U7-~{Q3})*%
X120015000Y-91272100D02*
X121526560Y-92783660D01*
X120015000Y-78105000D02*
X120015000Y-91272100D01*
%TO.N,Net-(U7-~{Q5})*%
X132928500Y-86146500D02*
X132928500Y-78318500D01*
X124932580Y-86563080D02*
X132511920Y-86563080D01*
X132928500Y-78318500D02*
X132715000Y-78105000D01*
X132511920Y-86563080D02*
X132928500Y-86146500D01*
X123337580Y-84968080D02*
X124932580Y-86563080D01*
%TO.N,Net-(U7-~{Q7})*%
X123680000Y-79230000D02*
X122555000Y-78105000D01*
X125595420Y-79230000D02*
X123680000Y-79230000D01*
X131333500Y-84968080D02*
X125595420Y-79230000D01*
%TO.N,Net-(U7-~{Q9})*%
X132827020Y-92783660D02*
X136380000Y-89230680D01*
X136380000Y-89230680D02*
X136380000Y-71610000D01*
X136380000Y-71610000D02*
X135255000Y-70485000D01*
%TO.N,Net-(U9-~{Q0})*%
X165590000Y-95138460D02*
X165590000Y-79230000D01*
X165590000Y-79230000D02*
X164465000Y-78105000D01*
X163446460Y-97282000D02*
X165590000Y-95138460D01*
%TO.N,Net-(U9-~{Q2})*%
X145560000Y-71610000D02*
X146685000Y-70485000D01*
X146005000Y-79330000D02*
X145560000Y-78885000D01*
X145560000Y-78885000D02*
X145560000Y-71610000D01*
X152400000Y-97282000D02*
X146005000Y-90887000D01*
X146005000Y-90887000D02*
X146005000Y-79330000D01*
%TO.N,Net-(U9-~{Q3})*%
X146685000Y-87195660D02*
X146685000Y-78105000D01*
X152273000Y-92783660D02*
X146685000Y-87195660D01*
%TO.N,Net-(U9-~{Q5})*%
X155679020Y-86563080D02*
X154084020Y-84968080D01*
X164465000Y-83185000D02*
X164465000Y-85090000D01*
X159385000Y-78105000D02*
X164465000Y-83185000D01*
X164465000Y-85090000D02*
X162991920Y-86563080D01*
X162991920Y-86563080D02*
X155679020Y-86563080D01*
%TO.N,Net-(U9-~{Q7})*%
X162079940Y-84968080D02*
X157756860Y-80645000D01*
X151765000Y-80645000D02*
X149225000Y-78105000D01*
X157756860Y-80645000D02*
X151765000Y-80645000D01*
%TO.N,Net-(U9-~{Q9})*%
X163050000Y-71610000D02*
X161925000Y-70485000D01*
X163573460Y-92783660D02*
X165041460Y-91315660D01*
X165041460Y-91315660D02*
X165041460Y-80586460D01*
X165041460Y-80586460D02*
X163050000Y-78595000D01*
X163050000Y-78595000D02*
X163050000Y-71610000D01*
%TO.N,Net-(U12-~{Q0})*%
X189230000Y-94375480D02*
X189230000Y-78105000D01*
X186323480Y-97282000D02*
X189230000Y-94375480D01*
%TO.N,Net-(U12-~{Q2})*%
X170325000Y-92329980D02*
X170325000Y-71610000D01*
X175277020Y-97282000D02*
X170325000Y-92329980D01*
X170325000Y-71610000D02*
X171450000Y-70485000D01*
%TO.N,Net-(U12-~{Q3})*%
X171450000Y-89083640D02*
X171450000Y-78105000D01*
X175150020Y-92783660D02*
X171450000Y-89083640D01*
%TO.N,Net-(U12-~{Q5})*%
X185610796Y-86563080D02*
X186690000Y-85483876D01*
X186690000Y-85483876D02*
X186690000Y-83185000D01*
X184150000Y-80645000D02*
X184150000Y-78105000D01*
X176961040Y-84968080D02*
X178556040Y-86563080D01*
X178556040Y-86563080D02*
X185610796Y-86563080D01*
X186690000Y-83185000D02*
X184150000Y-80645000D01*
%TO.N,Net-(U12-~{Q7})*%
X184956960Y-84968080D02*
X180633880Y-80645000D01*
X176530000Y-80645000D02*
X173990000Y-78105000D01*
X180633880Y-80645000D02*
X176530000Y-80645000D01*
%TO.N,Net-(U12-~{Q9})*%
X187918480Y-71713480D02*
X186690000Y-70485000D01*
X186450480Y-92783660D02*
X187918480Y-91315660D01*
X187918480Y-91315660D02*
X187918480Y-71713480D01*
%TO.N,Net-(U6-USBDP)*%
X130175000Y-40640000D02*
X130175000Y-43320000D01*
X131445000Y-39370000D02*
X130175000Y-40640000D01*
%TO.N,Net-(U6-USBDM)*%
X129590000Y-43270000D02*
X129540000Y-43320000D01*
X129540000Y-43320000D02*
X129540000Y-40005000D01*
X129540000Y-40005000D02*
X128905000Y-39370000D01*
%TO.N,Net-(U1-PD3)*%
X113030000Y-52070000D02*
X111760000Y-53340000D01*
X123825000Y-52705000D02*
X123190000Y-52070000D01*
X101495000Y-58420000D02*
X101340000Y-58265000D01*
X160020000Y-60325000D02*
X165735000Y-60325000D01*
X111760000Y-53340000D02*
X111760000Y-53429500D01*
X103505000Y-58420000D02*
X101495000Y-58420000D01*
X123190000Y-52070000D02*
X113030000Y-52070000D01*
%TO.N,Net-(U1-PC4)*%
X73810000Y-70941806D02*
X74473194Y-71605000D01*
X104449834Y-59955166D02*
X106790000Y-57615000D01*
X92960369Y-70485000D02*
X98125369Y-65320000D01*
X60325000Y-58420000D02*
X61445000Y-59540000D01*
X61445000Y-59540000D02*
X63321806Y-59540000D01*
X103420000Y-62624834D02*
X104449834Y-61595000D01*
X104876069Y-63591826D02*
X104824827Y-63643068D01*
X104824827Y-63643068D02*
X103841766Y-63643068D01*
X74473194Y-71605000D02*
X80766806Y-71605000D01*
X87780000Y-69365000D02*
X88900000Y-70485000D01*
X104449834Y-61595000D02*
X104449834Y-59955166D01*
X81430000Y-70941806D02*
X81430000Y-70028194D01*
X63321806Y-59540000D02*
X69365000Y-65583194D01*
X73810000Y-70028194D02*
X73810000Y-70941806D01*
X88900000Y-70485000D02*
X92960369Y-70485000D01*
X81430000Y-70028194D02*
X82093194Y-69365000D01*
X70028194Y-67160000D02*
X70941806Y-67160000D01*
X80766806Y-71605000D02*
X81430000Y-70941806D01*
X69365000Y-65583194D02*
X69365000Y-66496806D01*
X103841766Y-63643068D02*
X103420000Y-63221302D01*
X82093194Y-69365000D02*
X87780000Y-69365000D01*
X103420000Y-63221302D02*
X103420000Y-62624834D01*
X69365000Y-66496806D02*
X70028194Y-67160000D01*
X98125369Y-65320000D02*
X100880000Y-65320000D01*
X106790000Y-57615000D02*
X106790000Y-56815000D01*
X100880000Y-65320000D02*
X100965000Y-65405000D01*
X70941806Y-67160000D02*
X73810000Y-70028194D01*
%TO.N,Net-(U1-PD0)*%
X110142452Y-39470000D02*
X108585000Y-41027452D01*
X116105000Y-45820000D02*
X116105000Y-39662452D01*
X103505000Y-59525500D02*
X104390000Y-58640500D01*
X116105000Y-39662452D02*
X115912548Y-39470000D01*
X108585000Y-41027452D02*
X108585000Y-45085000D01*
X116555000Y-46270000D02*
X116105000Y-45820000D01*
X108585000Y-45085000D02*
X107315000Y-46355000D01*
X124460000Y-43320000D02*
X121510000Y-46270000D01*
X97790000Y-51350500D02*
X97790000Y-55880000D01*
X121510000Y-46270000D02*
X116555000Y-46270000D01*
X115912548Y-39470000D02*
X110142452Y-39470000D01*
X104390000Y-58640500D02*
X104390000Y-56815000D01*
%TO.N,Net-(U1-PD1)*%
X103590000Y-56080380D02*
X103199620Y-55690000D01*
X122955500Y-50020000D02*
X122555000Y-49619500D01*
X102235000Y-53975000D02*
X104775000Y-51435000D01*
X103199620Y-55690000D02*
X102465000Y-55690000D01*
X102465000Y-55690000D02*
X102235000Y-55460000D01*
X114935000Y-48260000D02*
X121920000Y-48260000D01*
X125616212Y-50020000D02*
X122955500Y-50020000D01*
X126365000Y-48260000D02*
X126365000Y-49271212D01*
X102235000Y-55460000D02*
X102235000Y-53975000D01*
X103590000Y-56815000D02*
X103590000Y-56080380D01*
X126365000Y-49271212D02*
X125616212Y-50020000D01*
%TO.N,Net-(U1-PD2)*%
X104775000Y-50165000D02*
X101600000Y-53340000D01*
X101600000Y-53340000D02*
X101600000Y-55625000D01*
X125095000Y-48260000D02*
X125095000Y-47250184D01*
X124794816Y-46950000D02*
X113705000Y-46950000D01*
X101600000Y-55625000D02*
X102790000Y-56815000D01*
X113705000Y-46950000D02*
X113665000Y-46990000D01*
X125095000Y-47250184D02*
X124794816Y-46950000D01*
%TO.N,Net-(U14-QH)*%
X130175000Y-70480000D02*
X130175000Y-70485000D01*
X135240000Y-65415000D02*
X130175000Y-70480000D01*
%TO.N,Net-(U14-QF)*%
X130160000Y-65415000D02*
X130160000Y-65420000D01*
X130160000Y-65420000D02*
X125095000Y-70485000D01*
%TO.N,Net-(U13-QD)*%
X57005000Y-69360000D02*
X53195000Y-69360000D01*
X60325000Y-66040000D02*
X57005000Y-69360000D01*
X53195000Y-69360000D02*
X52070000Y-70485000D01*
%TO.N,Net-(U13-QC)*%
X55245000Y-68580000D02*
X46355000Y-68580000D01*
X57785000Y-66040000D02*
X55245000Y-68580000D01*
X46355000Y-68580000D02*
X44450000Y-70485000D01*
%TO.N,Net-(U15-QA)*%
X163830000Y-61595000D02*
X164465000Y-61595000D01*
X159385000Y-70485000D02*
X160785000Y-69085000D01*
X160785000Y-69085000D02*
X160785000Y-64005000D01*
X163195000Y-61595000D02*
X163830000Y-61595000D01*
X160785000Y-64005000D02*
X163195000Y-61595000D01*
%TO.N,Net-(U15-QB)*%
X151765000Y-70485000D02*
X156200000Y-66050000D01*
X156200000Y-66050000D02*
X159370000Y-66050000D01*
%TO.N,Net-(U10-D)*%
X73805000Y-69360000D02*
X76345000Y-69360000D01*
X76345000Y-69360000D02*
X77470000Y-70485000D01*
X70485000Y-66040000D02*
X73805000Y-69360000D01*
%TO.N,Net-(U10-C)*%
X67945000Y-68580000D02*
X69850000Y-70485000D01*
X67945000Y-66040000D02*
X67945000Y-68580000D01*
%TO.N,Net-(U11-D)*%
X125080000Y-65415000D02*
X123955000Y-66540000D01*
X123955000Y-66540000D02*
X117610000Y-66540000D01*
X117610000Y-66540000D02*
X114935000Y-69215000D01*
X106045000Y-69215000D02*
X104775000Y-70485000D01*
X114935000Y-69215000D02*
X106045000Y-69215000D01*
%TO.N,Net-(U12-B)*%
X176530000Y-70485000D02*
X175405000Y-69360000D01*
X175405000Y-69360000D02*
X172840000Y-69360000D01*
X172840000Y-69360000D02*
X169530000Y-66050000D01*
%TO.N,Net-(U14-QH')*%
X137780000Y-57795000D02*
X139540000Y-59555000D01*
X163325000Y-59555000D02*
X164450000Y-58430000D01*
X139540000Y-59555000D02*
X163325000Y-59555000D01*
%TD*%
M02*
