%TF.GenerationSoftware,KiCad,Pcbnew,7.0.8*%
%TF.CreationDate,2023-10-07T19:30:02-07:00*%
%TF.ProjectId,nixie3,6e697869-6533-42e6-9b69-6361645f7063,rev?*%
%TF.SameCoordinates,Original*%
%TF.FileFunction,Drillmap*%
%TF.FilePolarity,Positive*%
%FSLAX45Y45*%
G04 Gerber Fmt 4.5, Leading zero omitted, Abs format (unit mm)*
G04 Created by KiCad (PCBNEW 7.0.8) date 2023-10-07 19:30:02*
%MOMM*%
%LPD*%
G01*
G04 APERTURE LIST*
%ADD10C,0.100000*%
%ADD11C,0.200000*%
%ADD12C,0.270000*%
%ADD13C,0.499872*%
G04 APERTURE END LIST*
D10*
X3873500Y-3492500D02*
X19431000Y-3492500D01*
X19431000Y-11239500D01*
X3873500Y-11239500D01*
X3873500Y-3492500D01*
D11*
D12*
X4183000Y-6151500D02*
X4453000Y-6421500D01*
X4453000Y-6151500D02*
X4183000Y-6421500D01*
X4310000Y-10723500D02*
X4580000Y-10993500D01*
X4580000Y-10723500D02*
X4310000Y-10993500D01*
X11485500Y-10723500D02*
X11755500Y-10993500D01*
X11755500Y-10723500D02*
X11485500Y-10993500D01*
X12120500Y-3675000D02*
X12390500Y-3945000D01*
X12390500Y-3675000D02*
X12120500Y-3945000D01*
X14660500Y-6342000D02*
X14930500Y-6612000D01*
X14930500Y-6342000D02*
X14660500Y-6612000D01*
X18851500Y-10723500D02*
X19121500Y-10993500D01*
X19121500Y-10723500D02*
X18851500Y-10993500D01*
D13*
X5464936Y-9278366D02*
G75*
G03*
X5464936Y-9278366I-249936J0D01*
G01*
X7869936Y-9278366D02*
G75*
G03*
X7869936Y-9278366I-249936J0D01*
G01*
X10667238Y-9278366D02*
G75*
G03*
X10667238Y-9278366I-249936J0D01*
G01*
X13015240Y-9278366D02*
G75*
G03*
X13015240Y-9278366I-249936J0D01*
G01*
X16089884Y-9278366D02*
G75*
G03*
X16089884Y-9278366I-249936J0D01*
G01*
X18377586Y-9278366D02*
G75*
G03*
X18377586Y-9278366I-249936J0D01*
G01*
D11*
X4129277Y-11555984D02*
X4129277Y-11355984D01*
X4129277Y-11355984D02*
X4176896Y-11355984D01*
X4176896Y-11355984D02*
X4205467Y-11365508D01*
X4205467Y-11365508D02*
X4224515Y-11384555D01*
X4224515Y-11384555D02*
X4234039Y-11403603D01*
X4234039Y-11403603D02*
X4243563Y-11441698D01*
X4243563Y-11441698D02*
X4243563Y-11470269D01*
X4243563Y-11470269D02*
X4234039Y-11508365D01*
X4234039Y-11508365D02*
X4224515Y-11527412D01*
X4224515Y-11527412D02*
X4205467Y-11546460D01*
X4205467Y-11546460D02*
X4176896Y-11555984D01*
X4176896Y-11555984D02*
X4129277Y-11555984D01*
X4329277Y-11555984D02*
X4329277Y-11422650D01*
X4329277Y-11460746D02*
X4338801Y-11441698D01*
X4338801Y-11441698D02*
X4348324Y-11432174D01*
X4348324Y-11432174D02*
X4367372Y-11422650D01*
X4367372Y-11422650D02*
X4386420Y-11422650D01*
X4453086Y-11555984D02*
X4453086Y-11422650D01*
X4453086Y-11355984D02*
X4443563Y-11365508D01*
X4443563Y-11365508D02*
X4453086Y-11375031D01*
X4453086Y-11375031D02*
X4462610Y-11365508D01*
X4462610Y-11365508D02*
X4453086Y-11355984D01*
X4453086Y-11355984D02*
X4453086Y-11375031D01*
X4576896Y-11555984D02*
X4557848Y-11546460D01*
X4557848Y-11546460D02*
X4548324Y-11527412D01*
X4548324Y-11527412D02*
X4548324Y-11355984D01*
X4681658Y-11555984D02*
X4662610Y-11546460D01*
X4662610Y-11546460D02*
X4653086Y-11527412D01*
X4653086Y-11527412D02*
X4653086Y-11355984D01*
X4910229Y-11555984D02*
X4910229Y-11355984D01*
X4910229Y-11355984D02*
X4976896Y-11498841D01*
X4976896Y-11498841D02*
X5043563Y-11355984D01*
X5043563Y-11355984D02*
X5043563Y-11555984D01*
X5224515Y-11555984D02*
X5224515Y-11451222D01*
X5224515Y-11451222D02*
X5214991Y-11432174D01*
X5214991Y-11432174D02*
X5195944Y-11422650D01*
X5195944Y-11422650D02*
X5157848Y-11422650D01*
X5157848Y-11422650D02*
X5138801Y-11432174D01*
X5224515Y-11546460D02*
X5205467Y-11555984D01*
X5205467Y-11555984D02*
X5157848Y-11555984D01*
X5157848Y-11555984D02*
X5138801Y-11546460D01*
X5138801Y-11546460D02*
X5129277Y-11527412D01*
X5129277Y-11527412D02*
X5129277Y-11508365D01*
X5129277Y-11508365D02*
X5138801Y-11489317D01*
X5138801Y-11489317D02*
X5157848Y-11479793D01*
X5157848Y-11479793D02*
X5205467Y-11479793D01*
X5205467Y-11479793D02*
X5224515Y-11470269D01*
X5319753Y-11422650D02*
X5319753Y-11622650D01*
X5319753Y-11432174D02*
X5338801Y-11422650D01*
X5338801Y-11422650D02*
X5376896Y-11422650D01*
X5376896Y-11422650D02*
X5395944Y-11432174D01*
X5395944Y-11432174D02*
X5405467Y-11441698D01*
X5405467Y-11441698D02*
X5414991Y-11460746D01*
X5414991Y-11460746D02*
X5414991Y-11517888D01*
X5414991Y-11517888D02*
X5405467Y-11536936D01*
X5405467Y-11536936D02*
X5395944Y-11546460D01*
X5395944Y-11546460D02*
X5376896Y-11555984D01*
X5376896Y-11555984D02*
X5338801Y-11555984D01*
X5338801Y-11555984D02*
X5319753Y-11546460D01*
X5500705Y-11536936D02*
X5510229Y-11546460D01*
X5510229Y-11546460D02*
X5500705Y-11555984D01*
X5500705Y-11555984D02*
X5491182Y-11546460D01*
X5491182Y-11546460D02*
X5500705Y-11536936D01*
X5500705Y-11536936D02*
X5500705Y-11555984D01*
X5500705Y-11432174D02*
X5510229Y-11441698D01*
X5510229Y-11441698D02*
X5500705Y-11451222D01*
X5500705Y-11451222D02*
X5491182Y-11441698D01*
X5491182Y-11441698D02*
X5500705Y-11432174D01*
X5500705Y-11432174D02*
X5500705Y-11451222D01*
X3668500Y-11784500D02*
X3868500Y-11984500D01*
X3868500Y-11784500D02*
X3668500Y-11984500D01*
X4119753Y-11795031D02*
X4129277Y-11785508D01*
X4129277Y-11785508D02*
X4148324Y-11775984D01*
X4148324Y-11775984D02*
X4195944Y-11775984D01*
X4195944Y-11775984D02*
X4214991Y-11785508D01*
X4214991Y-11785508D02*
X4224515Y-11795031D01*
X4224515Y-11795031D02*
X4234039Y-11814079D01*
X4234039Y-11814079D02*
X4234039Y-11833127D01*
X4234039Y-11833127D02*
X4224515Y-11861698D01*
X4224515Y-11861698D02*
X4110229Y-11975984D01*
X4110229Y-11975984D02*
X4234039Y-11975984D01*
X4319753Y-11956936D02*
X4329277Y-11966460D01*
X4329277Y-11966460D02*
X4319753Y-11975984D01*
X4319753Y-11975984D02*
X4310229Y-11966460D01*
X4310229Y-11966460D02*
X4319753Y-11956936D01*
X4319753Y-11956936D02*
X4319753Y-11975984D01*
X4395944Y-11775984D02*
X4529277Y-11775984D01*
X4529277Y-11775984D02*
X4443563Y-11975984D01*
X4643563Y-11775984D02*
X4662610Y-11775984D01*
X4662610Y-11775984D02*
X4681658Y-11785508D01*
X4681658Y-11785508D02*
X4691182Y-11795031D01*
X4691182Y-11795031D02*
X4700705Y-11814079D01*
X4700705Y-11814079D02*
X4710229Y-11852174D01*
X4710229Y-11852174D02*
X4710229Y-11899793D01*
X4710229Y-11899793D02*
X4700705Y-11937888D01*
X4700705Y-11937888D02*
X4691182Y-11956936D01*
X4691182Y-11956936D02*
X4681658Y-11966460D01*
X4681658Y-11966460D02*
X4662610Y-11975984D01*
X4662610Y-11975984D02*
X4643563Y-11975984D01*
X4643563Y-11975984D02*
X4624515Y-11966460D01*
X4624515Y-11966460D02*
X4614991Y-11956936D01*
X4614991Y-11956936D02*
X4605467Y-11937888D01*
X4605467Y-11937888D02*
X4595944Y-11899793D01*
X4595944Y-11899793D02*
X4595944Y-11852174D01*
X4595944Y-11852174D02*
X4605467Y-11814079D01*
X4605467Y-11814079D02*
X4614991Y-11795031D01*
X4614991Y-11795031D02*
X4624515Y-11785508D01*
X4624515Y-11785508D02*
X4643563Y-11775984D01*
X4834039Y-11775984D02*
X4853086Y-11775984D01*
X4853086Y-11775984D02*
X4872134Y-11785508D01*
X4872134Y-11785508D02*
X4881658Y-11795031D01*
X4881658Y-11795031D02*
X4891182Y-11814079D01*
X4891182Y-11814079D02*
X4900705Y-11852174D01*
X4900705Y-11852174D02*
X4900705Y-11899793D01*
X4900705Y-11899793D02*
X4891182Y-11937888D01*
X4891182Y-11937888D02*
X4881658Y-11956936D01*
X4881658Y-11956936D02*
X4872134Y-11966460D01*
X4872134Y-11966460D02*
X4853086Y-11975984D01*
X4853086Y-11975984D02*
X4834039Y-11975984D01*
X4834039Y-11975984D02*
X4814991Y-11966460D01*
X4814991Y-11966460D02*
X4805467Y-11956936D01*
X4805467Y-11956936D02*
X4795944Y-11937888D01*
X4795944Y-11937888D02*
X4786420Y-11899793D01*
X4786420Y-11899793D02*
X4786420Y-11852174D01*
X4786420Y-11852174D02*
X4795944Y-11814079D01*
X4795944Y-11814079D02*
X4805467Y-11795031D01*
X4805467Y-11795031D02*
X4814991Y-11785508D01*
X4814991Y-11785508D02*
X4834039Y-11775984D01*
X4986420Y-11975984D02*
X4986420Y-11842650D01*
X4986420Y-11861698D02*
X4995944Y-11852174D01*
X4995944Y-11852174D02*
X5014991Y-11842650D01*
X5014991Y-11842650D02*
X5043563Y-11842650D01*
X5043563Y-11842650D02*
X5062610Y-11852174D01*
X5062610Y-11852174D02*
X5072134Y-11871222D01*
X5072134Y-11871222D02*
X5072134Y-11975984D01*
X5072134Y-11871222D02*
X5081658Y-11852174D01*
X5081658Y-11852174D02*
X5100705Y-11842650D01*
X5100705Y-11842650D02*
X5129277Y-11842650D01*
X5129277Y-11842650D02*
X5148325Y-11852174D01*
X5148325Y-11852174D02*
X5157848Y-11871222D01*
X5157848Y-11871222D02*
X5157848Y-11975984D01*
X5253086Y-11975984D02*
X5253086Y-11842650D01*
X5253086Y-11861698D02*
X5262610Y-11852174D01*
X5262610Y-11852174D02*
X5281658Y-11842650D01*
X5281658Y-11842650D02*
X5310229Y-11842650D01*
X5310229Y-11842650D02*
X5329277Y-11852174D01*
X5329277Y-11852174D02*
X5338801Y-11871222D01*
X5338801Y-11871222D02*
X5338801Y-11975984D01*
X5338801Y-11871222D02*
X5348325Y-11852174D01*
X5348325Y-11852174D02*
X5367372Y-11842650D01*
X5367372Y-11842650D02*
X5395944Y-11842650D01*
X5395944Y-11842650D02*
X5414991Y-11852174D01*
X5414991Y-11852174D02*
X5424515Y-11871222D01*
X5424515Y-11871222D02*
X5424515Y-11975984D01*
X5814991Y-11766460D02*
X5643563Y-12023603D01*
X6072134Y-11775984D02*
X6091182Y-11775984D01*
X6091182Y-11775984D02*
X6110229Y-11785508D01*
X6110229Y-11785508D02*
X6119753Y-11795031D01*
X6119753Y-11795031D02*
X6129277Y-11814079D01*
X6129277Y-11814079D02*
X6138801Y-11852174D01*
X6138801Y-11852174D02*
X6138801Y-11899793D01*
X6138801Y-11899793D02*
X6129277Y-11937888D01*
X6129277Y-11937888D02*
X6119753Y-11956936D01*
X6119753Y-11956936D02*
X6110229Y-11966460D01*
X6110229Y-11966460D02*
X6091182Y-11975984D01*
X6091182Y-11975984D02*
X6072134Y-11975984D01*
X6072134Y-11975984D02*
X6053086Y-11966460D01*
X6053086Y-11966460D02*
X6043563Y-11956936D01*
X6043563Y-11956936D02*
X6034039Y-11937888D01*
X6034039Y-11937888D02*
X6024515Y-11899793D01*
X6024515Y-11899793D02*
X6024515Y-11852174D01*
X6024515Y-11852174D02*
X6034039Y-11814079D01*
X6034039Y-11814079D02*
X6043563Y-11795031D01*
X6043563Y-11795031D02*
X6053086Y-11785508D01*
X6053086Y-11785508D02*
X6072134Y-11775984D01*
X6224515Y-11956936D02*
X6234039Y-11966460D01*
X6234039Y-11966460D02*
X6224515Y-11975984D01*
X6224515Y-11975984D02*
X6214991Y-11966460D01*
X6214991Y-11966460D02*
X6224515Y-11956936D01*
X6224515Y-11956936D02*
X6224515Y-11975984D01*
X6424515Y-11975984D02*
X6310229Y-11975984D01*
X6367372Y-11975984D02*
X6367372Y-11775984D01*
X6367372Y-11775984D02*
X6348325Y-11804555D01*
X6348325Y-11804555D02*
X6329277Y-11823603D01*
X6329277Y-11823603D02*
X6310229Y-11833127D01*
X6548325Y-11775984D02*
X6567372Y-11775984D01*
X6567372Y-11775984D02*
X6586420Y-11785508D01*
X6586420Y-11785508D02*
X6595944Y-11795031D01*
X6595944Y-11795031D02*
X6605467Y-11814079D01*
X6605467Y-11814079D02*
X6614991Y-11852174D01*
X6614991Y-11852174D02*
X6614991Y-11899793D01*
X6614991Y-11899793D02*
X6605467Y-11937888D01*
X6605467Y-11937888D02*
X6595944Y-11956936D01*
X6595944Y-11956936D02*
X6586420Y-11966460D01*
X6586420Y-11966460D02*
X6567372Y-11975984D01*
X6567372Y-11975984D02*
X6548325Y-11975984D01*
X6548325Y-11975984D02*
X6529277Y-11966460D01*
X6529277Y-11966460D02*
X6519753Y-11956936D01*
X6519753Y-11956936D02*
X6510229Y-11937888D01*
X6510229Y-11937888D02*
X6500706Y-11899793D01*
X6500706Y-11899793D02*
X6500706Y-11852174D01*
X6500706Y-11852174D02*
X6510229Y-11814079D01*
X6510229Y-11814079D02*
X6519753Y-11795031D01*
X6519753Y-11795031D02*
X6529277Y-11785508D01*
X6529277Y-11785508D02*
X6548325Y-11775984D01*
X6786420Y-11775984D02*
X6748325Y-11775984D01*
X6748325Y-11775984D02*
X6729277Y-11785508D01*
X6729277Y-11785508D02*
X6719753Y-11795031D01*
X6719753Y-11795031D02*
X6700706Y-11823603D01*
X6700706Y-11823603D02*
X6691182Y-11861698D01*
X6691182Y-11861698D02*
X6691182Y-11937888D01*
X6691182Y-11937888D02*
X6700706Y-11956936D01*
X6700706Y-11956936D02*
X6710229Y-11966460D01*
X6710229Y-11966460D02*
X6729277Y-11975984D01*
X6729277Y-11975984D02*
X6767372Y-11975984D01*
X6767372Y-11975984D02*
X6786420Y-11966460D01*
X6786420Y-11966460D02*
X6795944Y-11956936D01*
X6795944Y-11956936D02*
X6805467Y-11937888D01*
X6805467Y-11937888D02*
X6805467Y-11890269D01*
X6805467Y-11890269D02*
X6795944Y-11871222D01*
X6795944Y-11871222D02*
X6786420Y-11861698D01*
X6786420Y-11861698D02*
X6767372Y-11852174D01*
X6767372Y-11852174D02*
X6729277Y-11852174D01*
X6729277Y-11852174D02*
X6710229Y-11861698D01*
X6710229Y-11861698D02*
X6700706Y-11871222D01*
X6700706Y-11871222D02*
X6691182Y-11890269D01*
X6872134Y-11775984D02*
X6995944Y-11775984D01*
X6995944Y-11775984D02*
X6929277Y-11852174D01*
X6929277Y-11852174D02*
X6957848Y-11852174D01*
X6957848Y-11852174D02*
X6976896Y-11861698D01*
X6976896Y-11861698D02*
X6986420Y-11871222D01*
X6986420Y-11871222D02*
X6995944Y-11890269D01*
X6995944Y-11890269D02*
X6995944Y-11937888D01*
X6995944Y-11937888D02*
X6986420Y-11956936D01*
X6986420Y-11956936D02*
X6976896Y-11966460D01*
X6976896Y-11966460D02*
X6957848Y-11975984D01*
X6957848Y-11975984D02*
X6900706Y-11975984D01*
X6900706Y-11975984D02*
X6881658Y-11966460D01*
X6881658Y-11966460D02*
X6872134Y-11956936D01*
X7072134Y-11775984D02*
X7072134Y-11814079D01*
X7148325Y-11775984D02*
X7148325Y-11814079D01*
X7443563Y-12052174D02*
X7434039Y-12042650D01*
X7434039Y-12042650D02*
X7414991Y-12014079D01*
X7414991Y-12014079D02*
X7405468Y-11995031D01*
X7405468Y-11995031D02*
X7395944Y-11966460D01*
X7395944Y-11966460D02*
X7386420Y-11918841D01*
X7386420Y-11918841D02*
X7386420Y-11880746D01*
X7386420Y-11880746D02*
X7395944Y-11833127D01*
X7395944Y-11833127D02*
X7405468Y-11804555D01*
X7405468Y-11804555D02*
X7414991Y-11785508D01*
X7414991Y-11785508D02*
X7434039Y-11756936D01*
X7434039Y-11756936D02*
X7443563Y-11747412D01*
X7605468Y-11775984D02*
X7567372Y-11775984D01*
X7567372Y-11775984D02*
X7548325Y-11785508D01*
X7548325Y-11785508D02*
X7538801Y-11795031D01*
X7538801Y-11795031D02*
X7519753Y-11823603D01*
X7519753Y-11823603D02*
X7510229Y-11861698D01*
X7510229Y-11861698D02*
X7510229Y-11937888D01*
X7510229Y-11937888D02*
X7519753Y-11956936D01*
X7519753Y-11956936D02*
X7529277Y-11966460D01*
X7529277Y-11966460D02*
X7548325Y-11975984D01*
X7548325Y-11975984D02*
X7586420Y-11975984D01*
X7586420Y-11975984D02*
X7605468Y-11966460D01*
X7605468Y-11966460D02*
X7614991Y-11956936D01*
X7614991Y-11956936D02*
X7624515Y-11937888D01*
X7624515Y-11937888D02*
X7624515Y-11890269D01*
X7624515Y-11890269D02*
X7614991Y-11871222D01*
X7614991Y-11871222D02*
X7605468Y-11861698D01*
X7605468Y-11861698D02*
X7586420Y-11852174D01*
X7586420Y-11852174D02*
X7548325Y-11852174D01*
X7548325Y-11852174D02*
X7529277Y-11861698D01*
X7529277Y-11861698D02*
X7519753Y-11871222D01*
X7519753Y-11871222D02*
X7510229Y-11890269D01*
X7862610Y-11975984D02*
X7862610Y-11775984D01*
X7948325Y-11975984D02*
X7948325Y-11871222D01*
X7948325Y-11871222D02*
X7938801Y-11852174D01*
X7938801Y-11852174D02*
X7919753Y-11842650D01*
X7919753Y-11842650D02*
X7891182Y-11842650D01*
X7891182Y-11842650D02*
X7872134Y-11852174D01*
X7872134Y-11852174D02*
X7862610Y-11861698D01*
X8072134Y-11975984D02*
X8053087Y-11966460D01*
X8053087Y-11966460D02*
X8043563Y-11956936D01*
X8043563Y-11956936D02*
X8034039Y-11937888D01*
X8034039Y-11937888D02*
X8034039Y-11880746D01*
X8034039Y-11880746D02*
X8043563Y-11861698D01*
X8043563Y-11861698D02*
X8053087Y-11852174D01*
X8053087Y-11852174D02*
X8072134Y-11842650D01*
X8072134Y-11842650D02*
X8100706Y-11842650D01*
X8100706Y-11842650D02*
X8119753Y-11852174D01*
X8119753Y-11852174D02*
X8129277Y-11861698D01*
X8129277Y-11861698D02*
X8138801Y-11880746D01*
X8138801Y-11880746D02*
X8138801Y-11937888D01*
X8138801Y-11937888D02*
X8129277Y-11956936D01*
X8129277Y-11956936D02*
X8119753Y-11966460D01*
X8119753Y-11966460D02*
X8100706Y-11975984D01*
X8100706Y-11975984D02*
X8072134Y-11975984D01*
X8253087Y-11975984D02*
X8234039Y-11966460D01*
X8234039Y-11966460D02*
X8224515Y-11947412D01*
X8224515Y-11947412D02*
X8224515Y-11775984D01*
X8405468Y-11966460D02*
X8386420Y-11975984D01*
X8386420Y-11975984D02*
X8348325Y-11975984D01*
X8348325Y-11975984D02*
X8329277Y-11966460D01*
X8329277Y-11966460D02*
X8319753Y-11947412D01*
X8319753Y-11947412D02*
X8319753Y-11871222D01*
X8319753Y-11871222D02*
X8329277Y-11852174D01*
X8329277Y-11852174D02*
X8348325Y-11842650D01*
X8348325Y-11842650D02*
X8386420Y-11842650D01*
X8386420Y-11842650D02*
X8405468Y-11852174D01*
X8405468Y-11852174D02*
X8414992Y-11871222D01*
X8414992Y-11871222D02*
X8414992Y-11890269D01*
X8414992Y-11890269D02*
X8319753Y-11909317D01*
X8491182Y-11966460D02*
X8510230Y-11975984D01*
X8510230Y-11975984D02*
X8548325Y-11975984D01*
X8548325Y-11975984D02*
X8567373Y-11966460D01*
X8567373Y-11966460D02*
X8576896Y-11947412D01*
X8576896Y-11947412D02*
X8576896Y-11937888D01*
X8576896Y-11937888D02*
X8567373Y-11918841D01*
X8567373Y-11918841D02*
X8548325Y-11909317D01*
X8548325Y-11909317D02*
X8519753Y-11909317D01*
X8519753Y-11909317D02*
X8500706Y-11899793D01*
X8500706Y-11899793D02*
X8491182Y-11880746D01*
X8491182Y-11880746D02*
X8491182Y-11871222D01*
X8491182Y-11871222D02*
X8500706Y-11852174D01*
X8500706Y-11852174D02*
X8519753Y-11842650D01*
X8519753Y-11842650D02*
X8548325Y-11842650D01*
X8548325Y-11842650D02*
X8567373Y-11852174D01*
X8643563Y-12052174D02*
X8653087Y-12042650D01*
X8653087Y-12042650D02*
X8672134Y-12014079D01*
X8672134Y-12014079D02*
X8681658Y-11995031D01*
X8681658Y-11995031D02*
X8691182Y-11966460D01*
X8691182Y-11966460D02*
X8700706Y-11918841D01*
X8700706Y-11918841D02*
X8700706Y-11880746D01*
X8700706Y-11880746D02*
X8691182Y-11833127D01*
X8691182Y-11833127D02*
X8681658Y-11804555D01*
X8681658Y-11804555D02*
X8672134Y-11785508D01*
X8672134Y-11785508D02*
X8653087Y-11756936D01*
X8653087Y-11756936D02*
X8643563Y-11747412D01*
X9005468Y-12052174D02*
X8995944Y-12042650D01*
X8995944Y-12042650D02*
X8976896Y-12014079D01*
X8976896Y-12014079D02*
X8967373Y-11995031D01*
X8967373Y-11995031D02*
X8957849Y-11966460D01*
X8957849Y-11966460D02*
X8948325Y-11918841D01*
X8948325Y-11918841D02*
X8948325Y-11880746D01*
X8948325Y-11880746D02*
X8957849Y-11833127D01*
X8957849Y-11833127D02*
X8967373Y-11804555D01*
X8967373Y-11804555D02*
X8976896Y-11785508D01*
X8976896Y-11785508D02*
X8995944Y-11756936D01*
X8995944Y-11756936D02*
X9005468Y-11747412D01*
X9081658Y-11842650D02*
X9081658Y-11975984D01*
X9081658Y-11861698D02*
X9091182Y-11852174D01*
X9091182Y-11852174D02*
X9110230Y-11842650D01*
X9110230Y-11842650D02*
X9138801Y-11842650D01*
X9138801Y-11842650D02*
X9157849Y-11852174D01*
X9157849Y-11852174D02*
X9167373Y-11871222D01*
X9167373Y-11871222D02*
X9167373Y-11975984D01*
X9291182Y-11975984D02*
X9272134Y-11966460D01*
X9272134Y-11966460D02*
X9262611Y-11956936D01*
X9262611Y-11956936D02*
X9253087Y-11937888D01*
X9253087Y-11937888D02*
X9253087Y-11880746D01*
X9253087Y-11880746D02*
X9262611Y-11861698D01*
X9262611Y-11861698D02*
X9272134Y-11852174D01*
X9272134Y-11852174D02*
X9291182Y-11842650D01*
X9291182Y-11842650D02*
X9319754Y-11842650D01*
X9319754Y-11842650D02*
X9338801Y-11852174D01*
X9338801Y-11852174D02*
X9348325Y-11861698D01*
X9348325Y-11861698D02*
X9357849Y-11880746D01*
X9357849Y-11880746D02*
X9357849Y-11937888D01*
X9357849Y-11937888D02*
X9348325Y-11956936D01*
X9348325Y-11956936D02*
X9338801Y-11966460D01*
X9338801Y-11966460D02*
X9319754Y-11975984D01*
X9319754Y-11975984D02*
X9291182Y-11975984D01*
X9414992Y-11842650D02*
X9491182Y-11842650D01*
X9443563Y-11775984D02*
X9443563Y-11947412D01*
X9443563Y-11947412D02*
X9453087Y-11966460D01*
X9453087Y-11966460D02*
X9472134Y-11975984D01*
X9472134Y-11975984D02*
X9491182Y-11975984D01*
X9710230Y-11842650D02*
X9710230Y-12042650D01*
X9710230Y-11852174D02*
X9729277Y-11842650D01*
X9729277Y-11842650D02*
X9767373Y-11842650D01*
X9767373Y-11842650D02*
X9786420Y-11852174D01*
X9786420Y-11852174D02*
X9795944Y-11861698D01*
X9795944Y-11861698D02*
X9805468Y-11880746D01*
X9805468Y-11880746D02*
X9805468Y-11937888D01*
X9805468Y-11937888D02*
X9795944Y-11956936D01*
X9795944Y-11956936D02*
X9786420Y-11966460D01*
X9786420Y-11966460D02*
X9767373Y-11975984D01*
X9767373Y-11975984D02*
X9729277Y-11975984D01*
X9729277Y-11975984D02*
X9710230Y-11966460D01*
X9919754Y-11975984D02*
X9900706Y-11966460D01*
X9900706Y-11966460D02*
X9891182Y-11947412D01*
X9891182Y-11947412D02*
X9891182Y-11775984D01*
X10081658Y-11975984D02*
X10081658Y-11871222D01*
X10081658Y-11871222D02*
X10072135Y-11852174D01*
X10072135Y-11852174D02*
X10053087Y-11842650D01*
X10053087Y-11842650D02*
X10014992Y-11842650D01*
X10014992Y-11842650D02*
X9995944Y-11852174D01*
X10081658Y-11966460D02*
X10062611Y-11975984D01*
X10062611Y-11975984D02*
X10014992Y-11975984D01*
X10014992Y-11975984D02*
X9995944Y-11966460D01*
X9995944Y-11966460D02*
X9986420Y-11947412D01*
X9986420Y-11947412D02*
X9986420Y-11928365D01*
X9986420Y-11928365D02*
X9995944Y-11909317D01*
X9995944Y-11909317D02*
X10014992Y-11899793D01*
X10014992Y-11899793D02*
X10062611Y-11899793D01*
X10062611Y-11899793D02*
X10081658Y-11890269D01*
X10148325Y-11842650D02*
X10224515Y-11842650D01*
X10176896Y-11775984D02*
X10176896Y-11947412D01*
X10176896Y-11947412D02*
X10186420Y-11966460D01*
X10186420Y-11966460D02*
X10205468Y-11975984D01*
X10205468Y-11975984D02*
X10224515Y-11975984D01*
X10367373Y-11966460D02*
X10348325Y-11975984D01*
X10348325Y-11975984D02*
X10310230Y-11975984D01*
X10310230Y-11975984D02*
X10291182Y-11966460D01*
X10291182Y-11966460D02*
X10281658Y-11947412D01*
X10281658Y-11947412D02*
X10281658Y-11871222D01*
X10281658Y-11871222D02*
X10291182Y-11852174D01*
X10291182Y-11852174D02*
X10310230Y-11842650D01*
X10310230Y-11842650D02*
X10348325Y-11842650D01*
X10348325Y-11842650D02*
X10367373Y-11852174D01*
X10367373Y-11852174D02*
X10376896Y-11871222D01*
X10376896Y-11871222D02*
X10376896Y-11890269D01*
X10376896Y-11890269D02*
X10281658Y-11909317D01*
X10548325Y-11975984D02*
X10548325Y-11775984D01*
X10548325Y-11966460D02*
X10529277Y-11975984D01*
X10529277Y-11975984D02*
X10491182Y-11975984D01*
X10491182Y-11975984D02*
X10472135Y-11966460D01*
X10472135Y-11966460D02*
X10462611Y-11956936D01*
X10462611Y-11956936D02*
X10453087Y-11937888D01*
X10453087Y-11937888D02*
X10453087Y-11880746D01*
X10453087Y-11880746D02*
X10462611Y-11861698D01*
X10462611Y-11861698D02*
X10472135Y-11852174D01*
X10472135Y-11852174D02*
X10491182Y-11842650D01*
X10491182Y-11842650D02*
X10529277Y-11842650D01*
X10529277Y-11842650D02*
X10548325Y-11852174D01*
X10624516Y-12052174D02*
X10634039Y-12042650D01*
X10634039Y-12042650D02*
X10653087Y-12014079D01*
X10653087Y-12014079D02*
X10662611Y-11995031D01*
X10662611Y-11995031D02*
X10672135Y-11966460D01*
X10672135Y-11966460D02*
X10681658Y-11918841D01*
X10681658Y-11918841D02*
X10681658Y-11880746D01*
X10681658Y-11880746D02*
X10672135Y-11833127D01*
X10672135Y-11833127D02*
X10662611Y-11804555D01*
X10662611Y-11804555D02*
X10653087Y-11785508D01*
X10653087Y-11785508D02*
X10634039Y-11756936D01*
X10634039Y-11756936D02*
X10624516Y-11747412D01*
X3868500Y-12204500D02*
G75*
G03*
X3868500Y-12204500I-100000J0D01*
G01*
X4214991Y-12162650D02*
X4214991Y-12295984D01*
X4167372Y-12086460D02*
X4119753Y-12229317D01*
X4119753Y-12229317D02*
X4243563Y-12229317D01*
X4319753Y-12276936D02*
X4329277Y-12286460D01*
X4329277Y-12286460D02*
X4319753Y-12295984D01*
X4319753Y-12295984D02*
X4310229Y-12286460D01*
X4310229Y-12286460D02*
X4319753Y-12276936D01*
X4319753Y-12276936D02*
X4319753Y-12295984D01*
X4424515Y-12295984D02*
X4462610Y-12295984D01*
X4462610Y-12295984D02*
X4481658Y-12286460D01*
X4481658Y-12286460D02*
X4491182Y-12276936D01*
X4491182Y-12276936D02*
X4510229Y-12248365D01*
X4510229Y-12248365D02*
X4519753Y-12210269D01*
X4519753Y-12210269D02*
X4519753Y-12134079D01*
X4519753Y-12134079D02*
X4510229Y-12115031D01*
X4510229Y-12115031D02*
X4500705Y-12105508D01*
X4500705Y-12105508D02*
X4481658Y-12095984D01*
X4481658Y-12095984D02*
X4443563Y-12095984D01*
X4443563Y-12095984D02*
X4424515Y-12105508D01*
X4424515Y-12105508D02*
X4414991Y-12115031D01*
X4414991Y-12115031D02*
X4405467Y-12134079D01*
X4405467Y-12134079D02*
X4405467Y-12181698D01*
X4405467Y-12181698D02*
X4414991Y-12200746D01*
X4414991Y-12200746D02*
X4424515Y-12210269D01*
X4424515Y-12210269D02*
X4443563Y-12219793D01*
X4443563Y-12219793D02*
X4481658Y-12219793D01*
X4481658Y-12219793D02*
X4500705Y-12210269D01*
X4500705Y-12210269D02*
X4510229Y-12200746D01*
X4510229Y-12200746D02*
X4519753Y-12181698D01*
X4614991Y-12295984D02*
X4653086Y-12295984D01*
X4653086Y-12295984D02*
X4672134Y-12286460D01*
X4672134Y-12286460D02*
X4681658Y-12276936D01*
X4681658Y-12276936D02*
X4700705Y-12248365D01*
X4700705Y-12248365D02*
X4710229Y-12210269D01*
X4710229Y-12210269D02*
X4710229Y-12134079D01*
X4710229Y-12134079D02*
X4700705Y-12115031D01*
X4700705Y-12115031D02*
X4691182Y-12105508D01*
X4691182Y-12105508D02*
X4672134Y-12095984D01*
X4672134Y-12095984D02*
X4634039Y-12095984D01*
X4634039Y-12095984D02*
X4614991Y-12105508D01*
X4614991Y-12105508D02*
X4605467Y-12115031D01*
X4605467Y-12115031D02*
X4595944Y-12134079D01*
X4595944Y-12134079D02*
X4595944Y-12181698D01*
X4595944Y-12181698D02*
X4605467Y-12200746D01*
X4605467Y-12200746D02*
X4614991Y-12210269D01*
X4614991Y-12210269D02*
X4634039Y-12219793D01*
X4634039Y-12219793D02*
X4672134Y-12219793D01*
X4672134Y-12219793D02*
X4691182Y-12210269D01*
X4691182Y-12210269D02*
X4700705Y-12200746D01*
X4700705Y-12200746D02*
X4710229Y-12181698D01*
X4805467Y-12295984D02*
X4843563Y-12295984D01*
X4843563Y-12295984D02*
X4862610Y-12286460D01*
X4862610Y-12286460D02*
X4872134Y-12276936D01*
X4872134Y-12276936D02*
X4891182Y-12248365D01*
X4891182Y-12248365D02*
X4900705Y-12210269D01*
X4900705Y-12210269D02*
X4900705Y-12134079D01*
X4900705Y-12134079D02*
X4891182Y-12115031D01*
X4891182Y-12115031D02*
X4881658Y-12105508D01*
X4881658Y-12105508D02*
X4862610Y-12095984D01*
X4862610Y-12095984D02*
X4824515Y-12095984D01*
X4824515Y-12095984D02*
X4805467Y-12105508D01*
X4805467Y-12105508D02*
X4795944Y-12115031D01*
X4795944Y-12115031D02*
X4786420Y-12134079D01*
X4786420Y-12134079D02*
X4786420Y-12181698D01*
X4786420Y-12181698D02*
X4795944Y-12200746D01*
X4795944Y-12200746D02*
X4805467Y-12210269D01*
X4805467Y-12210269D02*
X4824515Y-12219793D01*
X4824515Y-12219793D02*
X4862610Y-12219793D01*
X4862610Y-12219793D02*
X4881658Y-12210269D01*
X4881658Y-12210269D02*
X4891182Y-12200746D01*
X4891182Y-12200746D02*
X4900705Y-12181698D01*
X4986420Y-12295984D02*
X4986420Y-12162650D01*
X4986420Y-12181698D02*
X4995944Y-12172174D01*
X4995944Y-12172174D02*
X5014991Y-12162650D01*
X5014991Y-12162650D02*
X5043563Y-12162650D01*
X5043563Y-12162650D02*
X5062610Y-12172174D01*
X5062610Y-12172174D02*
X5072134Y-12191222D01*
X5072134Y-12191222D02*
X5072134Y-12295984D01*
X5072134Y-12191222D02*
X5081658Y-12172174D01*
X5081658Y-12172174D02*
X5100705Y-12162650D01*
X5100705Y-12162650D02*
X5129277Y-12162650D01*
X5129277Y-12162650D02*
X5148325Y-12172174D01*
X5148325Y-12172174D02*
X5157848Y-12191222D01*
X5157848Y-12191222D02*
X5157848Y-12295984D01*
X5253086Y-12295984D02*
X5253086Y-12162650D01*
X5253086Y-12181698D02*
X5262610Y-12172174D01*
X5262610Y-12172174D02*
X5281658Y-12162650D01*
X5281658Y-12162650D02*
X5310229Y-12162650D01*
X5310229Y-12162650D02*
X5329277Y-12172174D01*
X5329277Y-12172174D02*
X5338801Y-12191222D01*
X5338801Y-12191222D02*
X5338801Y-12295984D01*
X5338801Y-12191222D02*
X5348325Y-12172174D01*
X5348325Y-12172174D02*
X5367372Y-12162650D01*
X5367372Y-12162650D02*
X5395944Y-12162650D01*
X5395944Y-12162650D02*
X5414991Y-12172174D01*
X5414991Y-12172174D02*
X5424515Y-12191222D01*
X5424515Y-12191222D02*
X5424515Y-12295984D01*
X5814991Y-12086460D02*
X5643563Y-12343603D01*
X6072134Y-12095984D02*
X6091182Y-12095984D01*
X6091182Y-12095984D02*
X6110229Y-12105508D01*
X6110229Y-12105508D02*
X6119753Y-12115031D01*
X6119753Y-12115031D02*
X6129277Y-12134079D01*
X6129277Y-12134079D02*
X6138801Y-12172174D01*
X6138801Y-12172174D02*
X6138801Y-12219793D01*
X6138801Y-12219793D02*
X6129277Y-12257888D01*
X6129277Y-12257888D02*
X6119753Y-12276936D01*
X6119753Y-12276936D02*
X6110229Y-12286460D01*
X6110229Y-12286460D02*
X6091182Y-12295984D01*
X6091182Y-12295984D02*
X6072134Y-12295984D01*
X6072134Y-12295984D02*
X6053086Y-12286460D01*
X6053086Y-12286460D02*
X6043563Y-12276936D01*
X6043563Y-12276936D02*
X6034039Y-12257888D01*
X6034039Y-12257888D02*
X6024515Y-12219793D01*
X6024515Y-12219793D02*
X6024515Y-12172174D01*
X6024515Y-12172174D02*
X6034039Y-12134079D01*
X6034039Y-12134079D02*
X6043563Y-12115031D01*
X6043563Y-12115031D02*
X6053086Y-12105508D01*
X6053086Y-12105508D02*
X6072134Y-12095984D01*
X6224515Y-12276936D02*
X6234039Y-12286460D01*
X6234039Y-12286460D02*
X6224515Y-12295984D01*
X6224515Y-12295984D02*
X6214991Y-12286460D01*
X6214991Y-12286460D02*
X6224515Y-12276936D01*
X6224515Y-12276936D02*
X6224515Y-12295984D01*
X6424515Y-12295984D02*
X6310229Y-12295984D01*
X6367372Y-12295984D02*
X6367372Y-12095984D01*
X6367372Y-12095984D02*
X6348325Y-12124555D01*
X6348325Y-12124555D02*
X6329277Y-12143603D01*
X6329277Y-12143603D02*
X6310229Y-12153127D01*
X6519753Y-12295984D02*
X6557848Y-12295984D01*
X6557848Y-12295984D02*
X6576896Y-12286460D01*
X6576896Y-12286460D02*
X6586420Y-12276936D01*
X6586420Y-12276936D02*
X6605467Y-12248365D01*
X6605467Y-12248365D02*
X6614991Y-12210269D01*
X6614991Y-12210269D02*
X6614991Y-12134079D01*
X6614991Y-12134079D02*
X6605467Y-12115031D01*
X6605467Y-12115031D02*
X6595944Y-12105508D01*
X6595944Y-12105508D02*
X6576896Y-12095984D01*
X6576896Y-12095984D02*
X6538801Y-12095984D01*
X6538801Y-12095984D02*
X6519753Y-12105508D01*
X6519753Y-12105508D02*
X6510229Y-12115031D01*
X6510229Y-12115031D02*
X6500706Y-12134079D01*
X6500706Y-12134079D02*
X6500706Y-12181698D01*
X6500706Y-12181698D02*
X6510229Y-12200746D01*
X6510229Y-12200746D02*
X6519753Y-12210269D01*
X6519753Y-12210269D02*
X6538801Y-12219793D01*
X6538801Y-12219793D02*
X6576896Y-12219793D01*
X6576896Y-12219793D02*
X6595944Y-12210269D01*
X6595944Y-12210269D02*
X6605467Y-12200746D01*
X6605467Y-12200746D02*
X6614991Y-12181698D01*
X6786420Y-12095984D02*
X6748325Y-12095984D01*
X6748325Y-12095984D02*
X6729277Y-12105508D01*
X6729277Y-12105508D02*
X6719753Y-12115031D01*
X6719753Y-12115031D02*
X6700706Y-12143603D01*
X6700706Y-12143603D02*
X6691182Y-12181698D01*
X6691182Y-12181698D02*
X6691182Y-12257888D01*
X6691182Y-12257888D02*
X6700706Y-12276936D01*
X6700706Y-12276936D02*
X6710229Y-12286460D01*
X6710229Y-12286460D02*
X6729277Y-12295984D01*
X6729277Y-12295984D02*
X6767372Y-12295984D01*
X6767372Y-12295984D02*
X6786420Y-12286460D01*
X6786420Y-12286460D02*
X6795944Y-12276936D01*
X6795944Y-12276936D02*
X6805467Y-12257888D01*
X6805467Y-12257888D02*
X6805467Y-12210269D01*
X6805467Y-12210269D02*
X6795944Y-12191222D01*
X6795944Y-12191222D02*
X6786420Y-12181698D01*
X6786420Y-12181698D02*
X6767372Y-12172174D01*
X6767372Y-12172174D02*
X6729277Y-12172174D01*
X6729277Y-12172174D02*
X6710229Y-12181698D01*
X6710229Y-12181698D02*
X6700706Y-12191222D01*
X6700706Y-12191222D02*
X6691182Y-12210269D01*
X6919753Y-12181698D02*
X6900706Y-12172174D01*
X6900706Y-12172174D02*
X6891182Y-12162650D01*
X6891182Y-12162650D02*
X6881658Y-12143603D01*
X6881658Y-12143603D02*
X6881658Y-12134079D01*
X6881658Y-12134079D02*
X6891182Y-12115031D01*
X6891182Y-12115031D02*
X6900706Y-12105508D01*
X6900706Y-12105508D02*
X6919753Y-12095984D01*
X6919753Y-12095984D02*
X6957848Y-12095984D01*
X6957848Y-12095984D02*
X6976896Y-12105508D01*
X6976896Y-12105508D02*
X6986420Y-12115031D01*
X6986420Y-12115031D02*
X6995944Y-12134079D01*
X6995944Y-12134079D02*
X6995944Y-12143603D01*
X6995944Y-12143603D02*
X6986420Y-12162650D01*
X6986420Y-12162650D02*
X6976896Y-12172174D01*
X6976896Y-12172174D02*
X6957848Y-12181698D01*
X6957848Y-12181698D02*
X6919753Y-12181698D01*
X6919753Y-12181698D02*
X6900706Y-12191222D01*
X6900706Y-12191222D02*
X6891182Y-12200746D01*
X6891182Y-12200746D02*
X6881658Y-12219793D01*
X6881658Y-12219793D02*
X6881658Y-12257888D01*
X6881658Y-12257888D02*
X6891182Y-12276936D01*
X6891182Y-12276936D02*
X6900706Y-12286460D01*
X6900706Y-12286460D02*
X6919753Y-12295984D01*
X6919753Y-12295984D02*
X6957848Y-12295984D01*
X6957848Y-12295984D02*
X6976896Y-12286460D01*
X6976896Y-12286460D02*
X6986420Y-12276936D01*
X6986420Y-12276936D02*
X6995944Y-12257888D01*
X6995944Y-12257888D02*
X6995944Y-12219793D01*
X6995944Y-12219793D02*
X6986420Y-12200746D01*
X6986420Y-12200746D02*
X6976896Y-12191222D01*
X6976896Y-12191222D02*
X6957848Y-12181698D01*
X7072134Y-12095984D02*
X7072134Y-12134079D01*
X7148325Y-12095984D02*
X7148325Y-12134079D01*
X7443563Y-12372174D02*
X7434039Y-12362650D01*
X7434039Y-12362650D02*
X7414991Y-12334079D01*
X7414991Y-12334079D02*
X7405468Y-12315031D01*
X7405468Y-12315031D02*
X7395944Y-12286460D01*
X7395944Y-12286460D02*
X7386420Y-12238841D01*
X7386420Y-12238841D02*
X7386420Y-12200746D01*
X7386420Y-12200746D02*
X7395944Y-12153127D01*
X7395944Y-12153127D02*
X7405468Y-12124555D01*
X7405468Y-12124555D02*
X7414991Y-12105508D01*
X7414991Y-12105508D02*
X7434039Y-12076936D01*
X7434039Y-12076936D02*
X7443563Y-12067412D01*
X7605468Y-12095984D02*
X7567372Y-12095984D01*
X7567372Y-12095984D02*
X7548325Y-12105508D01*
X7548325Y-12105508D02*
X7538801Y-12115031D01*
X7538801Y-12115031D02*
X7519753Y-12143603D01*
X7519753Y-12143603D02*
X7510229Y-12181698D01*
X7510229Y-12181698D02*
X7510229Y-12257888D01*
X7510229Y-12257888D02*
X7519753Y-12276936D01*
X7519753Y-12276936D02*
X7529277Y-12286460D01*
X7529277Y-12286460D02*
X7548325Y-12295984D01*
X7548325Y-12295984D02*
X7586420Y-12295984D01*
X7586420Y-12295984D02*
X7605468Y-12286460D01*
X7605468Y-12286460D02*
X7614991Y-12276936D01*
X7614991Y-12276936D02*
X7624515Y-12257888D01*
X7624515Y-12257888D02*
X7624515Y-12210269D01*
X7624515Y-12210269D02*
X7614991Y-12191222D01*
X7614991Y-12191222D02*
X7605468Y-12181698D01*
X7605468Y-12181698D02*
X7586420Y-12172174D01*
X7586420Y-12172174D02*
X7548325Y-12172174D01*
X7548325Y-12172174D02*
X7529277Y-12181698D01*
X7529277Y-12181698D02*
X7519753Y-12191222D01*
X7519753Y-12191222D02*
X7510229Y-12210269D01*
X7862610Y-12295984D02*
X7862610Y-12095984D01*
X7948325Y-12295984D02*
X7948325Y-12191222D01*
X7948325Y-12191222D02*
X7938801Y-12172174D01*
X7938801Y-12172174D02*
X7919753Y-12162650D01*
X7919753Y-12162650D02*
X7891182Y-12162650D01*
X7891182Y-12162650D02*
X7872134Y-12172174D01*
X7872134Y-12172174D02*
X7862610Y-12181698D01*
X8072134Y-12295984D02*
X8053087Y-12286460D01*
X8053087Y-12286460D02*
X8043563Y-12276936D01*
X8043563Y-12276936D02*
X8034039Y-12257888D01*
X8034039Y-12257888D02*
X8034039Y-12200746D01*
X8034039Y-12200746D02*
X8043563Y-12181698D01*
X8043563Y-12181698D02*
X8053087Y-12172174D01*
X8053087Y-12172174D02*
X8072134Y-12162650D01*
X8072134Y-12162650D02*
X8100706Y-12162650D01*
X8100706Y-12162650D02*
X8119753Y-12172174D01*
X8119753Y-12172174D02*
X8129277Y-12181698D01*
X8129277Y-12181698D02*
X8138801Y-12200746D01*
X8138801Y-12200746D02*
X8138801Y-12257888D01*
X8138801Y-12257888D02*
X8129277Y-12276936D01*
X8129277Y-12276936D02*
X8119753Y-12286460D01*
X8119753Y-12286460D02*
X8100706Y-12295984D01*
X8100706Y-12295984D02*
X8072134Y-12295984D01*
X8253087Y-12295984D02*
X8234039Y-12286460D01*
X8234039Y-12286460D02*
X8224515Y-12267412D01*
X8224515Y-12267412D02*
X8224515Y-12095984D01*
X8405468Y-12286460D02*
X8386420Y-12295984D01*
X8386420Y-12295984D02*
X8348325Y-12295984D01*
X8348325Y-12295984D02*
X8329277Y-12286460D01*
X8329277Y-12286460D02*
X8319753Y-12267412D01*
X8319753Y-12267412D02*
X8319753Y-12191222D01*
X8319753Y-12191222D02*
X8329277Y-12172174D01*
X8329277Y-12172174D02*
X8348325Y-12162650D01*
X8348325Y-12162650D02*
X8386420Y-12162650D01*
X8386420Y-12162650D02*
X8405468Y-12172174D01*
X8405468Y-12172174D02*
X8414992Y-12191222D01*
X8414992Y-12191222D02*
X8414992Y-12210269D01*
X8414992Y-12210269D02*
X8319753Y-12229317D01*
X8491182Y-12286460D02*
X8510230Y-12295984D01*
X8510230Y-12295984D02*
X8548325Y-12295984D01*
X8548325Y-12295984D02*
X8567373Y-12286460D01*
X8567373Y-12286460D02*
X8576896Y-12267412D01*
X8576896Y-12267412D02*
X8576896Y-12257888D01*
X8576896Y-12257888D02*
X8567373Y-12238841D01*
X8567373Y-12238841D02*
X8548325Y-12229317D01*
X8548325Y-12229317D02*
X8519753Y-12229317D01*
X8519753Y-12229317D02*
X8500706Y-12219793D01*
X8500706Y-12219793D02*
X8491182Y-12200746D01*
X8491182Y-12200746D02*
X8491182Y-12191222D01*
X8491182Y-12191222D02*
X8500706Y-12172174D01*
X8500706Y-12172174D02*
X8519753Y-12162650D01*
X8519753Y-12162650D02*
X8548325Y-12162650D01*
X8548325Y-12162650D02*
X8567373Y-12172174D01*
X8643563Y-12372174D02*
X8653087Y-12362650D01*
X8653087Y-12362650D02*
X8672134Y-12334079D01*
X8672134Y-12334079D02*
X8681658Y-12315031D01*
X8681658Y-12315031D02*
X8691182Y-12286460D01*
X8691182Y-12286460D02*
X8700706Y-12238841D01*
X8700706Y-12238841D02*
X8700706Y-12200746D01*
X8700706Y-12200746D02*
X8691182Y-12153127D01*
X8691182Y-12153127D02*
X8681658Y-12124555D01*
X8681658Y-12124555D02*
X8672134Y-12105508D01*
X8672134Y-12105508D02*
X8653087Y-12076936D01*
X8653087Y-12076936D02*
X8643563Y-12067412D01*
X9005468Y-12372174D02*
X8995944Y-12362650D01*
X8995944Y-12362650D02*
X8976896Y-12334079D01*
X8976896Y-12334079D02*
X8967373Y-12315031D01*
X8967373Y-12315031D02*
X8957849Y-12286460D01*
X8957849Y-12286460D02*
X8948325Y-12238841D01*
X8948325Y-12238841D02*
X8948325Y-12200746D01*
X8948325Y-12200746D02*
X8957849Y-12153127D01*
X8957849Y-12153127D02*
X8967373Y-12124555D01*
X8967373Y-12124555D02*
X8976896Y-12105508D01*
X8976896Y-12105508D02*
X8995944Y-12076936D01*
X8995944Y-12076936D02*
X9005468Y-12067412D01*
X9081658Y-12162650D02*
X9081658Y-12295984D01*
X9081658Y-12181698D02*
X9091182Y-12172174D01*
X9091182Y-12172174D02*
X9110230Y-12162650D01*
X9110230Y-12162650D02*
X9138801Y-12162650D01*
X9138801Y-12162650D02*
X9157849Y-12172174D01*
X9157849Y-12172174D02*
X9167373Y-12191222D01*
X9167373Y-12191222D02*
X9167373Y-12295984D01*
X9291182Y-12295984D02*
X9272134Y-12286460D01*
X9272134Y-12286460D02*
X9262611Y-12276936D01*
X9262611Y-12276936D02*
X9253087Y-12257888D01*
X9253087Y-12257888D02*
X9253087Y-12200746D01*
X9253087Y-12200746D02*
X9262611Y-12181698D01*
X9262611Y-12181698D02*
X9272134Y-12172174D01*
X9272134Y-12172174D02*
X9291182Y-12162650D01*
X9291182Y-12162650D02*
X9319754Y-12162650D01*
X9319754Y-12162650D02*
X9338801Y-12172174D01*
X9338801Y-12172174D02*
X9348325Y-12181698D01*
X9348325Y-12181698D02*
X9357849Y-12200746D01*
X9357849Y-12200746D02*
X9357849Y-12257888D01*
X9357849Y-12257888D02*
X9348325Y-12276936D01*
X9348325Y-12276936D02*
X9338801Y-12286460D01*
X9338801Y-12286460D02*
X9319754Y-12295984D01*
X9319754Y-12295984D02*
X9291182Y-12295984D01*
X9414992Y-12162650D02*
X9491182Y-12162650D01*
X9443563Y-12095984D02*
X9443563Y-12267412D01*
X9443563Y-12267412D02*
X9453087Y-12286460D01*
X9453087Y-12286460D02*
X9472134Y-12295984D01*
X9472134Y-12295984D02*
X9491182Y-12295984D01*
X9710230Y-12162650D02*
X9710230Y-12362650D01*
X9710230Y-12172174D02*
X9729277Y-12162650D01*
X9729277Y-12162650D02*
X9767373Y-12162650D01*
X9767373Y-12162650D02*
X9786420Y-12172174D01*
X9786420Y-12172174D02*
X9795944Y-12181698D01*
X9795944Y-12181698D02*
X9805468Y-12200746D01*
X9805468Y-12200746D02*
X9805468Y-12257888D01*
X9805468Y-12257888D02*
X9795944Y-12276936D01*
X9795944Y-12276936D02*
X9786420Y-12286460D01*
X9786420Y-12286460D02*
X9767373Y-12295984D01*
X9767373Y-12295984D02*
X9729277Y-12295984D01*
X9729277Y-12295984D02*
X9710230Y-12286460D01*
X9919754Y-12295984D02*
X9900706Y-12286460D01*
X9900706Y-12286460D02*
X9891182Y-12267412D01*
X9891182Y-12267412D02*
X9891182Y-12095984D01*
X10081658Y-12295984D02*
X10081658Y-12191222D01*
X10081658Y-12191222D02*
X10072135Y-12172174D01*
X10072135Y-12172174D02*
X10053087Y-12162650D01*
X10053087Y-12162650D02*
X10014992Y-12162650D01*
X10014992Y-12162650D02*
X9995944Y-12172174D01*
X10081658Y-12286460D02*
X10062611Y-12295984D01*
X10062611Y-12295984D02*
X10014992Y-12295984D01*
X10014992Y-12295984D02*
X9995944Y-12286460D01*
X9995944Y-12286460D02*
X9986420Y-12267412D01*
X9986420Y-12267412D02*
X9986420Y-12248365D01*
X9986420Y-12248365D02*
X9995944Y-12229317D01*
X9995944Y-12229317D02*
X10014992Y-12219793D01*
X10014992Y-12219793D02*
X10062611Y-12219793D01*
X10062611Y-12219793D02*
X10081658Y-12210269D01*
X10148325Y-12162650D02*
X10224515Y-12162650D01*
X10176896Y-12095984D02*
X10176896Y-12267412D01*
X10176896Y-12267412D02*
X10186420Y-12286460D01*
X10186420Y-12286460D02*
X10205468Y-12295984D01*
X10205468Y-12295984D02*
X10224515Y-12295984D01*
X10367373Y-12286460D02*
X10348325Y-12295984D01*
X10348325Y-12295984D02*
X10310230Y-12295984D01*
X10310230Y-12295984D02*
X10291182Y-12286460D01*
X10291182Y-12286460D02*
X10281658Y-12267412D01*
X10281658Y-12267412D02*
X10281658Y-12191222D01*
X10281658Y-12191222D02*
X10291182Y-12172174D01*
X10291182Y-12172174D02*
X10310230Y-12162650D01*
X10310230Y-12162650D02*
X10348325Y-12162650D01*
X10348325Y-12162650D02*
X10367373Y-12172174D01*
X10367373Y-12172174D02*
X10376896Y-12191222D01*
X10376896Y-12191222D02*
X10376896Y-12210269D01*
X10376896Y-12210269D02*
X10281658Y-12229317D01*
X10548325Y-12295984D02*
X10548325Y-12095984D01*
X10548325Y-12286460D02*
X10529277Y-12295984D01*
X10529277Y-12295984D02*
X10491182Y-12295984D01*
X10491182Y-12295984D02*
X10472135Y-12286460D01*
X10472135Y-12286460D02*
X10462611Y-12276936D01*
X10462611Y-12276936D02*
X10453087Y-12257888D01*
X10453087Y-12257888D02*
X10453087Y-12200746D01*
X10453087Y-12200746D02*
X10462611Y-12181698D01*
X10462611Y-12181698D02*
X10472135Y-12172174D01*
X10472135Y-12172174D02*
X10491182Y-12162650D01*
X10491182Y-12162650D02*
X10529277Y-12162650D01*
X10529277Y-12162650D02*
X10548325Y-12172174D01*
X10624516Y-12372174D02*
X10634039Y-12362650D01*
X10634039Y-12362650D02*
X10653087Y-12334079D01*
X10653087Y-12334079D02*
X10662611Y-12315031D01*
X10662611Y-12315031D02*
X10672135Y-12286460D01*
X10672135Y-12286460D02*
X10681658Y-12238841D01*
X10681658Y-12238841D02*
X10681658Y-12200746D01*
X10681658Y-12200746D02*
X10672135Y-12153127D01*
X10672135Y-12153127D02*
X10662611Y-12124555D01*
X10662611Y-12124555D02*
X10653087Y-12105508D01*
X10653087Y-12105508D02*
X10634039Y-12076936D01*
X10634039Y-12076936D02*
X10624516Y-12067412D01*
M02*
