%TF.GenerationSoftware,KiCad,Pcbnew,7.0.2-0*%
%TF.CreationDate,2023-05-13T13:36:10-07:00*%
%TF.ProjectId,nixie3,6e697869-6533-42e6-9b69-6361645f7063,rev?*%
%TF.SameCoordinates,Original*%
%TF.FileFunction,Copper,L2,Bot*%
%TF.FilePolarity,Positive*%
%FSLAX46Y46*%
G04 Gerber Fmt 4.6, Leading zero omitted, Abs format (unit mm)*
G04 Created by KiCad (PCBNEW 7.0.2-0) date 2023-05-13 13:36:10*
%MOMM*%
%LPD*%
G01*
G04 APERTURE LIST*
G04 Aperture macros list*
%AMRoundRect*
0 Rectangle with rounded corners*
0 $1 Rounding radius*
0 $2 $3 $4 $5 $6 $7 $8 $9 X,Y pos of 4 corners*
0 Add a 4 corners polygon primitive as box body*
4,1,4,$2,$3,$4,$5,$6,$7,$8,$9,$2,$3,0*
0 Add four circle primitives for the rounded corners*
1,1,$1+$1,$2,$3*
1,1,$1+$1,$4,$5*
1,1,$1+$1,$6,$7*
1,1,$1+$1,$8,$9*
0 Add four rect primitives between the rounded corners*
20,1,$1+$1,$2,$3,$4,$5,0*
20,1,$1+$1,$4,$5,$6,$7,0*
20,1,$1+$1,$6,$7,$8,$9,0*
20,1,$1+$1,$8,$9,$2,$3,0*%
G04 Aperture macros list end*
%TA.AperFunction,ComponentPad*%
%ADD10C,1.600000*%
%TD*%
%TA.AperFunction,ComponentPad*%
%ADD11O,1.600000X1.600000*%
%TD*%
%TA.AperFunction,ComponentPad*%
%ADD12C,1.400000*%
%TD*%
%TA.AperFunction,ComponentPad*%
%ADD13O,1.400000X1.400000*%
%TD*%
%TA.AperFunction,ComponentPad*%
%ADD14R,1.200000X1.200000*%
%TD*%
%TA.AperFunction,ComponentPad*%
%ADD15C,1.200000*%
%TD*%
%TA.AperFunction,ComponentPad*%
%ADD16C,2.540000*%
%TD*%
%TA.AperFunction,ComponentPad*%
%ADD17R,2.400000X2.400000*%
%TD*%
%TA.AperFunction,ComponentPad*%
%ADD18O,2.400000X2.400000*%
%TD*%
%TA.AperFunction,ComponentPad*%
%ADD19R,1.800000X1.800000*%
%TD*%
%TA.AperFunction,ComponentPad*%
%ADD20C,1.800000*%
%TD*%
%TA.AperFunction,ComponentPad*%
%ADD21R,1.700000X1.700000*%
%TD*%
%TA.AperFunction,ComponentPad*%
%ADD22O,1.700000X1.700000*%
%TD*%
%TA.AperFunction,ComponentPad*%
%ADD23C,3.000000*%
%TD*%
%TA.AperFunction,ComponentPad*%
%ADD24R,1.600000X1.600000*%
%TD*%
%TA.AperFunction,ComponentPad*%
%ADD25R,1.905000X2.000000*%
%TD*%
%TA.AperFunction,ComponentPad*%
%ADD26O,1.905000X2.000000*%
%TD*%
%TA.AperFunction,ComponentPad*%
%ADD27R,3.500000X3.500000*%
%TD*%
%TA.AperFunction,ComponentPad*%
%ADD28RoundRect,0.750000X-1.000000X0.750000X-1.000000X-0.750000X1.000000X-0.750000X1.000000X0.750000X0*%
%TD*%
%TA.AperFunction,ComponentPad*%
%ADD29RoundRect,0.875000X-0.875000X0.875000X-0.875000X-0.875000X0.875000X-0.875000X0.875000X0.875000X0*%
%TD*%
%TA.AperFunction,ViaPad*%
%ADD30C,0.800000*%
%TD*%
%TA.AperFunction,Conductor*%
%ADD31C,0.250000*%
%TD*%
%TA.AperFunction,Conductor*%
%ADD32C,0.500000*%
%TD*%
%TA.AperFunction,Conductor*%
%ADD33C,1.000000*%
%TD*%
G04 APERTURE END LIST*
D10*
%TO.P,R17,1*%
%TO.N,Net-(U1-PD6)*%
X81915000Y-44450000D03*
D11*
%TO.P,R17,2*%
%TO.N,VDD*%
X84455000Y-44450000D03*
%TD*%
D10*
%TO.P,R10,1*%
%TO.N,Net-(NX6-PadA)*%
X188595000Y-103505000D03*
D11*
%TO.P,R10,2*%
%TO.N,Net-(D1-K)*%
X191135000Y-103505000D03*
%TD*%
D10*
%TO.P,R3,1*%
%TO.N,Net-(U1-ADC6)*%
X87630000Y-48895000D03*
D11*
%TO.P,R3,2*%
%TO.N,GND*%
X90170000Y-48895000D03*
%TD*%
D10*
%TO.P,R12,1*%
%TO.N,Net-(NE3-Pad1)*%
X139290000Y-103505000D03*
D11*
%TO.P,R12,2*%
%TO.N,Net-(D1-K)*%
X141830000Y-103505000D03*
%TD*%
D12*
%TO.P,R1,1*%
%TO.N,VDD*%
X108590000Y-59690000D03*
D13*
%TO.P,R1,2*%
%TO.N,Net-(J1-~{RST})*%
X110490000Y-59690000D03*
%TD*%
D10*
%TO.P,R15,1*%
%TO.N,VDD*%
X169320000Y-60960000D03*
D11*
%TO.P,R15,2*%
%TO.N,Net-(U5-Vfb)*%
X166780000Y-60960000D03*
%TD*%
D10*
%TO.P,R13,1*%
%TO.N,Net-(NE4-Pad1)*%
X144780000Y-103505000D03*
D11*
%TO.P,R13,2*%
%TO.N,Net-(D1-K)*%
X147320000Y-103505000D03*
%TD*%
D14*
%TO.P,C1,1*%
%TO.N,Net-(J1-~{RST})*%
X114705000Y-59690000D03*
D15*
%TO.P,C1,2*%
%TO.N,GND*%
X116205000Y-59690000D03*
%TD*%
D16*
%TO.P,NX3,0,0*%
%TO.N,/Net-(U3A-HVOUT6)*%
X109220000Y-97282000D03*
%TO.P,NX3,1,1*%
%TO.N,/Net-(U3A-HVOUT5)*%
X99857560Y-100599240D03*
%TO.P,NX3,2,2*%
%TO.N,/Net-(U3A-HVOUT4)*%
X98173540Y-97282000D03*
%TO.P,NX3,3,3*%
%TO.N,/Net-(U3A-HVOUT3)*%
X98046540Y-92783660D03*
%TO.P,NX3,4,4*%
%TO.N,/Net-(U3A-HVOUT2)*%
X98173540Y-88285320D03*
%TO.P,NX3,5,5*%
%TO.N,/Net-(U3A-HVOUT11)*%
X99857560Y-84968080D03*
%TO.P,NX3,6,6*%
%TO.N,/Net-(U3A-HVOUT10)*%
X103855520Y-83967320D03*
%TO.P,NX3,7,7*%
%TO.N,/Net-(U3A-HVOUT9)*%
X107853480Y-84968080D03*
%TO.P,NX3,8,8*%
%TO.N,/Net-(U3A-HVOUT8)*%
X109220000Y-88285320D03*
%TO.P,NX3,9,9*%
%TO.N,/Net-(U3A-HVOUT7)*%
X109347000Y-92783660D03*
%TO.P,NX3,A,A*%
%TO.N,Net-(NX3-PadA)*%
X107853480Y-100599240D03*
%TO.P,NX3,LHDP*%
%TO.N,N/C*%
X103855520Y-101600000D03*
%TD*%
D17*
%TO.P,D1,1,K*%
%TO.N,Net-(D1-K)*%
X74295000Y-65405000D03*
D18*
%TO.P,D1,2,A*%
%TO.N,Net-(D1-A)*%
X61595000Y-65405000D03*
%TD*%
D19*
%TO.P,NE1,1*%
%TO.N,Net-(NE1-Pad1)*%
X88900000Y-88900000D03*
D20*
%TO.P,NE1,2*%
%TO.N,/Net-(U3A-HVOUT12)*%
X91440000Y-88900000D03*
%TD*%
D10*
%TO.P,R4,1*%
%TO.N,Net-(D1-K)*%
X90805000Y-104140000D03*
D11*
%TO.P,R4,2*%
%TO.N,Net-(NE1-Pad1)*%
X88265000Y-104140000D03*
%TD*%
D21*
%TO.P,J4,1,Pin_1*%
%TO.N,Net-(J4-Pin_1)*%
X107130000Y-45720000D03*
D22*
%TO.P,J4,2,Pin_2*%
%TO.N,GND*%
X107130000Y-43180000D03*
%TD*%
D10*
%TO.P,R8,1*%
%TO.N,Net-(NX4-PadA)*%
X133985000Y-104140000D03*
D11*
%TO.P,R8,2*%
%TO.N,Net-(D1-K)*%
X136525000Y-104140000D03*
%TD*%
D21*
%TO.P,J5,1,Pin_1*%
%TO.N,Net-(J5-Pin_1)*%
X111780000Y-45720000D03*
D22*
%TO.P,J5,2,Pin_2*%
%TO.N,GND*%
X111780000Y-43180000D03*
%TD*%
D16*
%TO.P,NX4,0,0*%
%TO.N,/unconnected-(U4A-HVOUT23-Pad44)*%
X132700020Y-97282000D03*
%TO.P,NX4,1,1*%
%TO.N,unconnected-(U4A-HVOUT32-Pad35)*%
X123337580Y-100599240D03*
%TO.P,NX4,2,2*%
%TO.N,/unconnected-(U4A-HVOUT31-Pad36)*%
X121653560Y-97282000D03*
%TO.P,NX4,3,3*%
%TO.N,/unconnected-(U4A-HVOUT30-Pad37)*%
X121526560Y-92783660D03*
%TO.P,NX4,4,4*%
%TO.N,/unconnected-(U4A-HVOUT29-Pad38)*%
X121653560Y-88285320D03*
%TO.P,NX4,5,5*%
%TO.N,/unconnected-(U4A-HVOUT28-Pad39)*%
X123337580Y-84968080D03*
%TO.P,NX4,6,6*%
%TO.N,/unconnected-(U4A-HVOUT27-Pad40)*%
X127335540Y-83967320D03*
%TO.P,NX4,7,7*%
%TO.N,/unconnected-(U4A-HVOUT26-Pad41)*%
X131333500Y-84968080D03*
%TO.P,NX4,8,8*%
%TO.N,/unconnected-(U4A-HVOUT25-Pad42)*%
X132700020Y-88285320D03*
%TO.P,NX4,9,9*%
%TO.N,unconnected-(U4A-HVOUT24-Pad43)*%
X132827020Y-92783660D03*
%TO.P,NX4,A,A*%
%TO.N,Net-(NX4-PadA)*%
X131333500Y-100599240D03*
%TO.P,NX4,LHDP*%
%TO.N,N/C*%
X127335540Y-101600000D03*
%TD*%
%TO.P,NX2,0,0*%
%TO.N,/Net-(U3A-HVOUT13)*%
X81246980Y-97282000D03*
%TO.P,NX2,1,1*%
%TO.N,/Net-(U3A-HVOUT22)*%
X71884540Y-100599240D03*
%TO.P,NX2,2,2*%
%TO.N,/Net-(U3A-HVOUT21)*%
X70200520Y-97282000D03*
%TO.P,NX2,3,3*%
%TO.N,/Net-(U3A-HVOUT20)*%
X70073520Y-92783660D03*
%TO.P,NX2,4,4*%
%TO.N,/Net-(U3A-HVOUT19)*%
X70200520Y-88285320D03*
%TO.P,NX2,5,5*%
%TO.N,/Net-(U3A-HVOUT18)*%
X71884540Y-84968080D03*
%TO.P,NX2,6,6*%
%TO.N,/Net-(U3A-HVOUT17)*%
X75882500Y-83967320D03*
%TO.P,NX2,7,7*%
%TO.N,/Net-(U3A-HVOUT16)*%
X79880460Y-84968080D03*
%TO.P,NX2,8,8*%
%TO.N,/Net-(U3A-HVOUT15)*%
X81246980Y-88285320D03*
%TO.P,NX2,9,9*%
%TO.N,/Net-(U3A-HVOUT14)*%
X81373980Y-92783660D03*
%TO.P,NX2,A,A*%
%TO.N,Net-(NX2-PadA)*%
X79880460Y-100599240D03*
%TO.P,NX2,LHDP*%
%TO.N,N/C*%
X75882500Y-101600000D03*
%TD*%
D17*
%TO.P,D2,1,K*%
%TO.N,Net-(D2-K)*%
X155575000Y-67945000D03*
D18*
%TO.P,D2,2,A*%
%TO.N,GND*%
X168275000Y-67945000D03*
%TD*%
D10*
%TO.P,R2,1*%
%TO.N,Net-(D1-K)*%
X77060000Y-48895000D03*
D11*
%TO.P,R2,2*%
%TO.N,Net-(U1-ADC6)*%
X79600000Y-48895000D03*
%TD*%
D14*
%TO.P,C2,1*%
%TO.N,Net-(U1-AREF)*%
X127000000Y-63730000D03*
D15*
%TO.P,C2,2*%
%TO.N,GND*%
X127000000Y-62230000D03*
%TD*%
D23*
%TO.P,L1,1,1*%
%TO.N,VCC*%
X49530000Y-65405000D03*
%TO.P,L1,2,2*%
%TO.N,Net-(D1-A)*%
X57150000Y-65405000D03*
%TD*%
D10*
%TO.P,R14,1*%
%TO.N,VCC*%
X167640000Y-56925000D03*
D11*
%TO.P,R14,2*%
%TO.N,Net-(U5-DC)*%
X167640000Y-54385000D03*
%TD*%
D21*
%TO.P,J7,1,Pin_1*%
%TO.N,Net-(J7-Pin_1)*%
X121080000Y-45720000D03*
D22*
%TO.P,J7,2,Pin_2*%
%TO.N,GND*%
X121080000Y-43180000D03*
%TD*%
D24*
%TO.P,C3,1*%
%TO.N,Net-(D1-K)*%
X76972349Y-57150000D03*
D10*
%TO.P,C3,2*%
%TO.N,GND*%
X81972349Y-57150000D03*
%TD*%
D21*
%TO.P,J8,1,Pin_1*%
%TO.N,Net-(J8-Pin_1)*%
X125730000Y-45720000D03*
D22*
%TO.P,J8,2,Pin_2*%
%TO.N,GND*%
X125730000Y-43180000D03*
%TD*%
D10*
%TO.P,R5,1*%
%TO.N,Net-(NE2-Pad1)*%
X93980000Y-104140000D03*
D11*
%TO.P,R5,2*%
%TO.N,Net-(D1-K)*%
X96520000Y-104140000D03*
%TD*%
D24*
%TO.P,C5,1*%
%TO.N,VDD*%
X144860000Y-59690000D03*
D10*
%TO.P,C5,2*%
%TO.N,GND*%
X149860000Y-59690000D03*
%TD*%
%TO.P,R16,1*%
%TO.N,Net-(U5-Vfb)*%
X173355000Y-66675000D03*
D11*
%TO.P,R16,2*%
%TO.N,GND*%
X173355000Y-69215000D03*
%TD*%
D23*
%TO.P,L2,1,1*%
%TO.N,Net-(D2-K)*%
X179070000Y-52070000D03*
%TO.P,L2,2,2*%
%TO.N,VDD*%
X179070000Y-59690000D03*
%TD*%
D19*
%TO.P,NE2,1*%
%TO.N,Net-(NE2-Pad1)*%
X88900000Y-96520000D03*
D20*
%TO.P,NE2,2*%
%TO.N,/Net-(U3A-HVOUT1)*%
X91440000Y-96520000D03*
%TD*%
D16*
%TO.P,NX6,0,0*%
%TO.N,/unconnected-(U4A-HVOUT1-Pad22)*%
X186323480Y-97282000D03*
%TO.P,NX6,1,1*%
%TO.N,/unconnected-(U4A-HVOUT10-Pad13)*%
X176961040Y-100599240D03*
%TO.P,NX6,2,2*%
%TO.N,/unconnected-(U4A-HVOUT9-Pad14)*%
X175277020Y-97282000D03*
%TO.P,NX6,3,3*%
%TO.N,/unconnected-(U4A-HVOUT8-Pad15)*%
X175150020Y-92783660D03*
%TO.P,NX6,4,4*%
%TO.N,/unconnected-(U4A-HVOUT7-Pad16)*%
X175277020Y-88285320D03*
%TO.P,NX6,5,5*%
%TO.N,/unconnected-(U4A-HVOUT6-Pad17)*%
X176961040Y-84968080D03*
%TO.P,NX6,6,6*%
%TO.N,/unconnected-(U4A-HVOUT5-Pad18)*%
X180959000Y-83967320D03*
%TO.P,NX6,7,7*%
%TO.N,/unconnected-(U4A-HVOUT4-Pad19)*%
X184956960Y-84968080D03*
%TO.P,NX6,8,8*%
%TO.N,/unconnected-(U4A-HVOUT3-Pad20)*%
X186323480Y-88285320D03*
%TO.P,NX6,9,9*%
%TO.N,/unconnected-(U4A-HVOUT2-Pad21)*%
X186450480Y-92783660D03*
%TO.P,NX6,A,A*%
%TO.N,Net-(NX6-PadA)*%
X184956960Y-100599240D03*
%TO.P,NX6,LHDP*%
%TO.N,N/C*%
X180959000Y-101600000D03*
%TD*%
D25*
%TO.P,Q1,1,G*%
%TO.N,Net-(Q1-G)*%
X64135000Y-58730000D03*
D26*
%TO.P,Q1,2,D*%
%TO.N,Net-(D1-A)*%
X66675000Y-58730000D03*
%TO.P,Q1,3,S*%
%TO.N,GND*%
X69215000Y-58730000D03*
%TD*%
D21*
%TO.P,J6,1,Pin_1*%
%TO.N,Net-(J6-Pin_1)*%
X116430000Y-45720000D03*
D22*
%TO.P,J6,2,Pin_2*%
%TO.N,GND*%
X116430000Y-43180000D03*
%TD*%
D24*
%TO.P,X1,1,EN*%
%TO.N,VDD*%
X95885000Y-55245000D03*
D10*
%TO.P,X1,4,GND*%
%TO.N,GND*%
X95885000Y-62865000D03*
%TO.P,X1,5,OUT*%
%TO.N,Net-(U1-XTAL1{slash}PB6)*%
X103505000Y-62865000D03*
%TO.P,X1,8,Vcc*%
%TO.N,VDD*%
X103505000Y-55245000D03*
%TD*%
D16*
%TO.P,NX1,0,0*%
%TO.N,/Net-(U3A-HVOUT23)*%
X57196980Y-97282000D03*
%TO.P,NX1,1,1*%
%TO.N,/Net-(U3A-HVOUT32)*%
X47834540Y-100599240D03*
%TO.P,NX1,2,2*%
%TO.N,/Net-(U3A-HVOUT31)*%
X46150520Y-97282000D03*
%TO.P,NX1,3,3*%
%TO.N,/Net-(U3A-HVOUT30)*%
X46023520Y-92783660D03*
%TO.P,NX1,4,4*%
%TO.N,/Net-(U3A-HVOUT29)*%
X46150520Y-88285320D03*
%TO.P,NX1,5,5*%
%TO.N,/Net-(U3A-HVOUT28)*%
X47834540Y-84968080D03*
%TO.P,NX1,6,6*%
%TO.N,/Net-(U3A-HVOUT27)*%
X51832500Y-83967320D03*
%TO.P,NX1,7,7*%
%TO.N,/Net-(U3A-HVOUT26)*%
X55830460Y-84968080D03*
%TO.P,NX1,8,8*%
%TO.N,/Net-(U3A-HVOUT25)*%
X57196980Y-88285320D03*
%TO.P,NX1,9,9*%
%TO.N,/Net-(U3A-HVOUT24)*%
X57323980Y-92783660D03*
%TO.P,NX1,A,A*%
%TO.N,Net-(NX1-PadA)*%
X55830460Y-100599240D03*
%TO.P,NX1,LHDP*%
%TO.N,N/C*%
X51832500Y-101600000D03*
%TD*%
D10*
%TO.P,R7,1*%
%TO.N,Net-(NX3-PadA)*%
X111760000Y-103505000D03*
D11*
%TO.P,R7,2*%
%TO.N,Net-(D1-K)*%
X114300000Y-103505000D03*
%TD*%
D27*
%TO.P,J2,1*%
%TO.N,VCC*%
X49150000Y-49355000D03*
D28*
%TO.P,J2,2*%
%TO.N,GND*%
X49150000Y-43355000D03*
D29*
%TO.P,J2,3*%
%TO.N,N/C*%
X44450000Y-46355000D03*
%TD*%
D24*
%TO.P,U5,1,SwC*%
%TO.N,Net-(U5-DC)*%
X156855000Y-52080000D03*
D11*
%TO.P,U5,2,SwE*%
%TO.N,Net-(D2-K)*%
X156855000Y-54620000D03*
%TO.P,U5,3,TC*%
%TO.N,Net-(U5-TC)*%
X156855000Y-57160000D03*
%TO.P,U5,4,GND*%
%TO.N,GND*%
X156855000Y-59700000D03*
%TO.P,U5,5,Vfb*%
%TO.N,Net-(U5-Vfb)*%
X164475000Y-59700000D03*
%TO.P,U5,6,Vin*%
%TO.N,VCC*%
X164475000Y-57160000D03*
%TO.P,U5,7,Ipk*%
%TO.N,Net-(U5-DC)*%
X164475000Y-54620000D03*
%TO.P,U5,8,DC*%
X164475000Y-52080000D03*
%TD*%
D10*
%TO.P,R11,1*%
%TO.N,Net-(NX1-PadA)*%
X60960000Y-104140000D03*
D11*
%TO.P,R11,2*%
%TO.N,Net-(D1-K)*%
X63500000Y-104140000D03*
%TD*%
D21*
%TO.P,J3,1,Pin_1*%
%TO.N,Net-(J3-Pin_1)*%
X102480000Y-45720000D03*
D22*
%TO.P,J3,2,Pin_2*%
%TO.N,GND*%
X102480000Y-43180000D03*
%TD*%
D10*
%TO.P,R9,1*%
%TO.N,Net-(NX5-PadA)*%
X165735000Y-104140000D03*
D11*
%TO.P,R9,2*%
%TO.N,Net-(D1-K)*%
X168275000Y-104140000D03*
%TD*%
D19*
%TO.P,NE3,1*%
%TO.N,Net-(NE3-Pad1)*%
X142240000Y-88900000D03*
D20*
%TO.P,NE3,2*%
%TO.N,/unconnected-(U4A-HVOUT22-Pad1)*%
X144780000Y-88900000D03*
%TD*%
D10*
%TO.P,C4,1*%
%TO.N,Net-(U5-TC)*%
X151725000Y-50800000D03*
%TO.P,C4,2*%
%TO.N,GND*%
X146725000Y-50800000D03*
%TD*%
D21*
%TO.P,J1,1,MOSI*%
%TO.N,Net-(J1-MOSI)*%
X133350000Y-52070000D03*
D22*
%TO.P,J1,2,VCC*%
%TO.N,VDD*%
X135890000Y-52070000D03*
%TO.P,J1,3,NC*%
%TO.N,unconnected-(J1-NC-Pad3)*%
X133350000Y-54610000D03*
%TO.P,J1,4,GND*%
%TO.N,GND*%
X135890000Y-54610000D03*
%TO.P,J1,5,~{RST}*%
%TO.N,Net-(J1-~{RST})*%
X133350000Y-57150000D03*
%TO.P,J1,6,GND*%
%TO.N,GND*%
X135890000Y-57150000D03*
%TO.P,J1,7,SCK*%
%TO.N,Net-(J1-SCK)*%
X133350000Y-59690000D03*
%TO.P,J1,8,GND*%
%TO.N,GND*%
X135890000Y-59690000D03*
%TO.P,J1,9,MISO*%
%TO.N,Net-(J1-MISO)*%
X133350000Y-62230000D03*
%TO.P,J1,10,GND*%
%TO.N,GND*%
X135890000Y-62230000D03*
%TD*%
D10*
%TO.P,R6,1*%
%TO.N,Net-(NX2-PadA)*%
X83185000Y-104140000D03*
D11*
%TO.P,R6,2*%
%TO.N,Net-(D1-K)*%
X85725000Y-104140000D03*
%TD*%
D16*
%TO.P,NX5,0,0*%
%TO.N,/unconnected-(U4A-HVOUT11-Pad12)*%
X163446460Y-97282000D03*
%TO.P,NX5,1,1*%
%TO.N,/unconnected-(U4A-HVOUT20-Pad3)*%
X154084020Y-100599240D03*
%TO.P,NX5,2,2*%
%TO.N,/unconnected-(U4A-HVOUT19-Pad4)*%
X152400000Y-97282000D03*
%TO.P,NX5,3,3*%
%TO.N,/unconnected-(U4A-HVOUT18-Pad5)*%
X152273000Y-92783660D03*
%TO.P,NX5,4,4*%
%TO.N,/unconnected-(U4A-HVOUT17-Pad6)*%
X152400000Y-88285320D03*
%TO.P,NX5,5,5*%
%TO.N,/unconnected-(U4A-HVOUT16-Pad7)*%
X154084020Y-84968080D03*
%TO.P,NX5,6,6*%
%TO.N,/unconnected-(U4A-HVOUT15-Pad8)*%
X158081980Y-83967320D03*
%TO.P,NX5,7,7*%
%TO.N,/unconnected-(U4A-HVOUT14-Pad9)*%
X162079940Y-84968080D03*
%TO.P,NX5,8,8*%
%TO.N,/unconnected-(U4A-HVOUT13-Pad10)*%
X163446460Y-88285320D03*
%TO.P,NX5,9,9*%
%TO.N,/unconnected-(U4A-HVOUT12-Pad11)*%
X163573460Y-92783660D03*
%TO.P,NX5,A,A*%
%TO.N,Net-(NX5-PadA)*%
X162079940Y-100599240D03*
%TO.P,NX5,LHDP*%
%TO.N,N/C*%
X158081980Y-101600000D03*
%TD*%
D19*
%TO.P,NE4,1*%
%TO.N,Net-(NE4-Pad1)*%
X142240000Y-96520000D03*
D20*
%TO.P,NE4,2*%
%TO.N,/unconnected-(U4A-HVOUT21-Pad2)*%
X144780000Y-96520000D03*
%TD*%
D30*
%TO.N,VDD*%
X95885000Y-51435000D03*
X97790000Y-46444500D03*
X92075000Y-44450000D03*
%TO.N,GND*%
X138430000Y-62230000D03*
%TO.N,VCC*%
X60960000Y-46355000D03*
X131445000Y-47625000D03*
%TO.N,Net-(Q1-G)*%
X69850000Y-52705000D03*
%TO.N,Net-(U1-ADC6)*%
X115570000Y-71120000D03*
%TO.N,Net-(U1-PD6)*%
X111760000Y-77470000D03*
X66065400Y-47599600D03*
%TO.N,Net-(U1-AREF)*%
X121285000Y-70485000D03*
%TO.N,Net-(U1-PC2)*%
X140970000Y-66675000D03*
X116840000Y-62865000D03*
X90805000Y-52705000D03*
%TO.N,Net-(U1-PC5)*%
X143510000Y-71755000D03*
X90170000Y-72390000D03*
X115570000Y-67310000D03*
%TO.N,Net-(U3A-DATAOUT)*%
X112393604Y-81280000D03*
X139700000Y-67310000D03*
X140335000Y-72390000D03*
X141605000Y-78105000D03*
%TO.N,Net-(U3A-OE)*%
X92710000Y-77470000D03*
X144145000Y-73660000D03*
%TO.N,Net-(J3-Pin_1)*%
X113030000Y-67945000D03*
%TO.N,Net-(J4-Pin_1)*%
X113030000Y-63500000D03*
X125095000Y-55880000D03*
X120650000Y-55880000D03*
%TO.N,Net-(J5-Pin_1)*%
X99060000Y-51435000D03*
X99060000Y-47625000D03*
X99060000Y-53975000D03*
X110490000Y-62865000D03*
%TO.N,Net-(J6-Pin_1)*%
X113030000Y-53340000D03*
X119380000Y-62865000D03*
X114300000Y-68580000D03*
X114935000Y-50800000D03*
X117475000Y-60960000D03*
%TO.N,Net-(J7-Pin_1)*%
X97155000Y-51435000D03*
X98425000Y-57150000D03*
X97155000Y-53975000D03*
X97155000Y-47625000D03*
X93345000Y-46990000D03*
%TO.N,Net-(J8-Pin_1)*%
X120015000Y-77470000D03*
X142875000Y-65405000D03*
%TO.N,Net-(J1-MOSI)*%
X116840000Y-77470000D03*
%TO.N,Net-(J1-MISO)*%
X122555000Y-74930000D03*
%TO.N,Net-(J1-SCK)*%
X123190000Y-73025000D03*
%TD*%
D31*
%TO.N,VDD*%
X97790000Y-46444500D02*
X97100158Y-46444500D01*
X97100158Y-46444500D02*
X95885000Y-47659658D01*
X95885000Y-47659658D02*
X95885000Y-51435000D01*
%TO.N,Net-(J7-Pin_1)*%
X97155000Y-47625000D02*
X97155000Y-51435000D01*
%TO.N,VDD*%
X84455000Y-44450000D02*
X92075000Y-44450000D01*
%TO.N,Net-(U1-PD6)*%
X80645000Y-46355000D02*
X81280000Y-46355000D01*
X67310000Y-46355000D02*
X80645000Y-46355000D01*
X80645000Y-46355000D02*
X80645000Y-45720000D01*
X80645000Y-45720000D02*
X81915000Y-44450000D01*
D32*
%TO.N,GND*%
X138430000Y-62230000D02*
X135890000Y-62230000D01*
D31*
X102480000Y-43180000D02*
X95885000Y-43180000D01*
X95885000Y-43180000D02*
X90170000Y-48895000D01*
D32*
X147320000Y-62230000D02*
X138430000Y-62230000D01*
X149860000Y-59690000D02*
X147320000Y-62230000D01*
D33*
X168275000Y-67945000D02*
X160030000Y-59700000D01*
X160030000Y-59700000D02*
X156855000Y-59700000D01*
D31*
%TO.N,Net-(D1-K)*%
X76972349Y-48982651D02*
X77060000Y-48895000D01*
X76972349Y-57150000D02*
X76972349Y-48982651D01*
D33*
%TO.N,Net-(D2-K)*%
X155575000Y-67945000D02*
X155355000Y-67725000D01*
X155355000Y-56120000D02*
X156855000Y-54620000D01*
X155355000Y-67725000D02*
X155355000Y-56120000D01*
D31*
%TO.N,VCC*%
X57960000Y-49355000D02*
X49150000Y-49355000D01*
D33*
X167640000Y-56925000D02*
X166140000Y-55425000D01*
X166140000Y-51205000D02*
X162560000Y-47625000D01*
X166140000Y-55425000D02*
X166140000Y-51205000D01*
X162560000Y-47625000D02*
X131445000Y-47625000D01*
D31*
X60960000Y-46355000D02*
X57960000Y-49355000D01*
%TO.N,Net-(NX3-PadA)*%
X108854240Y-100599240D02*
X107853480Y-100599240D01*
X111760000Y-103505000D02*
X108854240Y-100599240D01*
%TO.N,Net-(Q1-G)*%
X64135000Y-58730000D02*
X69850000Y-53015000D01*
X69850000Y-53015000D02*
X69850000Y-52705000D01*
%TO.N,Net-(U1-ADC6)*%
X87630000Y-51435000D02*
X95250000Y-59055000D01*
X107950000Y-71120000D02*
X115570000Y-71120000D01*
X95885000Y-59055000D02*
X107950000Y-71120000D01*
X95250000Y-59055000D02*
X95885000Y-59055000D01*
X87630000Y-48895000D02*
X87630000Y-51435000D01*
%TO.N,Net-(U5-Vfb)*%
X167640000Y-60960000D02*
X166780000Y-60960000D01*
X173355000Y-66675000D02*
X167640000Y-60960000D01*
%TO.N,Net-(U1-PD6)*%
X100330000Y-66040000D02*
X111760000Y-77470000D01*
X81280000Y-46355000D02*
X88900000Y-53975000D01*
X90170000Y-66040000D02*
X100330000Y-66040000D01*
X90170000Y-65405000D02*
X90170000Y-66040000D01*
X66065400Y-47599600D02*
X67310000Y-46355000D01*
X88900000Y-53975000D02*
X88900000Y-64135000D01*
X88900000Y-64135000D02*
X90170000Y-65405000D01*
%TO.N,Net-(U1-AREF)*%
X127000000Y-63730000D02*
X127000000Y-64770000D01*
X127000000Y-64770000D02*
X121285000Y-70485000D01*
%TO.N,Net-(U1-PC2)*%
X128810000Y-50895000D02*
X142655991Y-50895000D01*
X150985000Y-60470000D02*
X144780000Y-66675000D01*
X116840000Y-62865000D02*
X128810000Y-50895000D01*
X144780000Y-66675000D02*
X140970000Y-66675000D01*
X90805000Y-52705000D02*
X104954569Y-52705000D01*
X115114569Y-62865000D02*
X116840000Y-62865000D01*
X142655991Y-50895000D02*
X150985000Y-59224009D01*
X104954569Y-52705000D02*
X115114569Y-62865000D01*
X150985000Y-59224009D02*
X150985000Y-60470000D01*
%TO.N,Net-(U1-PC5)*%
X117084695Y-78740000D02*
X136525000Y-78740000D01*
X96520000Y-78740000D02*
X90170000Y-72390000D01*
X116115000Y-77770305D02*
X117084695Y-78740000D01*
X116295000Y-68035000D02*
X116295000Y-76745000D01*
X136525000Y-78740000D02*
X143510000Y-71755000D01*
X116115000Y-76925000D02*
X116115000Y-77770305D01*
X117084695Y-78740000D02*
X96520000Y-78740000D01*
X115570000Y-67310000D02*
X116295000Y-68035000D01*
X116295000Y-76745000D02*
X116115000Y-76925000D01*
%TO.N,Net-(U3A-DATAOUT)*%
X138430000Y-81280000D02*
X141605000Y-78105000D01*
X112393604Y-81280000D02*
X138430000Y-81280000D01*
X140335000Y-72390000D02*
X140335000Y-67945000D01*
X140335000Y-67945000D02*
X139700000Y-67310000D01*
%TO.N,Net-(U3A-OE)*%
X138615000Y-79190000D02*
X94430000Y-79190000D01*
X144145000Y-73660000D02*
X138615000Y-79190000D01*
X94430000Y-79190000D02*
X92710000Y-77470000D01*
D33*
%TO.N,Net-(U5-DC)*%
X156855000Y-52080000D02*
X164475000Y-52080000D01*
D31*
%TO.N,Net-(J3-Pin_1)*%
X102480000Y-45720000D02*
X96764695Y-45720000D01*
X96764695Y-45720000D02*
X90080000Y-52404695D01*
X90080000Y-52404695D02*
X90080000Y-53005305D01*
X103690000Y-58605000D02*
X113030000Y-67945000D01*
X95679695Y-58605000D02*
X103690000Y-58605000D01*
X90080000Y-53005305D02*
X95679695Y-58605000D01*
%TO.N,Net-(J4-Pin_1)*%
X113120000Y-63590000D02*
X113030000Y-63500000D01*
X107130000Y-45720000D02*
X117290000Y-55880000D01*
X117290000Y-55880000D02*
X120650000Y-55880000D01*
X117385000Y-63590000D02*
X113120000Y-63590000D01*
X125095000Y-55880000D02*
X117385000Y-63590000D01*
%TO.N,Net-(J5-Pin_1)*%
X99696396Y-53975000D02*
X108586396Y-62865000D01*
X108586396Y-62865000D02*
X110490000Y-62865000D01*
X99060000Y-47625000D02*
X99060000Y-51435000D01*
X99060000Y-53975000D02*
X99696396Y-53975000D01*
%TO.N,Net-(J6-Pin_1)*%
X118835000Y-62865000D02*
X114300000Y-67400000D01*
X117475000Y-57785000D02*
X117475000Y-60960000D01*
X119380000Y-62865000D02*
X118835000Y-62865000D01*
X113030000Y-53340000D02*
X117475000Y-57785000D01*
X114300000Y-67400000D02*
X114300000Y-68580000D01*
X116430000Y-49305000D02*
X114935000Y-50800000D01*
X116430000Y-45720000D02*
X116430000Y-49305000D01*
%TO.N,Net-(J7-Pin_1)*%
X98425000Y-57150000D02*
X98425000Y-55245000D01*
X121080000Y-45720000D02*
X119905000Y-44545000D01*
X98425000Y-55245000D02*
X97155000Y-53975000D01*
X119905000Y-44545000D02*
X95790000Y-44545000D01*
X95790000Y-44545000D02*
X93345000Y-46990000D01*
%TO.N,Net-(J8-Pin_1)*%
X133105305Y-65405000D02*
X121040305Y-77470000D01*
X142875000Y-65405000D02*
X133105305Y-65405000D01*
X121040305Y-77470000D02*
X120015000Y-77470000D01*
%TO.N,VDD*%
X144860000Y-59690000D02*
X143510000Y-59690000D01*
D32*
X143510000Y-59690000D02*
X135890000Y-52070000D01*
D31*
%TO.N,Net-(J1-MOSI)*%
X116840000Y-68580000D02*
X116840000Y-77470000D01*
X133350000Y-52070000D02*
X116840000Y-68580000D01*
%TO.N,Net-(J1-MISO)*%
X133350000Y-64135000D02*
X122555000Y-74930000D01*
X133350000Y-62230000D02*
X133350000Y-64135000D01*
%TO.N,Net-(J1-SCK)*%
X133350000Y-59690000D02*
X123190000Y-69850000D01*
X123190000Y-69850000D02*
X123190000Y-73025000D01*
%TD*%
M02*
